<?xml version="1.0" encoding="UTF-8"?>
<svg width="435px" height="396px" viewBox="0 0 435 396" version="1.1" xmlns="http://www.w3.org/2000/svg" xmlns:xlink="http://www.w3.org/1999/xlink">
    <!-- Generator: Sketch 50.2 (55047) - http://www.bohemiancoding.com/sketch -->
    <title>食物</title>
    <desc>Created with Sketch.</desc>
    <defs></defs>
    <g id="Page-1" stroke="none" stroke-width="1" fill="none" fill-rule="evenodd">
        <g id="Group-9-Copy-2" fill="#FFFFFF">
            <path d="M35.9,21.3 L25.7,21.3 L25.7,19 C25.7,16.666655 25.1500055,14.6500085 24.05,12.95 C22.9499945,11.2499915 21.100013,10.4 18.5,10.4 C17.099993,10.4 15.9500045,10.666664 15.05,11.2 C14.1499955,11.733336 13.4500025,12.4166625 12.95,13.25 C12.4499975,14.0833375 12.100001,15.0499945 11.9,16.15 C11.699999,17.2500055 11.6,18.399994 11.6,19.6 C11.6,21.000007 11.6499995,22.1833285 11.75,23.15 C11.8500005,24.1166715 12.099998,24.9499965 12.5,25.65 C12.900002,26.3500035 13.4833295,26.966664 14.25,27.5 C15.0166705,28.033336 16.06666,28.566664 17.4,29.1 L25.2,32.2 C27.466678,33.066671 29.299993,34.0833275 30.7,35.25 C32.100007,36.4166725 33.1833295,37.7833255 33.95,39.35 C34.7166705,40.9166745 35.233332,42.7166565 35.5,44.75 C35.766668,46.7833435 35.9,49.099987 35.9,51.7 C35.9,54.700015 35.600003,57.4833205 35,60.05 C34.399997,62.6166795 33.4166735,64.8166575 32.05,66.65 C30.6833265,68.4833425 28.866678,69.933328 26.6,71 C24.333322,72.066672 21.566683,72.6 18.3,72.6 C15.833321,72.6 13.533344,72.166671 11.4,71.3 C9.266656,70.433329 7.433341,69.2500075 5.9,67.75 C4.366659,66.2499925 3.1500045,64.466677 2.25,62.4 C1.3499955,60.333323 0.9,58.100012 0.9,55.7 L0.9,51.9 L11.1,51.9 L11.1,55.1 C11.1,56.966676 11.6499945,58.6499925 12.75,60.15 C13.8500055,61.6500075 15.699987,62.4 18.3,62.4 C20.033342,62.4 21.3833285,62.1500025 22.35,61.65 C23.3166715,61.1499975 24.0499975,60.4500045 24.55,59.55 C25.0500025,58.6499955 25.366666,57.53334 25.5,56.2 C25.633334,54.86666 25.7,53.400008 25.7,51.8 C25.7,49.933324 25.633334,48.400006 25.5,47.2 C25.366666,45.999994 25.0833355,45.033337 24.65,44.3 C24.2166645,43.566663 23.6166705,42.966669 22.85,42.5 C22.0833295,42.033331 21.066673,41.533336 19.8,41 L12.5,38 C8.099978,36.199991 5.1500075,33.8166815 3.65,30.85 C2.1499925,27.8833185 1.4,24.166689 1.4,19.7 C1.4,17.03332 1.766663,14.500012 2.5,12.1 C3.233337,9.699988 4.3166595,7.633342 5.75,5.9 C7.1833405,4.166658 8.999989,2.7833385 11.2,1.75 C13.400011,0.7166615 15.966652,0.2 18.9,0.2 C21.433346,0.2 23.7499895,0.666662 25.85,1.6 C27.9500105,2.533338 29.7499925,3.766659 31.25,5.3 C32.7500075,6.833341 33.899996,8.5499905 34.7,10.45 C35.500004,12.3500095 35.9,14.29999 35.9,16.3 L35.9,21.3 Z M43.5,0.8 L53.7,0.8 L53.7,61.8 L73.9,61.8 L73.9,72 L43.5,72 L43.5,0.8 Z M79.9,17.6 C79.9,14.733319 80.399995,12.200011 81.4,10 C82.400005,7.799989 83.7166585,5.9833405 85.35,4.55 C86.9833415,3.1166595 88.8166565,2.033337 90.85,1.3 C92.8833435,0.566663 94.933323,0.2 97,0.2 C99.066677,0.2 101.116657,0.566663 103.15,1.3 C105.183344,2.033337 107.016659,3.1166595 108.65,4.55 C110.283342,5.9833405 111.599995,7.799989 112.6,10 C113.600005,12.200011 114.1,14.733319 114.1,17.6 L114.1,55.2 C114.1,58.133348 113.600005,60.6833225 112.6,62.85 C111.599995,65.0166775 110.283342,66.8166595 108.65,68.25 C107.016659,69.6833405 105.183344,70.766663 103.15,71.5 C101.116657,72.233337 99.066677,72.6 97,72.6 C94.933323,72.6 92.8833435,72.233337 90.85,71.5 C88.8166565,70.766663 86.9833415,69.6833405 85.35,68.25 C83.7166585,66.8166595 82.400005,65.0166775 81.4,62.85 C80.399995,60.6833225 79.9,58.133348 79.9,55.2 L79.9,17.6 Z M90.1,55.2 C90.1,57.666679 90.7833265,59.4833275 92.15,60.65 C93.5166735,61.8166725 95.133324,62.4 97,62.4 C98.866676,62.4 100.483327,61.8166725 101.85,60.65 C103.216674,59.4833275 103.9,57.666679 103.9,55.2 L103.9,17.6 C103.9,15.133321 103.216674,13.3166725 101.85,12.15 C100.483327,10.9833275 98.866676,10.4 97,10.4 C95.133324,10.4 93.5166735,10.9833275 92.15,12.15 C90.7833265,13.3166725 90.1,15.133321 90.1,17.6 L90.1,55.2 Z M165.4,72 L155.8,72 L148,25.8 L147.8,25.8 L140.1,72 L130.5,72 L119.9,0.8 L130.7,0.8 L135.8,46 L136,46 L144,0.8 L151.8,0.8 L160.1,47.1 L160.3,47.1 L165.2,0.8 L176,0.8 L165.4,72 Z M201,0.8 L210.8,0.8 L223.9,38.5 L224.1,38.5 L237.1,0.8 L247,0.8 L247,72 L236.8,72 L236.8,28.7 L236.6,28.7 L226.5,59.3 L221.4,59.3 L211.4,28.7 L211.2,28.7 L211.2,72 L201,72 L201,0.8 Z M256,17.6 C256,14.733319 256.499995,12.200011 257.5,10 C258.500005,7.799989 259.816659,5.9833405 261.45,4.55 C263.083342,3.1166595 264.916657,2.033337 266.95,1.3 C268.983344,0.566663 271.033323,0.2 273.1,0.2 C275.166677,0.2 277.216657,0.566663 279.25,1.3 C281.283344,2.033337 283.116659,3.1166595 284.75,4.55 C286.383342,5.9833405 287.699995,7.799989 288.7,10 C289.700005,12.200011 290.2,14.733319 290.2,17.6 L290.2,55.2 C290.2,58.133348 289.700005,60.6833225 288.7,62.85 C287.699995,65.0166775 286.383342,66.8166595 284.75,68.25 C283.116659,69.6833405 281.283344,70.766663 279.25,71.5 C277.216657,72.233337 275.166677,72.6 273.1,72.6 C271.033323,72.6 268.983344,72.233337 266.95,71.5 C264.916657,70.766663 263.083342,69.6833405 261.45,68.25 C259.816659,66.8166595 258.500005,65.0166775 257.5,62.85 C256.499995,60.6833225 256,58.133348 256,55.2 L256,17.6 Z M266.2,55.2 C266.2,57.666679 266.883327,59.4833275 268.25,60.65 C269.616674,61.8166725 271.233324,62.4 273.1,62.4 C274.966676,62.4 276.583327,61.8166725 277.95,60.65 C279.316674,59.4833275 280,57.666679 280,55.2 L280,17.6 C280,15.133321 279.316674,13.3166725 277.95,12.15 C276.583327,10.9833275 274.966676,10.4 273.1,10.4 C271.233324,10.4 269.616674,10.9833275 268.25,12.15 C266.883327,13.3166725 266.2,15.133321 266.2,17.6 L266.2,55.2 Z M305.9,10.4 L294.1,10.4 L294.1,0.8 L327.9,0.8 L327.9,10.4 L316.1,10.4 L316.1,72 L305.9,72 L305.9,10.4 Z M332.7,0.8 L342.9,0.8 L342.9,72 L332.7,72 L332.7,0.8 Z M352.2,17.6 C352.2,14.733319 352.699995,12.200011 353.7,10 C354.700005,7.799989 356.016659,5.9833405 357.65,4.55 C359.283342,3.1166595 361.116657,2.033337 363.15,1.3 C365.183344,0.566663 367.233323,0.2 369.3,0.2 C371.366677,0.2 373.416656,0.566663 375.45,1.3 C377.483343,2.033337 379.316659,3.1166595 380.95,4.55 C382.583342,5.9833405 383.899995,7.799989 384.9,10 C385.900005,12.200011 386.4,14.733319 386.4,17.6 L386.4,55.2 C386.4,58.133348 385.900005,60.6833225 384.9,62.85 C383.899995,65.0166775 382.583342,66.8166595 380.95,68.25 C379.316659,69.6833405 377.483343,70.766663 375.45,71.5 C373.416656,72.233337 371.366677,72.6 369.3,72.6 C367.233323,72.6 365.183344,72.233337 363.15,71.5 C361.116657,70.766663 359.283342,69.6833405 357.65,68.25 C356.016659,66.8166595 354.700005,65.0166775 353.7,62.85 C352.699995,60.6833225 352.2,58.133348 352.2,55.2 L352.2,17.6 Z M362.4,55.2 C362.4,57.666679 363.083327,59.4833275 364.45,60.65 C365.816674,61.8166725 367.433324,62.4 369.3,62.4 C371.166676,62.4 372.783327,61.8166725 374.15,60.65 C375.516674,59.4833275 376.2,57.666679 376.2,55.2 L376.2,17.6 C376.2,15.133321 375.516674,13.3166725 374.15,12.15 C372.783327,10.9833275 371.166676,10.4 369.3,10.4 C367.433324,10.4 365.816674,10.9833275 364.45,12.15 C363.083327,13.3166725 362.4,15.133321 362.4,17.6 L362.4,55.2 Z M395,0.8 L404.8,0.8 L420.2,43.7 L420.4,43.7 L420.4,0.8 L430.6,0.8 L430.6,72 L421,72 L405.4,29.2 L405.2,29.2 L405.2,72 L395,72 L395,0.8 Z M204.8,95.8 L220.1,95.8 C222.900014,95.8 225.366656,96.166663 227.5,96.9 C229.633344,97.633337 231.566658,98.933324 233.3,100.8 C235.033342,102.666676 236.23333,104.849987 236.9,107.35 C237.56667,109.850012 237.9,113.233312 237.9,117.5 C237.9,120.633349 237.716669,123.316655 237.35,125.55 C236.983332,127.783344 236.200006,129.866657 235,131.8 C233.599993,134.133345 231.733345,135.949993 229.4,137.25 C227.066655,138.550006 224.000019,139.2 220.2,139.2 L215,139.2 L215,167 L204.8,167 L204.8,95.8 Z M215,129.6 L219.9,129.6 C221.966677,129.6 223.566661,129.300003 224.7,128.7 C225.833339,128.099997 226.666664,127.283338 227.2,126.25 C227.733336,125.216661 228.05,123.966674 228.15,122.5 C228.250001,121.033326 228.3,119.400009 228.3,117.6 C228.3,115.933325 228.250001,114.350007 228.15,112.85 C228.05,111.349992 227.750003,110.050005 227.25,108.95 C226.749998,107.849994 225.966672,106.983336 224.9,106.35 C223.833328,105.716663 222.30001,105.4 220.3,105.4 L215,105.4 L215,129.6 Z M245.5,95.8 L275.9,95.8 L275.9,105.4 L255.7,105.4 L255.7,126.3 L273.3,126.3 L273.3,135.9 L255.7,135.9 L255.7,156.8 L275.9,156.8 L275.9,167 L245.5,167 L245.5,95.8 Z M281.9,112.6 C281.9,109.733319 282.399995,107.200011 283.4,105 C284.400005,102.799989 285.716659,100.98334 287.35,99.55 C288.983342,98.1166595 290.816657,97.033337 292.85,96.3 C294.883344,95.566663 296.933323,95.2 299,95.2 C301.066677,95.2 303.116657,95.566663 305.15,96.3 C307.183344,97.033337 309.016659,98.1166595 310.65,99.55 C312.283342,100.98334 313.599995,102.799989 314.6,105 C315.600005,107.200011 316.1,109.733319 316.1,112.6 L316.1,150.2 C316.1,153.133348 315.600005,155.683322 314.6,157.85 C313.599995,160.016677 312.283342,161.816659 310.65,163.25 C309.016659,164.68334 307.183344,165.766663 305.15,166.5 C303.116657,167.233337 301.066677,167.6 299,167.6 C296.933323,167.6 294.883344,167.233337 292.85,166.5 C290.816657,165.766663 288.983342,164.68334 287.35,163.25 C285.716659,161.816659 284.400005,160.016677 283.4,157.85 C282.399995,155.683322 281.9,153.133348 281.9,150.2 L281.9,112.6 Z M292.1,150.2 C292.1,152.666679 292.783326,154.483327 294.15,155.65 C295.516674,156.816672 297.133324,157.4 299,157.4 C300.866676,157.4 302.483327,156.816672 303.85,155.65 C305.216674,154.483327 305.9,152.666679 305.9,150.2 L305.9,112.6 C305.9,110.133321 305.216674,108.316672 303.85,107.15 C302.483327,105.983327 300.866676,105.4 299,105.4 C297.133324,105.4 295.516674,105.983327 294.15,107.15 C292.783326,108.316672 292.1,110.133321 292.1,112.6 L292.1,150.2 Z M325.1,95.8 L340.4,95.8 C343.200014,95.8 345.666656,96.166663 347.8,96.9 C349.933344,97.633337 351.866658,98.933324 353.6,100.8 C355.333342,102.666676 356.53333,104.849987 357.2,107.35 C357.86667,109.850012 358.2,113.233312 358.2,117.5 C358.2,120.633349 358.016669,123.316655 357.65,125.55 C357.283332,127.783344 356.500006,129.866657 355.3,131.8 C353.899993,134.133345 352.033345,135.949993 349.7,137.25 C347.366655,138.550006 344.300019,139.2 340.5,139.2 L335.3,139.2 L335.3,167 L325.1,167 L325.1,95.8 Z M335.3,129.6 L340.2,129.6 C342.266677,129.6 343.866661,129.300003 345,128.7 C346.133339,128.099997 346.966664,127.283338 347.5,126.25 C348.033336,125.216661 348.35,123.966674 348.45,122.5 C348.550001,121.033326 348.6,119.400009 348.6,117.6 C348.6,115.933325 348.550001,114.350007 348.45,112.85 C348.35,111.349992 348.050003,110.050005 347.55,108.95 C347.049998,107.849994 346.266672,106.983336 345.2,106.35 C344.133328,105.716663 342.60001,105.4 340.6,105.4 L335.3,105.4 L335.3,129.6 Z M365.8,95.8 L376,95.8 L376,156.8 L396.2,156.8 L396.2,167 L365.8,167 L365.8,95.8 Z M402.8,95.8 L433.2,95.8 L433.2,105.4 L413,105.4 L413,126.3 L430.6,126.3 L430.6,135.9 L413,135.9 L413,156.8 L433.2,156.8 L433.2,167 L402.8,167 L402.8,95.8 Z" id="SLOW-MOTION-PEOPLE-Copy"></path>
            <polygon id="Rectangle-3-Copy" points="209 202 435 202 435 210 209 210"></polygon>
            <path d="M230.628,242.552 L260.684,242.552 L260.684,260.708 L230.628,260.708 L230.628,242.552 Z M256.06,257.24 L256.06,253.228 L235.252,253.228 L235.252,257.24 L256.06,257.24 Z M235.252,249.964 L256.06,249.964 L256.06,246.02 L235.252,246.02 L235.252,249.964 Z M214.988,240.648 L219.408,240.648 L219.408,302.8 L214.988,302.8 L214.988,240.648 Z M207.644,253.568 L211.384,253.84 C211.248,260.572 210.364,266.964 208.868,273.084 L204.992,271.996 C206.556,266.148 207.44,260.028 207.644,253.568 Z M223.896,251.256 C225.12,254.588 226.276,258.464 227.296,262.816 L223.692,263.768 C222.876,259.824 221.788,256.016 220.564,252.412 L223.896,251.256 Z M226.888,264.38 L264.56,264.38 L264.56,277.64 L226.888,277.64 L226.888,264.38 Z M260.344,274.308 L260.344,267.712 L253,267.712 L253,274.308 L260.344,274.308 Z M249.192,274.308 L249.192,267.712 L242.12,267.712 L242.12,274.308 L249.192,274.308 Z M238.244,274.308 L238.244,267.712 L230.9,267.712 L230.9,274.308 L238.244,274.308 Z M227.16,281.788 L262.52,281.788 L262.52,285.188 C259.324,288.996 255.448,292.192 250.96,294.844 C255.72,296.68 261.228,298.108 267.416,299.196 L264.764,303.072 C257.624,301.644 251.504,299.672 246.404,297.224 C240.692,299.808 234.028,301.78 226.48,303.004 L224.44,298.924 C230.832,298.04 236.612,296.612 241.644,294.708 C237.292,292.124 233.756,289.064 230.968,285.664 L227.16,285.664 L227.16,281.788 Z M235.728,285.664 C238.516,288.384 241.984,290.696 246.132,292.736 C250.076,290.764 253.476,288.384 256.468,285.664 L235.728,285.664 Z M287.972,275.736 C287.972,274.557327 288.402662,273.537338 289.264,272.676 C290.125338,271.814662 291.145327,271.384 292.324,271.384 C293.502673,271.384 294.522662,271.814662 295.384,272.676 C296.245338,273.537338 296.676,274.557327 296.676,275.736 C296.676,276.914673 296.245338,277.934662 295.384,278.796 C294.522662,279.657338 293.502673,280.088 292.324,280.088 C291.145327,280.088 290.125338,279.657338 289.264,278.796 C288.402662,277.934662 287.972,276.914673 287.972,275.736 Z M330.88,240.58 L334.28,240.58 C342.712,248.74 352.436,255.132 363.452,259.824 L361.072,264.108 C349.92,259.212 340.468,252.82 332.58,245 C325.372,252.616 315.784,259.212 303.952,264.72 L301.572,260.436 C313.336,255.132 323.128,248.468 330.88,240.58 Z M320.136,274.172 L320.136,279.748 L346.112,279.748 L346.112,274.172 L320.136,274.172 Z M346.112,269.956 L346.112,264.38 L320.136,264.38 L320.136,269.956 L346.112,269.956 Z M354.68,282.808 L358.828,284.848 C356.04,287.976 353.048,290.832 349.852,293.348 C353.932,295.388 357.74,297.496 361.208,299.672 L358.148,303.344 C350.94,298.448 341.76,293.824 330.608,289.54 L333.328,286.208 C337.748,287.84 341.896,289.608 345.772,291.376 C349.036,288.724 352.028,285.868 354.68,282.808 Z M314.424,302.936 L313.132,299.06 C314.56,298.652 315.308,297.36 315.308,295.32 L315.308,260.028 L331.288,260.028 C330.472,257.512 329.52,255.2 328.568,253.092 L333.056,252.344 C334.008,254.588 334.96,257.172 335.776,260.028 L350.94,260.028 L350.94,284.1 L320.136,284.1 L320.136,297.428 C325.508,296.34 330.608,295.116 335.436,293.688 L336.32,297.836 C330.472,299.74 323.128,301.44 314.424,302.936 Z M400.784,240.376 L405.408,241.6 C404.66,245.136 403.844,248.4 402.892,251.392 L429.276,251.392 C429.276,274.104 428.936,288.112 428.256,293.416 C427.508,299.4 423.836,302.392 417.24,302.392 C416.288,302.392 414.588,302.324 412.14,302.188 L410.984,297.768 C413.16,297.904 414.996,298.04 416.56,298.04 C420.708,298.04 423.088,295.864 423.7,291.512 C424.176,287.704 424.448,275.872 424.584,256.152 L419.96,256.152 C418.464,267.508 416.424,276.484 413.772,283.08 C410.644,290.152 406.02,296.544 399.832,302.188 L396.84,298.312 C402.552,293.144 406.768,287.432 409.624,281.176 C412.276,274.852 414.248,266.488 415.54,256.152 L410.236,256.152 C407.516,270.976 402.348,281.72 394.732,288.452 L391.536,284.78 C398.54,278.796 403.3,269.208 405.884,256.152 L401.192,256.152 C399.356,260.504 397.316,264.04 395.004,266.896 L391.4,263.836 C395.752,258.396 398.88,250.576 400.784,240.376 Z M376.168,259.416 C375.42,262.816 374.536,266.148 373.448,269.344 L369.164,268.12 C371.748,260.912 373.176,253.364 373.516,245.408 L377.8,245.748 C377.664,248.74 377.392,251.732 376.984,254.656 L381.744,254.656 L381.744,240.512 L386.504,240.512 L386.504,254.656 L392.216,254.656 L392.216,259.416 L386.504,259.416 L386.504,275.736 C388.408,274.852 390.176,273.968 391.944,273.016 L391.944,277.64 C390.176,278.592 388.34,279.476 386.504,280.36 L386.504,302.8 L381.744,302.8 L381.744,282.4 C378.276,283.76 374.74,285.052 371.068,286.208 L369.912,281.448 C373.992,280.496 377.936,279.272 381.744,277.776 L381.744,259.416 L376.168,259.416 Z" id="慢-·食物-copy"></path>
            <path d="M209.14,362.96 L209.14,364.32 C207.38,365.08 205.38,365.68 203.12,366.14 L202.94,364.76 C205.3,364.32 207.38,363.72 209.14,362.96 Z M205.98,348.62 L207.3,349.14 C206.38,351.76 205.46,353.86 204.52,355.42 C205.3,355.3 206.1,355.16 206.9,355 C207.22,354.28 207.58,353.52 207.94,352.7 L209.2,353.16 C207.6,356.56 206.28,359 205.2,360.46 C206.52,360.2 207.82,359.86 209.12,359.42 L209.12,360.7 C207.2,361.32 205.34,361.74 203.58,361.98 L203.22,360.72 C203.46,360.62 203.66,360.5 203.84,360.34 C204.5,359.54 205.32,358.18 206.28,356.26 C205.26,356.46 204.24,356.64 203.22,356.8 L202.86,355.56 C203.08,355.46 203.28,355.28 203.44,355.04 C204.42,353.18 205.26,351.04 205.98,348.62 Z M214.56,351.6 L211.32,351.6 L211.32,357.18 L214.56,357.18 L214.56,351.6 Z M214.56,358.48 L211.32,358.48 L211.32,364.28 L214.56,364.28 L214.56,358.48 Z M215.88,364.28 L219.1,364.28 L219.1,358.48 L215.88,358.48 L215.88,364.28 Z M215.88,357.18 L219.1,357.18 L219.1,351.6 L215.88,351.6 L215.88,357.18 Z M219.1,365.6 L211.32,365.6 L211.32,366.9 L210,366.9 L210,350.26 L220.46,350.26 L220.46,366.9 L219.1,366.9 L219.1,365.6 Z M234.56,366.34 L230.1,366.34 C228.7,366.34 228.02,365.66 228.02,364.32 L228.02,352.84 L229.46,352.84 L229.46,364.02 C229.46,364.62 229.82,364.92 230.54,364.92 L234.3,364.92 C234.78,364.92 235.12,364.72 235.32,364.34 C235.56,363.86 235.74,362.46 235.84,360.12 L237.2,360.58 C237.04,363.32 236.76,364.98 236.34,365.58 C235.96,366.08 235.36,366.34 234.56,366.34 Z M225.06,354.98 L226.44,355.26 C225.88,358.7 225.08,361.66 224.04,364.14 L222.8,363.36 C223.84,360.82 224.58,358.02 225.06,354.98 Z M237.94,354.36 C239.22,356.96 240.32,359.72 241.28,362.66 L239.96,363.26 C238.92,360.08 237.78,357.26 236.54,354.82 L237.94,354.36 Z M230.74,348.74 C232.58,350.68 234,352.38 234.98,353.84 L233.78,354.66 C232.74,353.1 231.34,351.36 229.54,349.48 L230.74,348.74 Z M246.48,349.5 L257.5,349.5 L257.5,356.04 L246.48,356.04 L246.48,349.5 Z M256.06,354.68 L256.06,350.86 L247.92,350.86 L247.92,354.68 L256.06,354.68 Z M250.86,358.02 L250.86,366.7 L249.46,366.7 L249.46,365.68 L245.24,365.68 L245.24,366.7 L243.82,366.7 L243.82,358.02 L250.86,358.02 Z M245.24,364.32 L249.46,364.32 L249.46,359.4 L245.24,359.4 L245.24,364.32 Z M260.16,358.02 L260.16,366.7 L258.72,366.7 L258.72,365.68 L254.34,365.68 L254.34,366.7 L252.92,366.7 L252.92,358.02 L260.16,358.02 Z M254.34,364.32 L258.72,364.32 L258.72,359.4 L254.34,359.4 L254.34,364.32 Z M268.8,350.34 L268.8,364.98 L267.46,364.98 L267.46,363.78 L265.06,363.78 L265.06,365.46 L263.66,365.46 L263.66,350.34 L268.8,350.34 Z M265.06,362.44 L267.46,362.44 L267.46,351.66 L265.06,351.66 L265.06,362.44 Z M276.02,357.72 L276.02,367.06 L274.6,367.06 L274.6,357.66 C273.68,360.74 272.16,363.28 270.04,365.28 L269.28,364.06 C271.28,362.36 272.74,360.18 273.64,357.54 L269.88,357.54 L269.88,356.18 L274.6,356.18 L274.6,352.86 L270.58,352.86 L270.58,351.5 L274.6,351.5 L274.6,348.62 L276.02,348.62 L276.02,351.5 L280.02,351.5 L280.02,352.86 L276.02,352.86 L276.02,356.18 L280.68,356.18 L280.68,357.54 L276.98,357.54 C277.82,359.96 279.28,362.12 281.36,364.02 L280.42,365.18 C278.34,362.94 276.86,360.44 276.02,357.72 Z M291.48,348.7 L292.48,348.7 C294.96,351.1 297.82,352.98 301.06,354.36 L300.36,355.62 C297.08,354.18 294.3,352.3 291.98,350 C289.86,352.24 287.04,354.18 283.56,355.8 L282.86,354.54 C286.32,352.98 289.2,351.02 291.48,348.7 Z M288.32,358.58 L288.32,360.22 L295.96,360.22 L295.96,358.58 L288.32,358.58 Z M295.96,357.34 L295.96,355.7 L288.32,355.7 L288.32,357.34 L295.96,357.34 Z M298.48,361.12 L299.7,361.72 C298.88,362.64 298,363.48 297.06,364.22 C298.26,364.82 299.38,365.44 300.4,366.08 L299.5,367.16 C297.38,365.72 294.68,364.36 291.4,363.1 L292.2,362.12 C293.5,362.6 294.72,363.12 295.86,363.64 C296.82,362.86 297.7,362.02 298.48,361.12 Z M286.64,367.04 L286.26,365.9 C286.68,365.78 286.9,365.4 286.9,364.8 L286.9,354.42 L291.6,354.42 C291.36,353.68 291.08,353 290.8,352.38 L292.12,352.16 C292.4,352.82 292.68,353.58 292.92,354.42 L297.38,354.42 L297.38,361.5 L288.32,361.5 L288.32,365.42 C289.9,365.1 291.4,364.74 292.82,364.32 L293.08,365.54 C291.36,366.1 289.2,366.6 286.64,367.04 Z M312.04,348.64 L313.4,349 C313.18,350.04 312.94,351 312.66,351.88 L320.42,351.88 C320.42,358.56 320.32,362.68 320.12,364.24 C319.9,366 318.82,366.88 316.88,366.88 C316.6,366.88 316.1,366.86 315.38,366.82 L315.04,365.52 C315.68,365.56 316.22,365.6 316.68,365.6 C317.9,365.6 318.6,364.96 318.78,363.68 C318.92,362.56 319,359.08 319.04,353.28 L317.68,353.28 C317.24,356.62 316.64,359.26 315.86,361.2 C314.94,363.28 313.58,365.16 311.76,366.82 L310.88,365.68 C312.56,364.16 313.8,362.48 314.64,360.64 C315.42,358.78 316,356.32 316.38,353.28 L314.82,353.28 C314.02,357.64 312.5,360.8 310.26,362.78 L309.32,361.7 C311.38,359.94 312.78,357.12 313.54,353.28 L312.16,353.28 C311.62,354.56 311.02,355.6 310.34,356.44 L309.28,355.54 C310.56,353.94 311.48,351.64 312.04,348.64 Z M304.8,354.24 C304.58,355.24 304.32,356.22 304,357.16 L302.74,356.8 C303.5,354.68 303.92,352.46 304.02,350.12 L305.28,350.22 C305.24,351.1 305.16,351.98 305.04,352.84 L306.44,352.84 L306.44,348.68 L307.84,348.68 L307.84,352.84 L309.52,352.84 L309.52,354.24 L307.84,354.24 L307.84,359.04 C308.4,358.78 308.92,358.52 309.44,358.24 L309.44,359.6 C308.92,359.88 308.38,360.14 307.84,360.4 L307.84,367 L306.44,367 L306.44,361 C305.42,361.4 304.38,361.78 303.3,362.12 L302.96,360.72 C304.16,360.44 305.32,360.08 306.44,359.64 L306.44,354.24 L304.8,354.24 Z M333.48,353.8 L330.62,353.8 L330.62,352.46 L336.82,352.46 C337.46,351.22 338.02,349.9 338.5,348.5 L339.82,348.96 C339.34,350.28 338.82,351.44 338.22,352.46 L340.6,352.46 L340.6,353.8 L337.76,353.8 L337.76,364.74 L341.14,364.74 L341.14,366.14 L330.46,366.14 L330.46,364.74 L333.48,364.74 L333.48,353.8 Z M336.44,353.8 L334.78,353.8 L334.78,364.74 L336.44,364.74 L336.44,353.8 Z M339.84,355.26 L340.98,355.58 C340.58,358.18 340.1,360.48 339.52,362.44 L338.4,362.02 C338.96,360.26 339.44,358 339.84,355.26 Z M331.62,355.66 C332.06,357.62 332.42,359.84 332.72,362.32 L331.6,362.46 C331.26,359.94 330.88,357.72 330.44,355.8 L331.62,355.66 Z M332.82,348.58 C333.42,349.56 334,350.62 334.54,351.78 L333.34,352.38 C332.8,351.18 332.22,350.12 331.62,349.16 L332.82,348.58 Z M329.52,355.7 L329.52,366.08 L328.24,366.08 L328.24,365.12 L326.2,365.12 L326.2,366.44 L324.88,366.44 L324.88,358.02 C324.44,358.86 323.98,359.64 323.46,360.38 L322.66,359.1 C324.18,356.78 325.18,354.14 325.66,351.16 L323.26,351.16 L323.26,349.8 L329.88,349.8 L329.88,351.16 L327.04,351.16 C326.78,352.78 326.4,354.3 325.88,355.7 L329.52,355.7 Z M326.2,363.8 L328.24,363.8 L328.24,356.98 L326.2,356.98 L326.2,363.8 Z M348.98,356.78 L348.98,358.2 C348.34,358.56 347.7,358.88 347.06,359.18 L347.06,365.06 C347.06,366.26 346.48,366.88 345.34,366.88 L343.72,366.88 L343.4,365.5 C343.9,365.56 344.38,365.6 344.84,365.6 C345.36,365.6 345.62,365.3 345.62,364.7 L345.62,359.82 C344.84,360.14 344.06,360.44 343.28,360.68 L342.96,359.32 C343.86,359.08 344.74,358.78 345.62,358.42 L345.62,353.72 L343.1,353.72 L343.1,352.34 L345.62,352.34 L345.62,348.76 L347.06,348.76 L347.06,352.34 L348.64,352.34 L348.64,353.72 L347.06,353.72 L347.06,357.8 C347.7,357.48 348.34,357.14 348.98,356.78 Z M349.82,350.18 L354.08,350.18 C353.82,349.66 353.54,349.16 353.24,348.72 L354.74,348.48 C355.02,348.98 355.28,349.54 355.52,350.18 L360.08,350.18 L360.08,351.36 L358.26,351.36 L357.66,353.42 L360.68,353.42 L360.68,354.6 L349.26,354.6 L349.26,353.42 L352.12,353.42 L351.54,351.36 L349.82,351.36 L349.82,350.18 Z M353.44,353.42 L356.34,353.42 L356.94,351.36 L352.86,351.36 L353.44,353.42 Z M350.28,355.72 L359.66,355.72 L359.66,361.5 L355.62,361.5 L355.62,362.76 L360.22,362.76 L360.22,363.88 L355.62,363.88 L355.62,365.22 L360.92,365.22 L360.92,366.46 L349,366.46 L349,365.22 L354.32,365.22 L354.32,363.88 L349.74,363.88 L349.74,362.76 L354.32,362.76 L354.32,361.5 L350.28,361.5 L350.28,355.72 Z M358.38,360.44 L358.38,359.14 L355.62,359.14 L355.62,360.44 L358.38,360.44 Z M354.32,360.44 L354.32,359.14 L351.56,359.14 L351.56,360.44 L354.32,360.44 Z M351.56,358.12 L354.32,358.12 L354.32,356.78 L351.56,356.78 L351.56,358.12 Z M355.62,356.78 L355.62,358.12 L358.38,358.12 L358.38,356.78 L355.62,356.78 Z M370.08,352.12 L370.08,365.76 L368.68,365.76 L368.68,364.62 L365.04,364.62 L365.04,366.34 L363.64,366.34 L363.64,352.12 L365.5,352.12 C365.9,351 366.18,349.84 366.36,348.64 L367.8,348.84 C367.56,350.02 367.26,351.12 366.86,352.12 L370.08,352.12 Z M365.04,363.28 L368.68,363.28 L368.68,358.9 L365.04,358.9 L365.04,363.28 Z M365.04,357.6 L368.68,357.6 L368.68,353.48 L365.04,353.48 L365.04,357.6 Z M373.56,356.76 C375,358.42 376.08,359.88 376.84,361.12 L375.7,361.92 C374.88,360.6 373.78,359.12 372.4,357.48 L373.56,356.76 Z M380.42,352.14 C380.42,358.78 380.32,362.9 380.12,364.46 C379.92,365.98 379,366.76 377.32,366.76 C376.92,366.76 376.24,366.72 375.28,366.68 L374.94,365.36 C375.78,365.4 376.5,365.42 377.12,365.42 C378.06,365.42 378.6,364.9 378.76,363.88 C378.88,362.76 378.96,359.3 379,353.54 L373.5,353.54 C372.94,354.8 372.28,355.94 371.5,356.96 L370.64,355.82 C372.04,353.86 372.98,351.46 373.5,348.62 L374.92,348.8 C374.68,349.98 374.4,351.1 374.04,352.14 L380.42,352.14 Z M389.4,350.16 L389.4,364.9 L388,364.9 L388,363.56 L385.04,363.56 L385.04,365.38 L383.64,365.38 L383.64,350.16 L389.4,350.16 Z M385.04,362.22 L388,362.22 L388,357.4 L385.04,357.4 L385.04,362.22 Z M385.04,356.06 L388,356.06 L388,351.48 L385.04,351.48 L385.04,356.06 Z M392.28,356.12 C393.52,358 394.48,359.64 395.14,361.04 L393.94,361.88 C393.24,360.38 392.3,358.7 391.1,356.86 L392.28,356.12 Z M396.84,366.8 L393.34,366.8 L393.04,365.4 C394.2,365.44 395.3,365.48 396.36,365.48 C396.94,365.48 397.24,365.16 397.24,364.54 L397.24,353.72 L390.32,353.72 L390.32,352.34 L397.24,352.34 L397.24,348.82 L398.7,348.82 L398.7,352.34 L401.16,352.34 L401.16,353.72 L398.7,353.72 L398.7,364.9 C398.7,366.16 398.08,366.8 396.84,366.8 Z M415.04,350.42 L416.42,350.42 L416.42,362.88 L415.04,362.88 L415.04,350.42 Z M418.48,366.82 L415.54,366.82 L415.22,365.44 C416.18,365.5 417.1,365.54 417.98,365.54 C418.56,365.54 418.86,365.22 418.86,364.62 L418.86,348.72 L420.3,348.72 L420.3,364.98 C420.3,366.2 419.68,366.82 418.48,366.82 Z M409.56,363.48 C407.84,365.02 405.84,366.2 403.56,367 L402.74,365.76 C407.06,364.3 410.28,361.52 412.44,357.4 L413.7,358.04 C412.8,359.74 411.74,361.24 410.52,362.54 C411.86,363.62 413,364.72 413.94,365.8 L412.88,366.88 C412.04,365.8 410.94,364.66 409.56,363.48 Z M408.52,348.5 C408.86,349.18 409.18,349.94 409.5,350.82 L413.74,350.82 L413.74,352.16 L408.16,352.16 C407.16,354.1 406.3,355.5 405.54,356.38 C406.9,356.26 408.24,356.12 409.6,355.94 C410.08,355.24 410.5,354.5 410.88,353.74 L412.1,354.38 C410.22,358.22 407.48,360.86 403.84,362.26 L403.04,361.02 C405.24,360.22 407.08,358.98 408.56,357.28 C407.1,357.44 405.54,357.6 403.9,357.72 L403.54,356.38 C403.68,356.34 403.78,356.3 403.86,356.26 C404.58,355.74 405.5,354.38 406.64,352.16 L403.12,352.16 L403.12,350.82 L408,350.82 C407.68,350.06 407.34,349.36 406.98,348.74 L408.52,348.5 Z M425.72,362.62 C426.16,362.62 426.54,362.8 426.82,363.18 C427.08,363.54 427.22,364 427.22,364.58 C427.22,365.46 426.96,366.24 426.44,366.92 C425.92,367.56 425.22,368 424.38,368.22 L424.38,367.24 C424.9,367.06 425.32,366.76 425.64,366.36 C425.94,365.94 426.08,365.5 426.08,365.02 C426,365.06 425.84,365.1 425.64,365.1 C425.3,365.1 425.02,364.98 424.78,364.74 C424.54,364.5 424.42,364.2 424.42,363.86 C424.42,363.48 424.54,363.18 424.78,362.96 C425.02,362.72 425.32,362.62 425.72,362.62 Z M317.46,376.66 L318.9,376.66 L318.9,395.02 L317.46,395.02 L317.46,376.66 Z M305.7,383.24 L305,386.56 L312.78,386.56 C312.78,389.86 312.64,392.04 312.36,393.08 C312.08,394.2 310.84,394.8 308.66,394.88 C308.04,394.88 307.42,394.84 306.78,394.8 L306.42,393.46 C307.06,393.5 307.7,393.54 308.34,393.54 C309.86,393.54 310.76,393.18 311,392.48 C311.22,391.74 311.34,390.2 311.34,387.86 L303.46,387.86 L304.5,381.9 L311.16,381.9 L311.16,378.78 L303.88,378.78 L303.88,377.46 L312.58,377.46 L312.58,383.24 L305.7,383.24 Z M323.38,380.48 L324.54,380.56 C324.5,382.56 324.3,384.46 323.94,386.26 L322.82,385.94 C323.14,384.22 323.34,382.4 323.38,380.48 Z M325.64,376.82 L326.96,376.82 L326.96,382.04 C327.66,381.28 328.26,380.48 328.74,379.64 L329.54,380.64 C328.86,381.66 328,382.64 326.96,383.6 L326.96,384.08 C326.94,385.44 326.86,386.68 326.72,387.84 C327.52,388.88 328.32,390.06 329.16,391.36 L328.36,392.56 C327.64,391.18 327,390.08 326.48,389.26 C326,391.68 325.18,393.6 324,395 L322.96,394.08 C324.72,392 325.6,388.68 325.64,384.08 L325.64,376.82 Z M330.42,377.24 L339.96,377.24 L339.96,382.5 L337.94,382.5 L337.94,383.7 L340.64,383.7 L340.64,384.78 L337.94,384.78 L337.94,386.06 L341,386.06 L341,387.18 L338.04,387.18 C338.72,388.06 339.78,388.88 341.26,389.6 L340.44,390.64 C339.8,390.24 339.24,389.82 338.76,389.42 C338.26,389.94 337.7,390.4 337.06,390.82 L336.42,389.96 C336.98,389.58 337.48,389.14 337.92,388.66 C337.44,388.16 337.08,387.66 336.8,387.18 L333.48,387.18 C333.12,387.78 332.64,388.32 332.08,388.8 C332.66,389.24 333.16,389.66 333.56,390.08 L332.78,390.86 C332.38,390.42 331.86,389.94 331.22,389.46 C330.7,389.8 330.16,390.12 329.56,390.4 L328.86,389.24 C330.34,388.68 331.46,388 332.2,387.18 L328.92,387.18 L328.92,386.06 L332.44,386.06 L332.44,384.78 L329.7,384.78 L329.7,383.7 L332.44,383.7 L332.44,382.5 L330.42,382.5 L330.42,377.24 Z M333.72,386.06 L336.68,386.06 L336.68,384.78 L333.72,384.78 L333.72,386.06 Z M336.68,383.7 L336.68,382.5 L333.72,382.5 L333.72,383.7 L336.68,383.7 Z M338.68,381.52 L338.68,380.38 L331.68,380.38 L331.68,381.52 L338.68,381.52 Z M331.68,379.44 L338.68,379.44 L338.68,378.28 L331.68,378.28 L331.68,379.44 Z M334.38,394.98 L332.86,394.98 L332.58,393.74 C333.06,393.8 333.5,393.84 333.94,393.84 C334.26,393.84 334.44,393.64 334.44,393.24 L334.44,387.88 L335.8,387.88 L335.8,393.56 C335.8,394.5 335.32,394.98 334.38,394.98 Z M333.34,391.16 L333.64,392.22 C332.6,392.9 331.3,393.52 329.74,394.04 L329.2,392.8 C330.8,392.36 332.18,391.8 333.34,391.16 Z M336.96,391.3 C338.34,391.86 339.6,392.52 340.74,393.3 L340,394.46 C338.8,393.52 337.56,392.8 336.3,392.28 L336.96,391.3 Z M359.06,377.04 L359.78,378.3 C357.76,378.66 355.42,378.94 352.74,379.12 L352.74,382.26 L360.86,382.26 L360.86,383.64 L352.74,383.64 L352.74,386.76 L358.52,386.76 L358.52,394.94 L357.12,394.94 L357.12,393.82 L346.88,393.82 L346.88,394.94 L345.48,394.94 L345.48,386.76 L351.26,386.76 L351.26,383.64 L343.14,383.64 L343.14,382.26 L351.26,382.26 L351.26,379.2 C349.26,379.28 347.08,379.34 344.76,379.34 L344.3,378.02 C350.22,378 355.14,377.68 359.06,377.04 Z M346.88,392.42 L357.12,392.42 L357.12,388.12 L346.88,388.12 L346.88,392.42 Z M371.32,385.42 L372.76,385.42 C372.68,386.14 372.56,386.82 372.4,387.44 L380.78,387.44 L380.78,388.84 L373.26,388.84 C374.92,391.2 377.56,392.84 381.16,393.72 L380.38,394.98 C376.54,393.92 373.72,391.92 371.9,388.96 C371.46,390.04 370.88,390.96 370.16,391.72 C368.8,393.12 366.56,394.24 363.42,395.04 L362.84,393.72 C365.7,393.04 367.76,392.06 369.02,390.8 C369.58,390.24 370.02,389.58 370.38,388.84 L363.24,388.84 L363.24,387.44 L370.9,387.44 C371.08,386.8 371.22,386.12 371.32,385.42 Z M367.42,378.36 L368.74,378.88 C367.66,381.28 366.26,383.1 364.54,384.36 L363.42,383.38 C365.18,382.14 366.52,380.46 367.42,378.36 Z M376.2,378 C378.04,380.1 379.46,381.94 380.46,383.5 L379.24,384.36 C378.24,382.66 376.84,380.78 375.08,378.7 L376.2,378 Z M371.28,376.9 L372.76,376.9 L372.76,384.62 L371.28,384.62 L371.28,376.9 Z M389.2,380.76 L394.46,380.76 L394.46,378.96 C393.1,379.08 391.64,379.14 390.08,379.14 L389.66,377.86 C393.6,377.86 396.88,377.46 399.5,376.66 L400.18,377.82 C398.92,378.24 397.48,378.56 395.86,378.8 L395.86,380.76 L400.98,380.76 L400.98,382.12 L397.42,382.12 C398.28,383.28 399.6,384.18 401.36,384.86 L400.74,386.12 C398.6,385.1 397.08,383.76 396.16,382.12 L395.86,382.12 L395.86,385.96 L394.46,385.96 L394.46,382.12 L394.26,382.12 C393.22,383.76 391.6,385.12 389.4,386.2 L388.64,384.98 C390.6,384.22 392.06,383.26 393.02,382.12 L389.2,382.12 L389.2,380.76 Z M392.46,388.02 L390.18,388.02 L390.18,386.66 L398.46,386.66 L398.46,387.34 C398.3,388 398.14,388.6 397.94,389.16 L400.54,389.16 L400.54,389.96 C400.4,392.24 400.14,393.66 399.78,394.18 C399.46,394.62 399,394.88 398.36,394.92 C397.58,394.94 396.6,394.96 395.4,394.96 L394.96,393.54 C396.08,393.64 396.94,393.7 397.52,393.7 C398.02,393.68 398.38,393.54 398.6,393.26 C398.84,392.96 399.02,392.02 399.14,390.44 L396.24,390.44 C396.52,389.68 396.76,388.88 396.96,388.02 L393.84,388.02 C393.6,391.2 392.14,393.52 389.44,394.96 L388.68,393.76 C391,392.6 392.26,390.7 392.46,388.02 Z M385.28,376.9 C386.6,377.9 387.7,378.9 388.62,379.9 L387.64,380.9 C386.82,379.94 385.7,378.94 384.28,377.88 L385.28,376.9 Z M382.84,382.78 L387.16,382.78 L387.16,391.66 C387.8,391.1 388.5,390.46 389.24,389.72 L389.62,391.24 C388.46,392.38 387.24,393.4 385.94,394.28 L385.38,393 C385.64,392.76 385.78,392.48 385.78,392.16 L385.78,384.16 L382.84,384.16 L382.84,382.78 Z M405.08,389.14 L406.42,389.42 C405.9,391.3 405.18,392.94 404.26,394.32 L403.04,393.54 C403.96,392.22 404.64,390.74 405.08,389.14 Z M414.74,394.66 L409.92,394.66 C408.62,394.66 407.98,394.02 407.98,392.78 L407.98,388.96 L409.46,388.96 L409.46,392.48 C409.46,393 409.76,393.28 410.36,393.28 L414.48,393.28 C414.88,393.28 415.16,393.18 415.34,392.98 C415.56,392.72 415.7,391.98 415.78,390.78 L417.14,391.22 C417.02,392.84 416.76,393.84 416.36,394.2 C416.02,394.5 415.48,394.66 414.74,394.66 Z M418.1,389.16 C419.42,390.64 420.44,391.94 421.16,393.06 L420.02,393.86 C419.26,392.66 418.24,391.34 416.94,389.9 L418.1,389.16 Z M412.04,388.4 C413.04,389.46 413.82,390.4 414.38,391.2 L413.3,391.98 C412.74,391.1 411.96,390.12 410.96,389.06 L412.04,388.4 Z M404.92,380.94 L411.48,380.94 L411.48,385.12 L404.92,385.12 L404.92,380.94 Z M410.1,383.94 L410.1,382.14 L406.3,382.14 L406.3,383.94 L410.1,383.94 Z M418.3,388.56 C417.48,388.54 416.7,388.16 415.96,387.4 C415.74,387.2 415.54,386.96 415.38,386.72 C414.7,387.28 413.98,387.72 413.24,388.08 L412.48,386.9 C413.3,386.52 414.04,386.06 414.68,385.52 C414.5,385.14 414.36,384.76 414.24,384.36 C413.84,383.06 413.64,381.52 413.64,379.72 L413.64,379.66 L403.42,379.66 L403.42,378.34 L413.64,378.34 L413.64,376.66 L415.04,376.66 L415.04,378.34 L417.4,378.34 C417.16,377.78 416.92,377.28 416.66,376.84 L418.02,376.6 C418.26,377.12 418.48,377.7 418.7,378.34 L420.56,378.34 L420.56,379.66 L415.04,379.66 L415.04,379.72 C415.06,381.24 415.2,382.56 415.48,383.7 C415.56,383.98 415.64,384.26 415.72,384.5 C416.64,383.42 417.42,382.12 418.02,380.6 L419.22,381.22 C418.46,383.1 417.5,384.64 416.36,385.82 C416.48,385.98 416.6,386.16 416.72,386.32 C417.24,386.88 417.72,387.18 418.16,387.18 C418.72,387.18 419.22,386.38 419.62,384.8 L420.78,385.56 C420.22,387.56 419.38,388.56 418.3,388.56 Z M411.96,386.12 L411.96,387.34 C409.48,387.66 406.8,387.94 403.94,388.18 L403.62,386.9 C406.52,386.72 409.3,386.46 411.96,386.12 Z M427,390.16 C427.72,390.16 428.32,390.4 428.84,390.88 C429.34,391.36 429.6,391.96 429.6,392.68 C429.6,393.38 429.34,393.98 428.84,394.46 C428.32,394.94 427.72,395.18 427,395.18 C426.28,395.18 425.66,394.94 425.16,394.48 C424.64,394 424.4,393.4 424.4,392.68 C424.4,391.96 424.64,391.36 425.16,390.88 C425.66,390.4 426.28,390.16 427,390.16 Z M427,391.2 C426.58,391.2 426.22,391.34 425.94,391.64 C425.62,391.92 425.48,392.26 425.48,392.68 C425.48,393.08 425.62,393.42 425.94,393.7 C426.22,393.98 426.58,394.14 427,394.14 C427.4,394.14 427.76,393.98 428.06,393.7 C428.36,393.42 428.52,393.08 428.52,392.68 C428.52,392.26 428.36,391.92 428.06,391.64 C427.76,391.34 427.4,391.2 427,391.2 Z" id="细心品味食物碰撞的时刻，-引爆舌尖诱惑。"></path>
        </g>
    </g>
</svg>