<?xml version="1.0" encoding="UTF-8"?>
<svg width="431px" height="396px" viewBox="0 0 431 396" version="1.1" xmlns="http://www.w3.org/2000/svg" xmlns:xlink="http://www.w3.org/1999/xlink">
    <!-- Generator: Sketch 50.2 (55047) - http://www.bohemiancoding.com/sketch -->
    <title>元素</title>
    <desc>Created with Sketch.</desc>
    <defs></defs>
    <g id="Page-1" stroke="none" stroke-width="1" fill="none" fill-rule="evenodd">
        <g id="Group-4-Copy-2" fill="#FFFFFF">
            <path d="M35.8,21.3 L25.6,21.3 L25.6,19 C25.6,16.666655 25.0500055,14.6500085 23.95,12.95 C22.8499945,11.2499915 21.000013,10.4 18.4,10.4 C16.999993,10.4 15.8500045,10.666664 14.95,11.2 C14.0499955,11.733336 13.3500025,12.4166625 12.85,13.25 C12.3499975,14.0833375 12.000001,15.0499945 11.8,16.15 C11.599999,17.2500055 11.5,18.399994 11.5,19.6 C11.5,21.000007 11.5499995,22.1833285 11.65,23.15 C11.7500005,24.1166715 11.999998,24.9499965 12.4,25.65 C12.800002,26.3500035 13.3833295,26.966664 14.15,27.5 C14.9166705,28.033336 15.96666,28.566664 17.3,29.1 L25.1,32.2 C27.366678,33.066671 29.199993,34.0833275 30.6,35.25 C32.000007,36.4166725 33.0833295,37.7833255 33.85,39.35 C34.6166705,40.9166745 35.133332,42.7166565 35.4,44.75 C35.666668,46.7833435 35.8,49.099987 35.8,51.7 C35.8,54.700015 35.500003,57.4833205 34.9,60.05 C34.299997,62.6166795 33.3166735,64.8166575 31.95,66.65 C30.5833265,68.4833425 28.766678,69.933328 26.5,71 C24.233322,72.066672 21.466683,72.6 18.2,72.6 C15.733321,72.6 13.433344,72.166671 11.3,71.3 C9.166656,70.433329 7.333341,69.2500075 5.8,67.75 C4.266659,66.2499925 3.0500045,64.466677 2.15,62.4 C1.2499955,60.333323 0.8,58.100012 0.8,55.7 L0.8,51.9 L11,51.9 L11,55.1 C11,56.966676 11.5499945,58.6499925 12.65,60.15 C13.7500055,61.6500075 15.599987,62.4 18.2,62.4 C19.933342,62.4 21.2833285,62.1500025 22.25,61.65 C23.2166715,61.1499975 23.9499975,60.4500045 24.45,59.55 C24.9500025,58.6499955 25.266666,57.53334 25.4,56.2 C25.533334,54.86666 25.6,53.400008 25.6,51.8 C25.6,49.933324 25.533334,48.400006 25.4,47.2 C25.266666,45.999994 24.9833355,45.033337 24.55,44.3 C24.1166645,43.566663 23.5166705,42.966669 22.75,42.5 C21.9833295,42.033331 20.966673,41.533336 19.7,41 L12.4,38 C7.999978,36.199991 5.0500075,33.8166815 3.55,30.85 C2.0499925,27.8833185 1.3,24.166689 1.3,19.7 C1.3,17.03332 1.666663,14.500012 2.4,12.1 C3.133337,9.699988 4.2166595,7.633342 5.65,5.9 C7.0833405,4.166658 8.899989,2.7833385 11.1,1.75 C13.300011,0.7166615 15.866652,0.2 18.8,0.2 C21.333346,0.2 23.6499895,0.666662 25.75,1.6 C27.8500105,2.533338 29.6499925,3.766659 31.15,5.3 C32.6500075,6.833341 33.799996,8.5499905 34.6,10.45 C35.400004,12.3500095 35.8,14.29999 35.8,16.3 L35.8,21.3 Z M43.4,0.8 L53.6,0.8 L53.6,61.8 L73.8,61.8 L73.8,72 L43.4,72 L43.4,0.8 Z M79.8,17.6 C79.8,14.733319 80.299995,12.200011 81.3,10 C82.300005,7.799989 83.6166585,5.9833405 85.25,4.55 C86.8833415,3.1166595 88.7166565,2.033337 90.75,1.3 C92.7833435,0.566663 94.833323,0.2 96.9,0.2 C98.966677,0.2 101.016656,0.566663 103.05,1.3 C105.083343,2.033337 106.916658,3.1166595 108.55,4.55 C110.183341,5.9833405 111.499995,7.799989 112.5,10 C113.500005,12.200011 114,14.733319 114,17.6 L114,55.2 C114,58.133348 113.500005,60.6833225 112.5,62.85 C111.499995,65.0166775 110.183341,66.8166595 108.55,68.25 C106.916658,69.6833405 105.083343,70.766663 103.05,71.5 C101.016656,72.233337 98.966677,72.6 96.9,72.6 C94.833323,72.6 92.7833435,72.233337 90.75,71.5 C88.7166565,70.766663 86.8833415,69.6833405 85.25,68.25 C83.6166585,66.8166595 82.300005,65.0166775 81.3,62.85 C80.299995,60.6833225 79.8,58.133348 79.8,55.2 L79.8,17.6 Z M90,55.2 C90,57.666679 90.6833265,59.4833275 92.05,60.65 C93.4166735,61.8166725 95.033324,62.4 96.9,62.4 C98.766676,62.4 100.383326,61.8166725 101.75,60.65 C103.116673,59.4833275 103.8,57.666679 103.8,55.2 L103.8,17.6 C103.8,15.133321 103.116673,13.3166725 101.75,12.15 C100.383326,10.9833275 98.766676,10.4 96.9,10.4 C95.033324,10.4 93.4166735,10.9833275 92.05,12.15 C90.6833265,13.3166725 90,15.133321 90,17.6 L90,55.2 Z M165.3,72 L155.7,72 L147.9,25.8 L147.7,25.8 L140,72 L130.4,72 L119.8,0.8 L130.6,0.8 L135.7,46 L135.9,46 L143.9,0.8 L151.7,0.8 L160,47.1 L160.2,47.1 L165.1,0.8 L175.9,0.8 L165.3,72 Z M200.9,0.8 L210.7,0.8 L223.8,38.5 L224,38.5 L237,0.8 L246.9,0.8 L246.9,72 L236.7,72 L236.7,28.7 L236.5,28.7 L226.4,59.3 L221.3,59.3 L211.3,28.7 L211.1,28.7 L211.1,72 L200.9,72 L200.9,0.8 Z M255.9,17.6 C255.9,14.733319 256.399995,12.200011 257.4,10 C258.400005,7.799989 259.716658,5.9833405 261.35,4.55 C262.983341,3.1166595 264.816657,2.033337 266.85,1.3 C268.883343,0.566663 270.933323,0.2 273,0.2 C275.066677,0.2 277.116656,0.566663 279.15,1.3 C281.183343,2.033337 283.016659,3.1166595 284.65,4.55 C286.283341,5.9833405 287.599995,7.799989 288.6,10 C289.600005,12.200011 290.1,14.733319 290.1,17.6 L290.1,55.2 C290.1,58.133348 289.600005,60.6833225 288.6,62.85 C287.599995,65.0166775 286.283341,66.8166595 284.65,68.25 C283.016659,69.6833405 281.183343,70.766663 279.15,71.5 C277.116656,72.233337 275.066677,72.6 273,72.6 C270.933323,72.6 268.883343,72.233337 266.85,71.5 C264.816657,70.766663 262.983341,69.6833405 261.35,68.25 C259.716658,66.8166595 258.400005,65.0166775 257.4,62.85 C256.399995,60.6833225 255.9,58.133348 255.9,55.2 L255.9,17.6 Z M266.1,55.2 C266.1,57.666679 266.783326,59.4833275 268.15,60.65 C269.516673,61.8166725 271.133324,62.4 273,62.4 C274.866676,62.4 276.483326,61.8166725 277.85,60.65 C279.216673,59.4833275 279.9,57.666679 279.9,55.2 L279.9,17.6 C279.9,15.133321 279.216673,13.3166725 277.85,12.15 C276.483326,10.9833275 274.866676,10.4 273,10.4 C271.133324,10.4 269.516673,10.9833275 268.15,12.15 C266.783326,13.3166725 266.1,15.133321 266.1,17.6 L266.1,55.2 Z M305.8,10.4 L294,10.4 L294,0.8 L327.8,0.8 L327.8,10.4 L316,10.4 L316,72 L305.8,72 L305.8,10.4 Z M332.6,0.8 L342.8,0.8 L342.8,72 L332.6,72 L332.6,0.8 Z M352.1,17.6 C352.1,14.733319 352.599995,12.200011 353.6,10 C354.600005,7.799989 355.916658,5.9833405 357.55,4.55 C359.183341,3.1166595 361.016657,2.033337 363.05,1.3 C365.083343,0.566663 367.133323,0.2 369.2,0.2 C371.266677,0.2 373.316656,0.566663 375.35,1.3 C377.383343,2.033337 379.216658,3.1166595 380.85,4.55 C382.483341,5.9833405 383.799995,7.799989 384.8,10 C385.800005,12.200011 386.3,14.733319 386.3,17.6 L386.3,55.2 C386.3,58.133348 385.800005,60.6833225 384.8,62.85 C383.799995,65.0166775 382.483341,66.8166595 380.85,68.25 C379.216658,69.6833405 377.383343,70.766663 375.35,71.5 C373.316656,72.233337 371.266677,72.6 369.2,72.6 C367.133323,72.6 365.083343,72.233337 363.05,71.5 C361.016657,70.766663 359.183341,69.6833405 357.55,68.25 C355.916658,66.8166595 354.600005,65.0166775 353.6,62.85 C352.599995,60.6833225 352.1,58.133348 352.1,55.2 L352.1,17.6 Z M362.3,55.2 C362.3,57.666679 362.983327,59.4833275 364.35,60.65 C365.716674,61.8166725 367.333324,62.4 369.2,62.4 C371.066676,62.4 372.683327,61.8166725 374.05,60.65 C375.416674,59.4833275 376.1,57.666679 376.1,55.2 L376.1,17.6 C376.1,15.133321 375.416674,13.3166725 374.05,12.15 C372.683327,10.9833275 371.066676,10.4 369.2,10.4 C367.333324,10.4 365.716674,10.9833275 364.35,12.15 C362.983327,13.3166725 362.3,15.133321 362.3,17.6 L362.3,55.2 Z M394.9,0.8 L404.7,0.8 L420.1,43.7 L420.3,43.7 L420.3,0.8 L430.5,0.8 L430.5,72 L420.9,72 L405.3,29.2 L405.1,29.2 L405.1,72 L394.9,72 L394.9,0.8 Z M2.8,95.8 L33.2,95.8 L33.2,105.4 L13,105.4 L13,126.3 L30.6,126.3 L30.6,135.9 L13,135.9 L13,156.8 L33.2,156.8 L33.2,167 L2.8,167 L2.8,95.8 Z M39.8,95.8 L50,95.8 L50,156.8 L70.2,156.8 L70.2,167 L39.8,167 L39.8,95.8 Z M76.8,95.8 L107.2,95.8 L107.2,105.4 L87,105.4 L87,126.3 L104.6,126.3 L104.6,135.9 L87,135.9 L87,156.8 L107.2,156.8 L107.2,167 L76.8,167 L76.8,95.8 Z M113.8,95.8 L123.6,95.8 L136.7,133.5 L136.9,133.5 L149.9,95.8 L159.8,95.8 L159.8,167 L149.6,167 L149.6,123.7 L149.4,123.7 L139.3,154.3 L134.2,154.3 L124.2,123.7 L124,123.7 L124,167 L113.8,167 L113.8,95.8 Z M169.4,95.8 L199.8,95.8 L199.8,105.4 L179.6,105.4 L179.6,126.3 L197.2,126.3 L197.2,135.9 L179.6,135.9 L179.6,156.8 L199.8,156.8 L199.8,167 L169.4,167 L169.4,95.8 Z M206,95.8 L215.8,95.8 L231.2,138.7 L231.4,138.7 L231.4,95.8 L241.6,95.8 L241.6,167 L232,167 L216.4,124.2 L216.2,124.2 L216.2,167 L206,167 L206,95.8 Z M257.5,105.4 L245.7,105.4 L245.7,95.8 L279.5,95.8 L279.5,105.4 L267.7,105.4 L267.7,167 L257.5,167 L257.5,105.4 Z" id="SLOW-MOTION-ELEMENT"></path>
            <rect id="Rectangle-3" x="2" y="202" width="276" height="8"></rect>
            <path d="M26.628,242.552 L56.684,242.552 L56.684,260.708 L26.628,260.708 L26.628,242.552 Z M52.06,257.24 L52.06,253.228 L31.252,253.228 L31.252,257.24 L52.06,257.24 Z M31.252,249.964 L52.06,249.964 L52.06,246.02 L31.252,246.02 L31.252,249.964 Z M10.988,240.648 L15.408,240.648 L15.408,302.8 L10.988,302.8 L10.988,240.648 Z M3.644,253.568 L7.384,253.84 C7.248,260.572 6.364,266.964 4.868,273.084 L0.992,271.996 C2.556,266.148 3.44,260.028 3.644,253.568 Z M19.896,251.256 C21.12,254.588 22.276,258.464 23.296,262.816 L19.692,263.768 C18.876,259.824 17.788,256.016 16.564,252.412 L19.896,251.256 Z M22.888,264.38 L60.56,264.38 L60.56,277.64 L22.888,277.64 L22.888,264.38 Z M56.344,274.308 L56.344,267.712 L49,267.712 L49,274.308 L56.344,274.308 Z M45.192,274.308 L45.192,267.712 L38.12,267.712 L38.12,274.308 L45.192,274.308 Z M34.244,274.308 L34.244,267.712 L26.9,267.712 L26.9,274.308 L34.244,274.308 Z M23.16,281.788 L58.52,281.788 L58.52,285.188 C55.324,288.996 51.448,292.192 46.96,294.844 C51.72,296.68 57.228,298.108 63.416,299.196 L60.764,303.072 C53.624,301.644 47.504,299.672 42.404,297.224 C36.692,299.808 30.028,301.78 22.48,303.004 L20.44,298.924 C26.832,298.04 32.612,296.612 37.644,294.708 C33.292,292.124 29.756,289.064 26.968,285.664 L23.16,285.664 L23.16,281.788 Z M31.728,285.664 C34.516,288.384 37.984,290.696 42.132,292.736 C46.076,290.764 49.476,288.384 52.468,285.664 L31.728,285.664 Z M83.972,275.736 C83.972,274.557327 84.4026624,273.537338 85.264,272.676 C86.1253376,271.814662 87.1453274,271.384 88.324,271.384 C89.5026726,271.384 90.5226624,271.814662 91.384,272.676 C92.2453376,273.537338 92.676,274.557327 92.676,275.736 C92.676,276.914673 92.2453376,277.934662 91.384,278.796 C90.5226624,279.657338 89.5026726,280.088 88.324,280.088 C87.1453274,280.088 86.1253376,279.657338 85.264,278.796 C84.4026624,277.934662 83.972,276.914673 83.972,275.736 Z M104.848,244.252 L151.836,244.252 L151.836,249.012 L104.848,249.012 L104.848,244.252 Z M99.612,264.244 L157.752,264.244 L157.752,269.004 L138.984,269.004 L138.984,294.368 C138.984,296.272 139.936,297.292 141.976,297.292 L149.524,297.292 C151.02,297.292 152.04,296.748 152.584,295.728 C153.4,294.504 153.876,290.832 154.148,284.712 L158.636,286.14 C158.16,293.552 157.276,298.04 155.916,299.604 C154.76,300.964 152.924,301.712 150.476,301.712 L140.616,301.712 C136.332,301.712 134.224,299.604 134.224,295.388 L134.224,269.004 L121.984,269.004 L121.984,270.024 C121.78,278.864 119.944,286.004 116.544,291.376 C113.144,296.34 107.704,300.216 100.156,303.004 L97.504,298.856 C104.848,296.136 109.948,292.6 112.872,288.112 C115.592,283.488 117.088,277.436 117.224,270.024 L117.224,269.004 L99.612,269.004 L99.612,264.244 Z M170.332,245.068 L194.336,245.068 L194.336,240.308 L199.232,240.308 L199.232,245.068 L222.964,245.068 L222.964,249.08 L199.232,249.08 L199.232,253.704 L220.108,253.704 L220.108,257.58 L199.232,257.58 L199.232,262.204 L225.956,262.204 L225.956,266.352 L195.152,266.352 C191.14,269.48 187.128,271.996 183.048,273.9 C189.1,273.696 195.152,273.492 201.136,273.22 C203.992,271.656 206.848,270.024 209.636,268.324 L213.444,270.772 C203.584,276.484 193.656,280.836 183.728,283.964 C191.888,283.692 201.816,283.08 213.512,282.128 C211.948,280.496 210.316,278.864 208.548,277.232 L211.88,275.124 C217.116,279.952 221.128,284.168 223.848,287.772 L220.38,290.152 C219.156,288.52 217.864,286.956 216.504,285.392 C210.044,285.868 204.332,286.276 199.436,286.548 L199.436,297.428 C199.436,301.032 197.6,302.868 194.064,302.868 L187.604,302.868 L186.652,298.516 C188.692,298.652 190.596,298.788 192.5,298.788 C193.928,298.788 194.676,297.972 194.676,296.34 L194.676,286.82 C187.672,287.16 182.232,287.364 178.424,287.364 L172.712,287.568 L171.76,283.488 L174.412,283.76 C181.212,281.992 187.944,279.544 194.608,276.484 C188.896,276.688 182.844,276.892 176.452,277.164 L175.568,273.56 C176.52,273.424 177.472,273.22 178.356,272.812 C181.484,271.724 185.224,269.548 189.44,266.352 L167.408,266.352 L167.408,262.204 L194.336,262.204 L194.336,257.58 L173.188,257.58 L173.188,253.704 L194.336,253.704 L194.336,249.08 L170.332,249.08 L170.332,245.068 Z M185.632,289.2 L188.42,292.328 C183.116,296.136 176.52,299.264 168.632,301.78 L166.66,297.7 C174.344,295.524 180.668,292.736 185.632,289.2 Z M207.052,288.996 C214.124,291.58 220.652,294.64 226.568,298.244 L224.12,301.984 C217.796,297.972 211.336,294.776 204.672,292.464 L207.052,288.996 Z" id="慢-·元素"></path>
            <path d="M12.34,351.06 L17.42,351.06 L17.42,348.68 L18.78,348.68 L18.78,351.06 L21.8,351.06 C21.42,350.5 20.92,349.88 20.28,349.2 L21.26,348.6 C21.96,349.3 22.5,349.92 22.86,350.46 L22.02,351.06 L24.12,351.06 L24.12,352.38 L18.78,352.38 L18.78,354.32 L23.32,354.32 L23.32,365.2 C23.32,366.32 22.78,366.88 21.72,366.88 L20.16,366.88 L19.78,365.56 L21.3,365.62 C21.74,365.62 21.98,365.38 21.98,364.9 L21.98,362.62 L18.78,362.62 L18.78,366.86 L17.42,366.86 L17.42,362.62 L14.32,362.62 L14.32,366.96 L12.98,366.96 L12.98,354.32 L17.42,354.32 L17.42,352.38 L12.34,352.38 L12.34,351.06 Z M17.42,355.62 L14.32,355.62 L14.32,357.84 L17.42,357.84 L17.42,355.62 Z M14.32,359.12 L14.32,361.34 L17.42,361.34 L17.42,359.12 L14.32,359.12 Z M21.98,361.34 L21.98,359.12 L18.78,359.12 L18.78,361.34 L21.98,361.34 Z M21.98,357.84 L21.98,355.62 L18.78,355.62 L18.78,357.84 L21.98,357.84 Z M8.3,366.82 L6.5,366.82 L6.2,365.42 C6.76,365.46 7.28,365.5 7.8,365.5 C8.3,365.5 8.56,365.24 8.56,364.74 L8.56,359.88 C7.76,360.16 6.98,360.44 6.18,360.68 L5.82,359.24 C6.74,359.02 7.66,358.76 8.56,358.46 L8.56,353.88 L6.12,353.88 L6.12,352.5 L8.56,352.5 L8.56,348.72 L10,348.72 L10,352.5 L12.02,352.5 L12.02,353.88 L10,353.88 L10,357.9 C10.7,357.6 11.4,357.26 12.1,356.9 L12.1,358.36 C11.42,358.7 10.72,359.02 10,359.32 L10,365.12 C10,366.24 9.42,366.82 8.3,366.82 Z M41.56,365.38 C42.68,365.38 43.58,365.36 44.22,365.32 L43.96,366.7 L42.1,366.7 C39.58,366.68 37.86,366.4 36.98,365.84 C35.86,365.22 35,364.18 34.36,362.72 C33.76,364.44 33,365.9 32.12,367.08 L31.2,365.94 C32.68,363.82 33.68,360.96 34.2,357.38 L35.58,357.62 C35.4,358.78 35.18,359.86 34.92,360.86 C35.18,361.78 35.56,362.58 36.04,363.26 C36.56,363.94 37.16,364.44 37.82,364.74 L37.82,355.8 L33.74,355.8 L33.74,349.5 L42.88,349.5 L42.88,355.8 L39.22,355.8 L39.22,359.1 L43.56,359.1 L43.56,360.42 L39.22,360.42 L39.22,365.16 C39.86,365.28 40.64,365.34 41.56,365.38 Z M28.5,366.78 L26.8,366.78 L26.5,365.42 C27.02,365.48 27.52,365.52 28.02,365.52 C28.54,365.52 28.8,365.24 28.8,364.7 L28.8,359.82 C28,360.14 27.18,360.44 26.38,360.7 L26.02,359.28 C26.98,359.04 27.9,358.76 28.8,358.42 L28.8,353.72 L26.36,353.72 L26.36,352.34 L28.8,352.34 L28.8,348.68 L30.18,348.68 L30.18,352.34 L32.26,352.34 L32.26,353.72 L30.18,353.72 L30.18,357.86 C30.94,357.5 31.66,357.12 32.38,356.72 L32.38,358.14 C31.66,358.54 30.92,358.9 30.18,359.24 L30.18,365.04 C30.18,366.2 29.62,366.78 28.5,366.78 Z M41.5,354.48 L41.5,350.82 L35.14,350.82 L35.14,354.48 L41.5,354.48 Z M48,349.78 L61.82,349.78 L61.82,351.18 L48,351.18 L48,349.78 Z M46.46,355.66 L63.56,355.66 L63.56,357.06 L58.04,357.06 L58.04,364.52 C58.04,365.08 58.32,365.38 58.92,365.38 L61.14,365.38 C61.58,365.38 61.88,365.22 62.04,364.92 C62.28,364.56 62.42,363.48 62.5,361.68 L63.82,362.1 C63.68,364.28 63.42,365.6 63.02,366.06 C62.68,366.46 62.14,366.68 61.42,366.68 L58.52,366.68 C57.26,366.68 56.64,366.06 56.64,364.82 L56.64,357.06 L53.04,357.06 L53.04,357.36 C52.98,359.96 52.44,362.06 51.44,363.64 C50.44,365.1 48.84,366.24 46.62,367.06 L45.84,365.84 C48,365.04 49.5,364 50.36,362.68 C51.16,361.32 51.6,359.54 51.64,357.36 L51.64,357.06 L46.46,357.06 L46.46,355.66 Z M67.26,350.02 L74.32,350.02 L74.32,348.62 L75.76,348.62 L75.76,350.02 L82.74,350.02 L82.74,351.2 L75.76,351.2 L75.76,352.56 L81.9,352.56 L81.9,353.7 L75.76,353.7 L75.76,355.06 L83.62,355.06 L83.62,356.28 L74.56,356.28 C73.38,357.2 72.2,357.94 71,358.5 C72.78,358.44 74.56,358.38 76.32,358.3 C77.16,357.84 78,357.36 78.82,356.86 L79.94,357.58 C77.04,359.26 74.12,360.54 71.2,361.46 C73.6,361.38 76.52,361.2 79.96,360.92 C79.5,360.44 79.02,359.96 78.5,359.48 L79.48,358.86 C81.02,360.28 82.2,361.52 83,362.58 L81.98,363.28 C81.62,362.8 81.24,362.34 80.84,361.88 C78.94,362.02 77.26,362.14 75.82,362.22 L75.82,365.42 C75.82,366.48 75.28,367.02 74.24,367.02 L72.34,367.02 L72.06,365.74 C72.66,365.78 73.22,365.82 73.78,365.82 C74.2,365.82 74.42,365.58 74.42,365.1 L74.42,362.3 C72.36,362.4 70.76,362.46 69.64,362.46 L67.96,362.52 L67.68,361.32 L68.46,361.4 C70.46,360.88 72.44,360.16 74.4,359.26 C72.72,359.32 70.94,359.38 69.06,359.46 L68.8,358.4 C69.08,358.36 69.36,358.3 69.62,358.18 C70.54,357.86 71.64,357.22 72.88,356.28 L66.4,356.28 L66.4,355.06 L74.32,355.06 L74.32,353.7 L68.1,353.7 L68.1,352.56 L74.32,352.56 L74.32,351.2 L67.26,351.2 L67.26,350.02 Z M71.76,363 L72.58,363.92 C71.02,365.04 69.08,365.96 66.76,366.7 L66.18,365.5 C68.44,364.86 70.3,364.04 71.76,363 Z M78.06,362.94 C80.14,363.7 82.06,364.6 83.8,365.66 L83.08,366.76 C81.22,365.58 79.32,364.64 77.36,363.96 L78.06,362.94 Z M93.08,352.12 L93.08,365.76 L91.68,365.76 L91.68,364.62 L88.04,364.62 L88.04,366.34 L86.64,366.34 L86.64,352.12 L88.5,352.12 C88.9,351 89.18,349.84 89.36,348.64 L90.8,348.84 C90.56,350.02 90.26,351.12 89.86,352.12 L93.08,352.12 Z M88.04,363.28 L91.68,363.28 L91.68,358.9 L88.04,358.9 L88.04,363.28 Z M88.04,357.6 L91.68,357.6 L91.68,353.48 L88.04,353.48 L88.04,357.6 Z M96.56,356.76 C98,358.42 99.08,359.88 99.84,361.12 L98.7,361.92 C97.88,360.6 96.78,359.12 95.4,357.48 L96.56,356.76 Z M103.42,352.14 C103.42,358.78 103.32,362.9 103.12,364.46 C102.92,365.98 102,366.76 100.32,366.76 C99.92,366.76 99.24,366.72 98.28,366.68 L97.94,365.36 C98.78,365.4 99.5,365.42 100.12,365.42 C101.06,365.42 101.6,364.9 101.76,363.88 C101.88,362.76 101.96,359.3 102,353.54 L96.5,353.54 C95.94,354.8 95.28,355.94 94.5,356.96 L93.64,355.82 C95.04,353.86 95.98,351.46 96.5,348.62 L97.92,348.8 C97.68,349.98 97.4,351.1 97.04,352.14 L103.42,352.14 Z M106.8,363.04 L106.36,361.82 C106.64,361.7 106.8,361.54 106.8,361.34 L106.8,350.38 L108.2,350.38 L108.2,361.3 C109.2,361.02 110.2,360.68 111.2,360.3 L111.2,348.76 L112.62,348.76 L112.62,366.88 L111.2,366.88 L111.2,361.7 C109.8,362.2 108.32,362.64 106.8,363.04 Z M116.7,353.12 C116.46,353.76 116.22,354.36 115.96,354.92 C116.68,356.88 117.6,358.68 118.76,360.32 C119.96,358.28 120.6,355.88 120.72,353.12 L116.7,353.12 Z M115.12,356.48 C114.74,357.08 114.34,357.62 113.92,358.12 L113.02,357.02 C114.66,354.94 115.78,352.12 116.36,348.6 L117.8,348.84 C117.6,349.86 117.38,350.82 117.14,351.7 L123.82,351.7 L123.82,353.12 L122.1,353.12 C121.96,356.4 121.16,359.22 119.68,361.54 C121,363.18 122.52,364.64 124.28,365.92 L123.3,367.08 C121.56,365.78 120.06,364.34 118.8,362.78 C117.48,364.44 115.78,365.82 113.7,366.94 L112.88,365.64 C114.98,364.6 116.66,363.26 117.9,361.62 C116.78,360.02 115.84,358.32 115.12,356.48 Z M143.74,350.26 L143.74,352.96 L142.38,352.96 L142.38,351.46 L133.78,351.46 L133.78,353.26 L132.42,353.26 L132.42,350.26 L137.42,350.26 C137.2,349.7 136.96,349.2 136.7,348.76 L138.22,348.52 C138.46,349.04 138.68,349.62 138.9,350.26 L143.74,350.26 Z M133.74,358 C133.28,358.68 132.78,359.32 132.24,359.92 L131.78,358.44 C133.18,356.72 134.22,354.76 134.86,352.56 L136.06,353.12 C135.78,354.04 135.44,354.92 135.04,355.76 L135.04,366.76 L133.74,366.76 L133.74,358 Z M136.62,353.5 L143.44,353.5 L143.44,354.78 L140.7,354.78 L140.28,356.64 L143.2,356.64 L143.2,366.78 L141.92,366.78 L141.92,365.86 L138.12,365.86 L138.12,366.78 L136.84,366.78 L136.84,356.64 L139.02,356.64 L139.4,354.78 L136.62,354.78 L136.62,353.5 Z M138.12,364.64 L141.92,364.64 L141.92,361.76 L138.12,361.76 L138.12,364.64 Z M138.12,360.56 L141.92,360.56 L141.92,357.88 L138.12,357.88 L138.12,360.56 Z M132.26,363.08 L132.26,364.46 C130.52,365.22 128.54,365.82 126.34,366.28 L126.16,364.84 C128.48,364.4 130.52,363.82 132.26,363.08 Z M129.06,348.6 L130.44,349.14 C129.5,351.74 128.56,353.82 127.6,355.38 C128.4,355.26 129.22,355.12 130.06,354.94 C130.36,354.3 130.68,353.6 131.02,352.86 L132.3,353.34 C130.68,356.7 129.34,359.1 128.28,360.54 C129.4,360.26 130.54,359.86 131.68,359.36 L131.68,360.7 C129.9,361.42 128.2,361.92 126.56,362.16 L126.18,360.84 C126.44,360.72 126.66,360.58 126.84,360.42 C127.54,359.62 128.4,358.24 129.4,356.28 C128.36,356.48 127.32,356.66 126.28,356.82 L125.92,355.5 C126.16,355.38 126.36,355.2 126.54,354.92 C127.5,353.08 128.34,350.96 129.06,348.6 Z M149.52,348.58 L150.94,348.7 L150.66,351.38 L162.78,351.38 L162.78,352.76 L150.52,352.76 L150.18,356.02 L161.42,356.02 C161.42,361.46 161.04,364.6 160.28,365.46 C159.54,366.28 157.94,366.7 155.5,366.7 C154.86,366.7 154.2,366.66 153.52,366.62 L153.14,365.3 C154.12,365.38 154.8,365.44 155.2,365.44 C157.46,365.44 158.82,365.06 159.26,364.3 C159.72,363.48 159.96,361.16 159.96,357.36 L148.58,357.36 L149.52,348.58 Z M146,360.58 L157.3,360.58 L157.3,361.96 L146,361.96 L146,360.58 Z M176.18,352.18 L179.02,352.18 L179.02,348.74 L180.36,348.74 L180.36,352.18 L183.26,352.18 L183.26,360.18 L180.36,360.18 L180.36,364.64 C181.02,364.5 181.66,364.36 182.28,364.22 C182.04,363.38 181.8,362.58 181.52,361.8 L182.64,361.44 C183.2,362.92 183.7,364.6 184.14,366.52 L182.9,366.82 C182.8,366.34 182.7,365.86 182.6,365.42 C180.6,365.92 178.48,366.34 176.24,366.66 L175.9,365.32 C176.98,365.2 178.02,365.04 179.02,364.88 L179.02,360.18 L176.18,360.18 L176.18,352.18 Z M182.02,358.9 L182.02,353.46 L180.3,353.46 L180.3,358.9 L182.02,358.9 Z M179.1,358.9 L179.1,353.46 L177.42,353.46 L177.42,358.9 L179.1,358.9 Z M166.12,349.46 L175.62,349.46 L175.62,350.76 L166.12,350.76 L166.12,349.46 Z M167.26,352.04 L174.44,352.04 L174.44,356.34 L167.26,356.34 L167.26,352.04 Z M173.16,355.2 L173.16,353.16 L168.54,353.16 L168.54,355.2 L173.16,355.2 Z M168.4,362.04 L171.02,362.04 C171.4,361.2 171.72,360.3 172,359.36 L173,359.7 C172.72,360.58 172.4,361.36 172.08,362.04 L173.3,362.04 L173.3,363.16 L171.38,363.16 L171.38,366.76 L170.22,366.76 L170.22,363.16 L168.4,363.16 L168.4,362.04 Z M169.6,359.52 C169.92,360.14 170.2,360.86 170.44,361.7 L169.52,361.94 C169.28,361.2 169,360.5 168.66,359.82 L169.6,359.52 Z M173.84,366.86 L172.36,366.86 L172,365.58 L173.4,365.64 C173.78,365.64 173.98,365.48 173.98,365.16 L173.98,358.74 L167.72,358.74 L167.72,367 L166.46,367 L166.46,357.54 L175.24,357.54 L175.24,365.44 C175.24,366.38 174.76,366.86 173.84,366.86 Z M194.48,348.64 L195.52,348.64 C198.06,351.58 201,353.9 204.32,355.58 L203.54,356.96 C200.2,355.16 197.36,352.82 195,349.94 C192.82,352.66 189.94,355 186.38,357 L185.62,355.62 C189.18,353.74 192.12,351.42 194.48,348.64 Z M201.32,358.92 L201.32,366.98 L199.92,366.98 L199.92,365.78 L190.08,365.78 L190.08,366.98 L188.68,366.98 L188.68,358.92 L201.32,358.92 Z M190.08,364.4 L199.92,364.4 L199.92,360.28 L190.08,360.28 L190.08,364.4 Z M189.8,355 L200.2,355 L200.2,356.38 L189.8,356.38 L189.8,355 Z M208.72,362.62 C209.16,362.62 209.54,362.8 209.82,363.18 C210.08,363.54 210.22,364 210.22,364.58 C210.22,365.46 209.96,366.24 209.44,366.92 C208.92,367.56 208.22,368 207.38,368.22 L207.38,367.24 C207.9,367.06 208.32,366.76 208.64,366.36 C208.94,365.94 209.08,365.5 209.08,365.02 C209,365.06 208.84,365.1 208.64,365.1 C208.3,365.1 208.02,364.98 207.78,364.74 C207.54,364.5 207.42,364.2 207.42,363.86 C207.42,363.48 207.54,363.18 207.78,362.96 C208.02,362.72 208.32,362.62 208.72,362.62 Z M10.98,384.4 L8.36,384.4 L8.36,386.8 C8.28,390.14 7.78,392.8 6.82,394.8 L5.84,393.76 C6.56,392.08 6.96,389.76 7.04,386.8 L7.04,378.28 C9.32,378.22 11.36,377.72 13.2,376.78 L13.92,378.08 C12.24,378.88 10.4,379.34 8.36,379.48 L8.36,383.02 L14.22,383.02 L14.22,384.4 L12.42,384.4 L12.42,394.96 L10.98,394.96 L10.98,384.4 Z M16.64,376.54 L18.06,376.76 C17.94,377.84 17.78,378.84 17.6,379.76 L23.64,379.76 L23.64,380.68 C23.3,382.4 22.84,384.1 22.28,385.78 L20.9,385.38 C21.42,384.14 21.86,382.72 22.22,381.14 L17.28,381.14 C16.72,383.26 16,384.98 15.08,386.26 L13.96,385.46 C15.36,383.32 16.24,380.34 16.64,376.54 Z M18.24,382.64 L19.62,382.64 C19.62,383.9 19.56,385.06 19.44,386.14 C20.36,389.38 21.96,391.96 24.22,393.88 L23.28,394.98 C21.42,393.24 20,391.1 19.04,388.58 L18.88,389.24 C18.24,391.6 16.78,393.54 14.5,395.06 L13.6,393.94 C15.56,392.62 16.84,390.98 17.48,389 C17.98,387.34 18.24,385.22 18.24,382.64 Z M29.94,381.64 L40.06,381.64 L40.06,385.3 L29.94,385.3 L29.94,381.64 Z M38.66,384.24 L38.66,382.7 L31.34,382.7 L31.34,384.24 L38.66,384.24 Z M34.24,376.64 L35.76,376.64 L35.76,379.04 L38.1,379.04 C38.56,378.32 38.96,377.58 39.3,376.8 L40.7,377.28 C40.38,377.94 40.02,378.52 39.66,379.04 L43.32,379.04 L43.32,383.02 L41.88,383.02 L41.88,380.3 L28.08,380.3 L28.08,383.1 L26.66,383.1 L26.66,379.04 L30.38,379.04 C30.06,378.42 29.68,377.84 29.26,377.32 L30.62,376.82 C31.1,377.44 31.52,378.18 31.88,379.04 L34.24,379.04 L34.24,376.64 Z M41.22,386.48 L41.22,391.8 L39.8,391.8 L39.8,387.76 L30.22,387.76 L30.22,392.04 L28.8,392.04 L28.8,386.48 L41.22,386.48 Z M36.16,391.68 C38.8,392.28 41.22,393.04 43.38,393.94 L42.56,395.18 C40.24,394.14 37.88,393.34 35.44,392.76 L36.16,391.68 Z M34.44,388.54 L35.88,388.66 C35.6,390.9 35,392.42 34.06,393.2 C33.02,394.16 30.7,394.78 27.08,395.04 L26.5,393.74 C29.7,393.6 31.82,393.14 32.84,392.34 C33.74,391.58 34.28,390.32 34.44,388.54 Z M46.5,377.7 L63.5,377.7 L63.5,379.12 L56.98,379.12 C56.62,379.94 56.2,380.74 55.74,381.5 L55.74,395.04 L54.26,395.04 L54.26,383.62 C52.38,385.96 49.92,388.04 46.88,389.86 L45.94,388.6 C50.46,386 53.62,382.84 55.38,379.12 L46.5,379.12 L46.5,377.7 Z M58.26,383.08 C60.56,384.9 62.48,386.72 64.04,388.54 L62.94,389.66 C61.54,387.9 59.64,386.04 57.22,384.06 L58.26,383.08 Z M66.42,379.56 L69.28,379.56 L69.28,376.82 L70.72,376.82 L70.72,379.56 L73.38,379.56 L73.38,380.94 L70.72,380.94 L70.72,384.24 L73.66,384.24 L73.66,385.64 L70.64,385.64 C70.6,386.16 70.54,386.66 70.48,387.14 C71.6,388.2 72.76,389.42 73.92,390.78 L73.12,392.02 C72,390.5 71.04,389.32 70.26,388.46 C69.68,391.28 68.58,393.48 66.94,395.06 L65.88,394.12 C67.82,392.24 68.92,389.42 69.2,385.64 L66.14,385.64 L66.14,384.24 L69.28,384.24 L69.28,380.94 L66.42,380.94 L66.42,379.56 Z M82.66,377.5 L82.66,388.48 L81.28,388.48 L81.28,378.84 L75.94,378.84 L75.94,388.48 L74.56,388.48 L74.56,377.5 L82.66,377.5 Z M82.12,394.74 L80.46,394.74 C79.42,394.74 78.92,394.18 78.92,393.08 L78.92,388.58 L80.22,388.58 L80.22,392.78 C80.22,393.22 80.42,393.44 80.86,393.44 L81.88,393.44 C82.22,393.44 82.46,393.34 82.6,393.14 C82.78,392.88 82.9,392.12 82.98,390.88 L84.22,391.28 C84.1,392.92 83.86,393.92 83.54,394.28 C83.22,394.58 82.76,394.74 82.12,394.74 Z M77.96,380.5 L79.26,380.5 L79.26,384.04 C79.22,387.02 78.68,389.4 77.66,391.18 C76.66,392.82 75.02,394.12 72.78,395.06 L72.02,393.84 C74.22,392.94 75.76,391.72 76.64,390.2 C77.46,388.62 77.9,386.56 77.96,384.04 L77.96,380.5 Z M95.5,377.48 L95.5,389.8 L94.1,389.8 L94.1,378.88 L88.38,378.88 L88.38,389.98 L86.98,389.98 L86.98,377.48 L95.5,377.48 Z M92.82,390.34 C94.22,391.5 95.38,392.68 96.34,393.84 L95.26,394.9 C94.42,393.78 93.26,392.6 91.82,391.32 L92.82,390.34 Z M90.54,380.18 L91.94,380.18 L91.94,386.48 C91.88,388.82 91.42,390.68 90.58,392.08 C89.74,393.38 88.4,394.4 86.52,395.12 L85.7,393.84 C87.5,393.16 88.76,392.24 89.48,391.1 C90.14,389.92 90.5,388.38 90.54,386.48 L90.54,380.18 Z M97.78,378.4 L99.18,378.4 L99.18,390.88 L97.78,390.88 L97.78,378.4 Z M101.36,394.8 L98.66,394.8 L98.34,393.4 C99.22,393.44 100.06,393.48 100.86,393.48 C101.52,393.48 101.86,393.14 101.86,392.48 L101.86,376.72 L103.3,376.72 L103.3,392.84 C103.3,394.14 102.64,394.8 101.36,394.8 Z M113.08,380.12 L113.08,393.76 L111.68,393.76 L111.68,392.62 L108.04,392.62 L108.04,394.34 L106.64,394.34 L106.64,380.12 L108.5,380.12 C108.9,379 109.18,377.84 109.36,376.64 L110.8,376.84 C110.56,378.02 110.26,379.12 109.86,380.12 L113.08,380.12 Z M108.04,391.28 L111.68,391.28 L111.68,386.9 L108.04,386.9 L108.04,391.28 Z M108.04,385.6 L111.68,385.6 L111.68,381.48 L108.04,381.48 L108.04,385.6 Z M116.56,384.76 C118,386.42 119.08,387.88 119.84,389.12 L118.7,389.92 C117.88,388.6 116.78,387.12 115.4,385.48 L116.56,384.76 Z M123.42,380.14 C123.42,386.78 123.32,390.9 123.12,392.46 C122.92,393.98 122,394.76 120.32,394.76 C119.92,394.76 119.24,394.72 118.28,394.68 L117.94,393.36 C118.78,393.4 119.5,393.42 120.12,393.42 C121.06,393.42 121.6,392.9 121.76,391.88 C121.88,390.76 121.96,387.3 122,381.54 L116.5,381.54 C115.94,382.8 115.28,383.94 114.5,384.96 L113.64,383.82 C115.04,381.86 115.98,379.46 116.5,376.62 L117.92,376.8 C117.68,377.98 117.4,379.1 117.04,380.14 L123.42,380.14 Z M136.48,381.8 L133.62,381.8 L133.62,380.46 L139.82,380.46 C140.46,379.22 141.02,377.9 141.5,376.5 L142.82,376.96 C142.34,378.28 141.82,379.44 141.22,380.46 L143.6,380.46 L143.6,381.8 L140.76,381.8 L140.76,392.74 L144.14,392.74 L144.14,394.14 L133.46,394.14 L133.46,392.74 L136.48,392.74 L136.48,381.8 Z M139.44,381.8 L137.78,381.8 L137.78,392.74 L139.44,392.74 L139.44,381.8 Z M142.84,383.26 L143.98,383.58 C143.58,386.18 143.1,388.48 142.52,390.44 L141.4,390.02 C141.96,388.26 142.44,386 142.84,383.26 Z M134.62,383.66 C135.06,385.62 135.42,387.84 135.72,390.32 L134.6,390.46 C134.26,387.94 133.88,385.72 133.44,383.8 L134.62,383.66 Z M135.82,376.58 C136.42,377.56 137,378.62 137.54,379.78 L136.34,380.38 C135.8,379.18 135.22,378.12 134.62,377.16 L135.82,376.58 Z M132.52,383.7 L132.52,394.08 L131.24,394.08 L131.24,393.12 L129.2,393.12 L129.2,394.44 L127.88,394.44 L127.88,386.02 C127.44,386.86 126.98,387.64 126.46,388.38 L125.66,387.1 C127.18,384.78 128.18,382.14 128.66,379.16 L126.26,379.16 L126.26,377.8 L132.88,377.8 L132.88,379.16 L130.04,379.16 C129.78,380.78 129.4,382.3 128.88,383.7 L132.52,383.7 Z M129.2,391.8 L131.24,391.8 L131.24,384.98 L129.2,384.98 L129.2,391.8 Z M151.98,384.78 L151.98,386.2 C151.34,386.56 150.7,386.88 150.06,387.18 L150.06,393.06 C150.06,394.26 149.48,394.88 148.34,394.88 L146.72,394.88 L146.4,393.5 C146.9,393.56 147.38,393.6 147.84,393.6 C148.36,393.6 148.62,393.3 148.62,392.7 L148.62,387.82 C147.84,388.14 147.06,388.44 146.28,388.68 L145.96,387.32 C146.86,387.08 147.74,386.78 148.62,386.42 L148.62,381.72 L146.1,381.72 L146.1,380.34 L148.62,380.34 L148.62,376.76 L150.06,376.76 L150.06,380.34 L151.64,380.34 L151.64,381.72 L150.06,381.72 L150.06,385.8 C150.7,385.48 151.34,385.14 151.98,384.78 Z M152.82,378.18 L157.08,378.18 C156.82,377.66 156.54,377.16 156.24,376.72 L157.74,376.48 C158.02,376.98 158.28,377.54 158.52,378.18 L163.08,378.18 L163.08,379.36 L161.26,379.36 L160.66,381.42 L163.68,381.42 L163.68,382.6 L152.26,382.6 L152.26,381.42 L155.12,381.42 L154.54,379.36 L152.82,379.36 L152.82,378.18 Z M156.44,381.42 L159.34,381.42 L159.94,379.36 L155.86,379.36 L156.44,381.42 Z M153.28,383.72 L162.66,383.72 L162.66,389.5 L158.62,389.5 L158.62,390.76 L163.22,390.76 L163.22,391.88 L158.62,391.88 L158.62,393.22 L163.92,393.22 L163.92,394.46 L152,394.46 L152,393.22 L157.32,393.22 L157.32,391.88 L152.74,391.88 L152.74,390.76 L157.32,390.76 L157.32,389.5 L153.28,389.5 L153.28,383.72 Z M161.38,388.44 L161.38,387.14 L158.62,387.14 L158.62,388.44 L161.38,388.44 Z M157.32,388.44 L157.32,387.14 L154.56,387.14 L154.56,388.44 L157.32,388.44 Z M154.56,386.12 L157.32,386.12 L157.32,384.78 L154.56,384.78 L154.56,386.12 Z M158.62,384.78 L158.62,386.12 L161.38,386.12 L161.38,384.78 L158.62,384.78 Z M169.52,376.58 L170.94,376.7 L170.66,379.38 L182.78,379.38 L182.78,380.76 L170.52,380.76 L170.18,384.02 L181.42,384.02 C181.42,389.46 181.04,392.6 180.28,393.46 C179.54,394.28 177.94,394.7 175.5,394.7 C174.86,394.7 174.2,394.66 173.52,394.62 L173.14,393.3 C174.12,393.38 174.8,393.44 175.2,393.44 C177.46,393.44 178.82,393.06 179.26,392.3 C179.72,391.48 179.96,389.16 179.96,385.36 L168.58,385.36 L169.52,376.58 Z M166,388.58 L177.3,388.58 L177.3,389.96 L166,389.96 L166,388.58 Z M192.32,390.74 L192.32,392.16 C190.48,393 188.38,393.68 186.02,394.2 L185.84,392.76 C188.32,392.26 190.48,391.58 192.32,390.74 Z M189.16,376.7 L190.5,377.22 C189.58,379.78 188.66,381.84 187.7,383.36 C188.48,383.26 189.26,383.12 190.04,382.96 C190.38,382.24 190.74,381.46 191.12,380.64 L192.44,381.14 C190.76,384.5 189.38,386.92 188.28,388.38 C189.6,388.12 190.94,387.76 192.28,387.32 L192.28,388.62 C190.32,389.28 188.44,389.74 186.62,389.98 L186.24,388.7 C186.5,388.58 186.72,388.44 186.88,388.28 C187.56,387.48 188.4,386.14 189.4,384.24 C188.4,384.44 187.38,384.62 186.38,384.8 L186.04,383.54 C186.24,383.46 186.44,383.28 186.62,383.04 C187.6,381.2 188.44,379.08 189.16,376.7 Z M203.36,378.92 L203.36,382.88 L202.52,382.88 L202.52,384.06 L199.08,384.06 L199.08,387.38 L202.48,387.38 L202.48,388.7 L199.08,388.7 L199.08,393.06 C199.82,393.24 200.74,393.34 201.86,393.34 C202.66,393.34 203.4,393.3 204.08,393.24 L203.8,394.72 C200.84,394.72 198.88,394.5 197.88,394.06 C196.68,393.6 195.64,392.6 194.76,391.04 C194.28,392.56 193.7,393.82 193.02,394.82 L191.88,394.02 C193.2,392.02 194.06,389.24 194.44,385.68 L195.78,385.9 C195.62,387.2 195.42,388.4 195.18,389.48 C195.9,390.9 196.76,391.9 197.72,392.48 L197.72,384.06 L193.92,384.06 L193.92,382.9 L192.98,382.9 L192.98,378.92 L197.66,378.92 C197.42,378.16 197.14,377.48 196.84,376.88 L198.32,376.62 C198.58,377.3 198.84,378.08 199.1,378.92 L203.36,378.92 Z M194.32,382.74 L202,382.74 L202,380.22 L194.32,380.22 L194.32,382.74 Z M215.82,384.18 C215.46,384.74 215.08,385.26 214.68,385.74 L213.8,384.68 C215.36,382.68 216.42,379.98 216.98,376.6 L218.4,376.84 C218.22,377.86 218,378.82 217.74,379.7 L223.64,379.7 L223.64,381.08 L222.16,381.08 C222.04,384.44 221.26,387.32 219.82,389.7 C221.08,391.5 222.58,392.88 224.3,393.84 L223.48,395.06 C221.74,394.06 220.24,392.68 219,390.92 C217.8,392.52 216.28,393.86 214.4,394.94 L213.58,393.64 C215.5,392.6 217.02,391.28 218.18,389.66 C217.24,388.06 216.46,386.24 215.82,384.18 Z M217.3,381.08 C217.1,381.64 216.88,382.16 216.64,382.66 C217.24,384.86 218.02,386.76 218.96,388.38 C220.08,386.32 220.68,383.88 220.78,381.08 L217.3,381.08 Z M206.1,379.68 L209.92,379.68 C209.56,378.72 209.12,377.8 208.64,376.9 L210.04,376.5 C210.6,377.66 211.06,378.72 211.38,379.68 L214.38,379.68 L214.38,381.06 L209.52,381.06 L209.52,382.9 C209.52,383.3 209.5,383.68 209.5,384.04 L213.32,384.04 C213.32,388.9 213.22,391.88 213.04,393 C212.84,394.14 212.04,394.72 210.62,394.72 C210.36,394.72 209.9,394.68 209.24,394.64 L208.92,393.4 C209.48,393.44 209.98,393.46 210.42,393.46 C211.14,393.46 211.58,393.12 211.72,392.46 C211.86,391.7 211.94,389.32 211.96,385.36 L209.44,385.36 C209.16,389.64 208.28,392.84 206.8,394.96 L205.68,393.98 C207.32,391.68 208.14,387.98 208.18,382.9 L208.18,381.06 L206.1,381.06 L206.1,379.68 Z M230,390.16 C230.72,390.16 231.32,390.4 231.84,390.88 C232.34,391.36 232.6,391.96 232.6,392.68 C232.6,393.38 232.34,393.98 231.84,394.46 C231.32,394.94 230.72,395.18 230,395.18 C229.28,395.18 228.66,394.94 228.16,394.48 C227.64,394 227.4,393.4 227.4,392.68 C227.4,391.96 227.64,391.36 228.16,390.88 C228.66,390.4 229.28,390.16 230,390.16 Z M230,391.2 C229.58,391.2 229.22,391.34 228.94,391.64 C228.62,391.92 228.48,392.26 228.48,392.68 C228.48,393.08 228.62,393.42 228.94,393.7 C229.22,393.98 229.58,394.14 230,394.14 C230.4,394.14 230.76,393.98 231.06,393.7 C231.36,393.42 231.52,393.08 231.52,392.68 C231.52,392.26 231.36,391.92 231.06,391.64 C230.76,391.34 230.4,391.2 230,391.2 Z" id="捕捉元素的收缩与融合，-欣赏不规则的碰撞"></path>
        </g>
    </g>
</svg>