<?xml version="1.0" encoding="UTF-8"?>
<svg width="435px" height="396px" viewBox="0 0 435 396" version="1.1" xmlns="http://www.w3.org/2000/svg" xmlns:xlink="http://www.w3.org/1999/xlink">
    <!-- Generator: Sketch 50.2 (55047) - http://www.bohemiancoding.com/sketch -->
    <title>运动</title>
    <desc>Created with Sketch.</desc>
    <defs></defs>
    <g id="Page-1" stroke="none" stroke-width="1" fill="none" fill-rule="evenodd">
        <g id="Group-9-Copy-2" fill="#FFFFFF">
            <path d="M35.9,21.3 L25.7,21.3 L25.7,19 C25.7,16.666655 25.1500055,14.6500085 24.05,12.95 C22.9499945,11.2499915 21.100013,10.4 18.5,10.4 C17.099993,10.4 15.9500045,10.666664 15.05,11.2 C14.1499955,11.733336 13.4500025,12.4166625 12.95,13.25 C12.4499975,14.0833375 12.100001,15.0499945 11.9,16.15 C11.699999,17.2500055 11.6,18.399994 11.6,19.6 C11.6,21.000007 11.6499995,22.1833285 11.75,23.15 C11.8500005,24.1166715 12.099998,24.9499965 12.5,25.65 C12.900002,26.3500035 13.4833295,26.966664 14.25,27.5 C15.0166705,28.033336 16.06666,28.566664 17.4,29.1 L25.2,32.2 C27.466678,33.066671 29.299993,34.0833275 30.7,35.25 C32.100007,36.4166725 33.1833295,37.7833255 33.95,39.35 C34.7166705,40.9166745 35.233332,42.7166565 35.5,44.75 C35.766668,46.7833435 35.9,49.099987 35.9,51.7 C35.9,54.700015 35.600003,57.4833205 35,60.05 C34.399997,62.6166795 33.4166735,64.8166575 32.05,66.65 C30.6833265,68.4833425 28.866678,69.933328 26.6,71 C24.333322,72.066672 21.566683,72.6 18.3,72.6 C15.833321,72.6 13.533344,72.166671 11.4,71.3 C9.266656,70.433329 7.433341,69.2500075 5.9,67.75 C4.366659,66.2499925 3.1500045,64.466677 2.25,62.4 C1.3499955,60.333323 0.9,58.100012 0.9,55.7 L0.9,51.9 L11.1,51.9 L11.1,55.1 C11.1,56.966676 11.6499945,58.6499925 12.75,60.15 C13.8500055,61.6500075 15.699987,62.4 18.3,62.4 C20.033342,62.4 21.3833285,62.1500025 22.35,61.65 C23.3166715,61.1499975 24.0499975,60.4500045 24.55,59.55 C25.0500025,58.6499955 25.366666,57.53334 25.5,56.2 C25.633334,54.86666 25.7,53.400008 25.7,51.8 C25.7,49.933324 25.633334,48.400006 25.5,47.2 C25.366666,45.999994 25.0833355,45.033337 24.65,44.3 C24.2166645,43.566663 23.6166705,42.966669 22.85,42.5 C22.0833295,42.033331 21.066673,41.533336 19.8,41 L12.5,38 C8.099978,36.199991 5.1500075,33.8166815 3.65,30.85 C2.1499925,27.8833185 1.4,24.166689 1.4,19.7 C1.4,17.03332 1.766663,14.500012 2.5,12.1 C3.233337,9.699988 4.3166595,7.633342 5.75,5.9 C7.1833405,4.166658 8.999989,2.7833385 11.2,1.75 C13.400011,0.7166615 15.966652,0.2 18.9,0.2 C21.433346,0.2 23.7499895,0.666662 25.85,1.6 C27.9500105,2.533338 29.7499925,3.766659 31.25,5.3 C32.7500075,6.833341 33.899996,8.5499905 34.7,10.45 C35.500004,12.3500095 35.9,14.29999 35.9,16.3 L35.9,21.3 Z M43.5,0.8 L53.7,0.8 L53.7,61.8 L73.9,61.8 L73.9,72 L43.5,72 L43.5,0.8 Z M79.9,17.6 C79.9,14.733319 80.399995,12.200011 81.4,10 C82.400005,7.799989 83.7166585,5.9833405 85.35,4.55 C86.9833415,3.1166595 88.8166565,2.033337 90.85,1.3 C92.8833435,0.566663 94.933323,0.2 97,0.2 C99.066677,0.2 101.116657,0.566663 103.15,1.3 C105.183344,2.033337 107.016659,3.1166595 108.65,4.55 C110.283342,5.9833405 111.599995,7.799989 112.6,10 C113.600005,12.200011 114.1,14.733319 114.1,17.6 L114.1,55.2 C114.1,58.133348 113.600005,60.6833225 112.6,62.85 C111.599995,65.0166775 110.283342,66.8166595 108.65,68.25 C107.016659,69.6833405 105.183344,70.766663 103.15,71.5 C101.116657,72.233337 99.066677,72.6 97,72.6 C94.933323,72.6 92.8833435,72.233337 90.85,71.5 C88.8166565,70.766663 86.9833415,69.6833405 85.35,68.25 C83.7166585,66.8166595 82.400005,65.0166775 81.4,62.85 C80.399995,60.6833225 79.9,58.133348 79.9,55.2 L79.9,17.6 Z M90.1,55.2 C90.1,57.666679 90.7833265,59.4833275 92.15,60.65 C93.5166735,61.8166725 95.133324,62.4 97,62.4 C98.866676,62.4 100.483326,61.8166725 101.85,60.65 C103.216673,59.4833275 103.9,57.666679 103.9,55.2 L103.9,17.6 C103.9,15.133321 103.216673,13.3166725 101.85,12.15 C100.483326,10.9833275 98.866676,10.4 97,10.4 C95.133324,10.4 93.5166735,10.9833275 92.15,12.15 C90.7833265,13.3166725 90.1,15.133321 90.1,17.6 L90.1,55.2 Z M165.4,72 L155.8,72 L148,25.8 L147.8,25.8 L140.1,72 L130.5,72 L119.9,0.8 L130.7,0.8 L135.8,46 L136,46 L144,0.8 L151.8,0.8 L160.1,47.1 L160.3,47.1 L165.2,0.8 L176,0.8 L165.4,72 Z M201,0.8 L210.8,0.8 L223.9,38.5 L224.1,38.5 L237.1,0.8 L247,0.8 L247,72 L236.8,72 L236.8,28.7 L236.6,28.7 L226.5,59.3 L221.4,59.3 L211.4,28.7 L211.2,28.7 L211.2,72 L201,72 L201,0.8 Z M256,17.6 C256,14.733319 256.499995,12.200011 257.5,10 C258.500005,7.799989 259.816659,5.9833405 261.45,4.55 C263.083342,3.1166595 264.916657,2.033337 266.95,1.3 C268.983343,0.566663 271.033323,0.2 273.1,0.2 C275.166677,0.2 277.216656,0.566663 279.25,1.3 C281.283344,2.033337 283.116658,3.1166595 284.75,4.55 C286.383342,5.9833405 287.699995,7.799989 288.7,10 C289.700005,12.200011 290.2,14.733319 290.2,17.6 L290.2,55.2 C290.2,58.133348 289.700005,60.6833225 288.7,62.85 C287.699995,65.0166775 286.383342,66.8166595 284.75,68.25 C283.116658,69.6833405 281.283344,70.766663 279.25,71.5 C277.216656,72.233337 275.166677,72.6 273.1,72.6 C271.033323,72.6 268.983343,72.233337 266.95,71.5 C264.916657,70.766663 263.083342,69.6833405 261.45,68.25 C259.816659,66.8166595 258.500005,65.0166775 257.5,62.85 C256.499995,60.6833225 256,58.133348 256,55.2 L256,17.6 Z M266.2,55.2 C266.2,57.666679 266.883327,59.4833275 268.25,60.65 C269.616674,61.8166725 271.233324,62.4 273.1,62.4 C274.966676,62.4 276.583326,61.8166725 277.95,60.65 C279.316673,59.4833275 280,57.666679 280,55.2 L280,17.6 C280,15.133321 279.316673,13.3166725 277.95,12.15 C276.583326,10.9833275 274.966676,10.4 273.1,10.4 C271.233324,10.4 269.616674,10.9833275 268.25,12.15 C266.883327,13.3166725 266.2,15.133321 266.2,17.6 L266.2,55.2 Z M305.9,10.4 L294.1,10.4 L294.1,0.8 L327.9,0.8 L327.9,10.4 L316.1,10.4 L316.1,72 L305.9,72 L305.9,10.4 Z M332.7,0.8 L342.9,0.8 L342.9,72 L332.7,72 L332.7,0.8 Z M352.2,17.6 C352.2,14.733319 352.699995,12.200011 353.7,10 C354.700005,7.799989 356.016659,5.9833405 357.65,4.55 C359.283342,3.1166595 361.116656,2.033337 363.15,1.3 C365.183343,0.566663 367.233323,0.2 369.3,0.2 C371.366677,0.2 373.416656,0.566663 375.45,1.3 C377.483343,2.033337 379.316659,3.1166595 380.95,4.55 C382.583341,5.9833405 383.899995,7.799989 384.9,10 C385.900005,12.200011 386.4,14.733319 386.4,17.6 L386.4,55.2 C386.4,58.133348 385.900005,60.6833225 384.9,62.85 C383.899995,65.0166775 382.583341,66.8166595 380.95,68.25 C379.316659,69.6833405 377.483343,70.766663 375.45,71.5 C373.416656,72.233337 371.366677,72.6 369.3,72.6 C367.233323,72.6 365.183343,72.233337 363.15,71.5 C361.116656,70.766663 359.283342,69.6833405 357.65,68.25 C356.016659,66.8166595 354.700005,65.0166775 353.7,62.85 C352.699995,60.6833225 352.2,58.133348 352.2,55.2 L352.2,17.6 Z M362.4,55.2 C362.4,57.666679 363.083327,59.4833275 364.45,60.65 C365.816674,61.8166725 367.433324,62.4 369.3,62.4 C371.166676,62.4 372.783327,61.8166725 374.15,60.65 C375.516674,59.4833275 376.2,57.666679 376.2,55.2 L376.2,17.6 C376.2,15.133321 375.516674,13.3166725 374.15,12.15 C372.783327,10.9833275 371.166676,10.4 369.3,10.4 C367.433324,10.4 365.816674,10.9833275 364.45,12.15 C363.083327,13.3166725 362.4,15.133321 362.4,17.6 L362.4,55.2 Z M395,0.8 L404.8,0.8 L420.2,43.7 L420.4,43.7 L420.4,0.8 L430.6,0.8 L430.6,72 L421,72 L405.4,29.2 L405.2,29.2 L405.2,72 L395,72 L395,0.8 Z M232.5,116.3 L222.3,116.3 L222.3,114 C222.3,111.666655 221.750006,109.650008 220.65,107.95 C219.549995,106.249991 217.700013,105.4 215.1,105.4 C213.699993,105.4 212.550005,105.666664 211.65,106.2 C210.749996,106.733336 210.050003,107.416662 209.55,108.25 C209.049998,109.083337 208.700001,110.049994 208.5,111.15 C208.299999,112.250005 208.2,113.399994 208.2,114.6 C208.2,116.000007 208.25,117.183328 208.35,118.15 C208.450001,119.116671 208.699998,119.949996 209.1,120.65 C209.500002,121.350003 210.08333,121.966664 210.85,122.5 C211.616671,123.033336 212.66666,123.566664 214,124.1 L221.8,127.2 C224.066678,128.066671 225.899993,129.083327 227.3,130.25 C228.700007,131.416672 229.78333,132.783325 230.55,134.35 C231.316671,135.916674 231.833332,137.716656 232.1,139.75 C232.366668,141.783343 232.5,144.099987 232.5,146.7 C232.5,149.700015 232.200003,152.48332 231.6,155.05 C230.999997,157.616679 230.016674,159.816657 228.65,161.65 C227.283327,163.483342 225.466678,164.933328 223.2,166 C220.933322,167.066672 218.166683,167.6 214.9,167.6 C212.433321,167.6 210.133344,167.166671 208,166.3 C205.866656,165.433329 204.033341,164.250007 202.5,162.75 C200.966659,161.249992 199.750005,159.466677 198.85,157.4 C197.949996,155.333323 197.5,153.100012 197.5,150.7 L197.5,146.9 L207.7,146.9 L207.7,150.1 C207.7,151.966676 208.249995,153.649992 209.35,155.15 C210.450006,156.650007 212.299987,157.4 214.9,157.4 C216.633342,157.4 217.983329,157.150002 218.95,156.65 C219.916672,156.149997 220.649998,155.450004 221.15,154.55 C221.650003,153.649995 221.966666,152.53334 222.1,151.2 C222.233334,149.86666 222.3,148.400008 222.3,146.8 C222.3,144.933324 222.233334,143.400006 222.1,142.2 C221.966666,140.999994 221.683335,140.033337 221.25,139.3 C220.816665,138.566663 220.216671,137.966669 219.45,137.5 C218.68333,137.033331 217.666673,136.533336 216.4,136 L209.1,133 C204.699978,131.199991 201.750008,128.816681 200.25,125.85 C198.749993,122.883318 198,119.166689 198,114.7 C198,112.03332 198.366663,109.500012 199.1,107.1 C199.833337,104.699988 200.91666,102.633342 202.35,100.9 C203.783341,99.166658 205.599989,97.7833385 207.8,96.75 C210.000011,95.7166615 212.566652,95.2 215.5,95.2 C218.033346,95.2 220.34999,95.666662 222.45,96.6 C224.550011,97.533338 226.349993,98.766659 227.85,100.3 C229.350008,101.833341 230.499996,103.54999 231.3,105.45 C232.100004,107.350009 232.5,109.29999 232.5,111.3 L232.5,116.3 Z M240.1,95.8 L255.4,95.8 C258.200014,95.8 260.666656,96.166663 262.8,96.9 C264.933344,97.633337 266.866658,98.933324 268.6,100.8 C270.333342,102.666676 271.53333,104.849987 272.2,107.35 C272.86667,109.850012 273.2,113.233312 273.2,117.5 C273.2,120.633349 273.016669,123.316655 272.65,125.55 C272.283332,127.783344 271.500006,129.866657 270.3,131.8 C268.899993,134.133345 267.033345,135.949993 264.7,137.25 C262.366655,138.550006 259.300019,139.2 255.5,139.2 L250.3,139.2 L250.3,167 L240.1,167 L240.1,95.8 Z M250.3,129.6 L255.2,129.6 C257.266677,129.6 258.866661,129.300003 260,128.7 C261.133339,128.099997 261.966664,127.283338 262.5,126.25 C263.033336,125.216661 263.349999,123.966674 263.45,122.5 C263.55,121.033326 263.6,119.400009 263.6,117.6 C263.6,115.933325 263.55,114.350007 263.45,112.85 C263.349999,111.349992 263.050002,110.050005 262.55,108.95 C262.049997,107.849994 261.266672,106.983336 260.2,106.35 C259.133328,105.716663 257.60001,105.4 255.6,105.4 L250.3,105.4 L250.3,129.6 Z M280.2,112.6 C280.2,109.733319 280.699995,107.200011 281.7,105 C282.700005,102.799989 284.016658,100.98334 285.65,99.55 C287.283342,98.1166595 289.116656,97.033337 291.15,96.3 C293.183343,95.566663 295.233323,95.2 297.3,95.2 C299.366677,95.2 301.416656,95.566663 303.45,96.3 C305.483343,97.033337 307.316659,98.1166595 308.95,99.55 C310.583341,100.98334 311.899995,102.799989 312.9,105 C313.900005,107.200011 314.4,109.733319 314.4,112.6 L314.4,150.2 C314.4,153.133348 313.900005,155.683322 312.9,157.85 C311.899995,160.016677 310.583341,161.816659 308.95,163.25 C307.316659,164.68334 305.483343,165.766663 303.45,166.5 C301.416656,167.233337 299.366677,167.6 297.3,167.6 C295.233323,167.6 293.183343,167.233337 291.15,166.5 C289.116656,165.766663 287.283342,164.68334 285.65,163.25 C284.016658,161.816659 282.700005,160.016677 281.7,157.85 C280.699995,155.683322 280.2,153.133348 280.2,150.2 L280.2,112.6 Z M290.4,150.2 C290.4,152.666679 291.083327,154.483327 292.45,155.65 C293.816674,156.816672 295.433324,157.4 297.3,157.4 C299.166676,157.4 300.783327,156.816672 302.15,155.65 C303.516674,154.483327 304.2,152.666679 304.2,150.2 L304.2,112.6 C304.2,110.133321 303.516674,108.316672 302.15,107.15 C300.783327,105.983327 299.166676,105.4 297.3,105.4 C295.433324,105.4 293.816674,105.983327 292.45,107.15 C291.083327,108.316672 290.4,110.133321 290.4,112.6 L290.4,150.2 Z M333.6,127.6 L339.4,127.6 C341.200009,127.6 342.633328,127.350002 343.7,126.85 C344.766672,126.349997 345.58333,125.633338 346.15,124.7 C346.716669,123.766662 347.099999,122.616673 347.3,121.25 C347.500001,119.883326 347.6,118.300009 347.6,116.5 C347.6,114.699991 347.500001,113.116673 347.3,111.75 C347.099999,110.383326 346.683336,109.216671 346.05,108.25 C345.416664,107.283328 344.533339,106.566669 343.4,106.1 C342.266661,105.633331 340.766676,105.4 338.9,105.4 L333.6,105.4 L333.6,127.6 Z M323.4,95.8 L339.8,95.8 C351.80006,95.8 357.8,102.766597 357.8,116.7 C357.8,120.833354 357.150007,124.383318 355.85,127.35 C354.549994,130.316681 352.266683,132.699991 349,134.5 L360,167 L349.2,167 L339.7,136.6 L333.6,136.6 L333.6,167 L323.4,167 L323.4,95.8 Z M372.7,105.4 L360.9,105.4 L360.9,95.8 L394.7,95.8 L394.7,105.4 L382.9,105.4 L382.9,167 L372.7,167 L372.7,105.4 Z M432.2,116.3 L422,116.3 L422,114 C422,111.666655 421.450006,109.650008 420.35,107.95 C419.249995,106.249991 417.400013,105.4 414.8,105.4 C413.399993,105.4 412.250005,105.666664 411.35,106.2 C410.449996,106.733336 409.750003,107.416662 409.25,108.25 C408.749998,109.083337 408.400001,110.049994 408.2,111.15 C407.999999,112.250005 407.9,113.399994 407.9,114.6 C407.9,116.000007 407.95,117.183328 408.05,118.15 C408.150001,119.116671 408.399998,119.949996 408.8,120.65 C409.200002,121.350003 409.78333,121.966664 410.55,122.5 C411.316671,123.033336 412.36666,123.566664 413.7,124.1 L421.5,127.2 C423.766678,128.066671 425.599993,129.083327 427,130.25 C428.400007,131.416672 429.48333,132.783325 430.25,134.35 C431.016671,135.916674 431.533332,137.716656 431.8,139.75 C432.066668,141.783343 432.2,144.099987 432.2,146.7 C432.2,149.700015 431.900003,152.48332 431.3,155.05 C430.699997,157.616679 429.716674,159.816657 428.35,161.65 C426.983326,163.483342 425.166678,164.933328 422.9,166 C420.633322,167.066672 417.866683,167.6 414.6,167.6 C412.133321,167.6 409.833344,167.166671 407.7,166.3 C405.566656,165.433329 403.733341,164.250007 402.2,162.75 C400.666659,161.249992 399.450004,159.466677 398.55,157.4 C397.649996,155.333323 397.2,153.100012 397.2,150.7 L397.2,146.9 L407.4,146.9 L407.4,150.1 C407.4,151.966676 407.949995,153.649992 409.05,155.15 C410.150006,156.650007 411.999987,157.4 414.6,157.4 C416.333342,157.4 417.683329,157.150002 418.65,156.65 C419.616672,156.149997 420.349998,155.450004 420.85,154.55 C421.350003,153.649995 421.666666,152.53334 421.8,151.2 C421.933334,149.86666 422,148.400008 422,146.8 C422,144.933324 421.933334,143.400006 421.8,142.2 C421.666666,140.999994 421.383336,140.033337 420.95,139.3 C420.516665,138.566663 419.916671,137.966669 419.15,137.5 C418.38333,137.033331 417.366673,136.533336 416.1,136 L408.8,133 C404.399978,131.199991 401.450008,128.816681 399.95,125.85 C398.449993,122.883318 397.7,119.166689 397.7,114.7 C397.7,112.03332 398.066663,109.500012 398.8,107.1 C399.533337,104.699988 400.61666,102.633342 402.05,100.9 C403.483341,99.166658 405.299989,97.7833385 407.5,96.75 C409.700011,95.7166615 412.266652,95.2 415.2,95.2 C417.733346,95.2 420.04999,95.666662 422.15,96.6 C424.250011,97.533338 426.049993,98.766659 427.55,100.3 C429.050007,101.833341 430.199996,103.54999 431,105.45 C431.800004,107.350009 432.2,109.29999 432.2,111.3 L432.2,116.3 Z" id="SLOW-MOTION-SPORTS"></path>
            <polygon id="Rectangle-3-Copy" points="209 202 435 202 435 210 209 210"></polygon>
            <path d="M230.628,242.552 L260.684,242.552 L260.684,260.708 L230.628,260.708 L230.628,242.552 Z M256.06,257.24 L256.06,253.228 L235.252,253.228 L235.252,257.24 L256.06,257.24 Z M235.252,249.964 L256.06,249.964 L256.06,246.02 L235.252,246.02 L235.252,249.964 Z M214.988,240.648 L219.408,240.648 L219.408,302.8 L214.988,302.8 L214.988,240.648 Z M207.644,253.568 L211.384,253.84 C211.248,260.572 210.364,266.964 208.868,273.084 L204.992,271.996 C206.556,266.148 207.44,260.028 207.644,253.568 Z M223.896,251.256 C225.12,254.588 226.276,258.464 227.296,262.816 L223.692,263.768 C222.876,259.824 221.788,256.016 220.564,252.412 L223.896,251.256 Z M226.888,264.38 L264.56,264.38 L264.56,277.64 L226.888,277.64 L226.888,264.38 Z M260.344,274.308 L260.344,267.712 L253,267.712 L253,274.308 L260.344,274.308 Z M249.192,274.308 L249.192,267.712 L242.12,267.712 L242.12,274.308 L249.192,274.308 Z M238.244,274.308 L238.244,267.712 L230.9,267.712 L230.9,274.308 L238.244,274.308 Z M227.16,281.788 L262.52,281.788 L262.52,285.188 C259.324,288.996 255.448,292.192 250.96,294.844 C255.72,296.68 261.228,298.108 267.416,299.196 L264.764,303.072 C257.624,301.644 251.504,299.672 246.404,297.224 C240.692,299.808 234.028,301.78 226.48,303.004 L224.44,298.924 C230.832,298.04 236.612,296.612 241.644,294.708 C237.292,292.124 233.756,289.064 230.968,285.664 L227.16,285.664 L227.16,281.788 Z M235.728,285.664 C238.516,288.384 241.984,290.696 246.132,292.736 C250.076,290.764 253.476,288.384 256.468,285.664 L235.728,285.664 Z M287.972,275.736 C287.972,274.557327 288.402662,273.537338 289.264,272.676 C290.125338,271.814662 291.145327,271.384 292.324,271.384 C293.502673,271.384 294.522662,271.814662 295.384,272.676 C296.245338,273.537338 296.676,274.557327 296.676,275.736 C296.676,276.914673 296.245338,277.934662 295.384,278.796 C294.522662,279.657338 293.502673,280.088 292.324,280.088 C291.145327,280.088 290.125338,279.657338 289.264,278.796 C288.402662,277.934662 287.972,276.914673 287.972,275.736 Z M307.012,241.124 C311.636,244.728 315.58,248.264 318.776,251.8 L315.308,255.268 C312.452,251.868 308.576,248.264 303.612,244.32 L307.012,241.124 Z M346.724,301.576 C343.052,301.576 339.108,301.508 334.824,301.44 C330.54,301.372 327.004,300.964 324.284,300.216 C321.7,299.4 319.32,297.7 317.212,295.252 C316.328,294.096 315.444,293.552 314.628,293.552 C312.996,293.552 310.276,296.68 306.468,302.936 L302.796,299.604 C306.468,293.892 309.664,290.424 312.52,289.2 L312.52,268.528 L302.796,268.528 L302.796,264.04 L317.076,264.04 L317.076,289.54 C317.62,289.948 318.096,290.424 318.64,291.036 C320.272,293.008 321.972,294.436 323.876,295.32 C325.916,296.272 328.976,296.816 332.92,296.952 C336.456,297.02 340.808,297.088 346.044,297.088 C349.308,297.088 352.64,297.02 356.04,296.952 C359.304,296.884 361.888,296.816 363.724,296.68 L362.5,301.576 L346.724,301.576 Z M326.392,244.32 L357.604,244.32 L357.604,248.808 L326.392,248.808 L326.392,244.32 Z M322.244,259.756 L362.568,259.756 L362.568,264.448 L341.352,264.448 C337.612,274.104 334.28,280.972 331.288,285.052 C340.128,284.1 347.404,282.876 353.184,281.516 C351.552,277.708 349.716,274.036 347.744,270.5 L351.756,269.208 C355.428,275.464 358.692,282.604 361.548,290.628 L357.196,291.784 C356.516,289.676 355.768,287.636 354.952,285.732 C347.472,287.5 337.68,288.928 325.576,290.084 L324.352,285.8 C327.208,284.984 331.22,277.844 336.524,264.448 L322.244,264.448 L322.244,259.756 Z M372.768,245.204 L397.384,245.204 L397.384,249.896 L372.768,249.896 L372.768,245.204 Z M370.116,263.564 L399.968,263.564 L399.968,268.324 L384.26,268.324 C381.54,278.66 379.16,286.004 377.12,290.492 C382.492,289.404 387.864,287.84 393.168,285.868 C391.4,282.196 389.7,278.864 387.932,275.736 L392.08,273.696 C395.344,279.544 398.404,285.868 401.26,292.736 L397.044,294.912 C396.364,293.144 395.684,291.512 395.004,289.948 C387.796,292.532 379.908,294.572 371.476,296.068 L370.32,291.444 C370.796,291.308 371.136,291.172 371.408,291.036 C373.448,288.248 376.168,280.7 379.568,268.324 L370.116,268.324 L370.116,263.564 Z M410.168,240.648 L415.064,240.648 L415.064,254.384 L429.888,254.384 C429.888,275.668 429.548,288.792 428.936,293.824 C428.256,299.332 424.924,302.12 419.076,302.12 C417.92,302.12 415.948,302.052 413.092,301.916 L412.004,297.564 C414.452,297.7 416.628,297.836 418.464,297.836 C421.796,297.836 423.768,295.864 424.312,291.988 C424.72,288.384 424.992,277.436 425.128,259.144 L415.064,259.144 L415.064,259.96 C414.86,279.544 410.1,293.892 400.852,302.936 L397.18,299.74 C405.68,291.512 410.032,278.252 410.168,259.96 L410.168,259.144 L400.988,259.144 L400.988,254.384 L410.168,254.384 L410.168,240.648 Z" id="慢-·运动"></path>
            <path d="M304.46,348.86 C305.82,349.92 306.98,350.96 307.92,352 L306.9,353.02 C306.06,352.02 304.92,350.96 303.46,349.8 L304.46,348.86 Z M316.14,366.64 C315.06,366.64 313.9,366.62 312.64,366.6 C311.38,366.58 310.34,366.46 309.54,366.24 C308.78,366 308.08,365.5 307.46,364.78 C307.2,364.44 306.94,364.28 306.7,364.28 C306.22,364.28 305.42,365.2 304.3,367.04 L303.22,366.06 C304.3,364.38 305.24,363.36 306.08,363 L306.08,356.92 L303.22,356.92 L303.22,355.6 L307.42,355.6 L307.42,363.1 C307.58,363.22 307.72,363.36 307.88,363.54 C308.36,364.12 308.86,364.54 309.42,364.8 C310.02,365.08 310.92,365.24 312.08,365.28 C313.12,365.3 314.4,365.32 315.94,365.32 C316.9,365.32 317.88,365.3 318.88,365.28 C319.84,365.26 320.6,365.24 321.14,365.2 L320.78,366.64 L316.14,366.64 Z M310.16,349.8 L319.34,349.8 L319.34,351.12 L310.16,351.12 L310.16,349.8 Z M308.94,354.34 L320.8,354.34 L320.8,355.72 L314.56,355.72 C313.46,358.56 312.48,360.58 311.6,361.78 C314.2,361.5 316.34,361.14 318.04,360.74 C317.56,359.62 317.02,358.54 316.44,357.5 L317.62,357.12 C318.7,358.96 319.66,361.06 320.5,363.42 L319.22,363.76 C319.02,363.14 318.8,362.54 318.56,361.98 C316.36,362.5 313.48,362.92 309.92,363.26 L309.56,362 C310.4,361.76 311.58,359.66 313.14,355.72 L308.94,355.72 L308.94,354.34 Z M323.8,350.06 L331.04,350.06 L331.04,351.44 L323.8,351.44 L323.8,350.06 Z M323.02,355.46 L331.8,355.46 L331.8,356.86 L327.18,356.86 C326.38,359.9 325.68,362.06 325.08,363.38 C326.66,363.06 328.24,362.6 329.8,362.02 C329.28,360.94 328.78,359.96 328.26,359.04 L329.48,358.44 C330.44,360.16 331.34,362.02 332.18,364.04 L330.94,364.68 C330.74,364.16 330.54,363.68 330.34,363.22 C328.22,363.98 325.9,364.58 323.42,365.02 L323.08,363.66 C323.22,363.62 323.32,363.58 323.4,363.54 C324,362.72 324.8,360.5 325.8,356.86 L323.02,356.86 L323.02,355.46 Z M334.8,348.72 L336.24,348.72 L336.24,352.76 L340.6,352.76 C340.6,359.02 340.5,362.88 340.32,364.36 C340.12,365.98 339.14,366.8 337.42,366.8 C337.08,366.8 336.5,366.78 335.66,366.74 L335.34,365.46 C336.06,365.5 336.7,365.54 337.24,365.54 C338.22,365.54 338.8,364.96 338.96,363.82 C339.08,362.76 339.16,359.54 339.2,354.16 L336.24,354.16 L336.24,354.4 C336.18,360.16 334.78,364.38 332.06,367.04 L330.98,366.1 C333.48,363.68 334.76,359.78 334.8,354.4 L334.8,354.16 L332.1,354.16 L332.1,352.76 L334.8,352.76 L334.8,348.72 Z M354.16,354.54 C353.3,357.4 351.74,359.68 349.5,361.36 L348.6,360.28 C349.58,359.56 350.42,358.72 351.14,357.72 C350.5,357.2 349.88,356.76 349.26,356.4 C349,356.72 348.76,357.04 348.52,357.32 L347.74,356.3 C349.46,354.24 350.62,351.72 351.22,348.74 L352.48,348.88 C352.36,349.48 352.22,350.06 352.06,350.62 L354.78,350.62 L354.78,351.58 C354.7,352.14 354.62,352.7 354.5,353.24 L356.28,353.24 L356.28,348.74 L357.6,348.74 L357.6,353.24 L360.94,353.24 L360.94,354.54 L357.68,354.54 C357.96,356.5 359.16,358.52 361.28,360.62 L360.32,361.6 C358.5,359.76 357.38,357.88 356.94,355.98 C356.54,357.94 355.46,359.86 353.7,361.76 L352.74,360.78 C354.78,358.62 355.94,356.54 356.22,354.54 L354.16,354.54 Z M359.1,349.48 C359.86,350.44 360.46,351.3 360.86,352.04 L359.88,352.72 C359.46,351.92 358.88,351.02 358.16,350.06 L359.1,349.48 Z M351.74,356.8 C352.02,356.28 352.3,355.76 352.54,355.22 C351.9,354.8 351.26,354.46 350.64,354.18 C350.4,354.66 350.14,355.1 349.86,355.54 C350.54,355.9 351.16,356.32 351.74,356.8 Z M352.94,354.18 C353.18,353.44 353.4,352.68 353.56,351.9 L351.64,351.9 C351.48,352.36 351.3,352.8 351.1,353.24 C351.74,353.5 352.34,353.82 352.94,354.18 Z M350.2,362 L351.46,362.32 C351.1,364.14 350.64,365.74 350.08,367.12 L348.7,366.62 C349.28,365.42 349.78,363.88 350.2,362 Z M353.88,362.36 C354.06,363.68 354.22,365.18 354.34,366.86 L353.04,367.04 C352.92,365.32 352.78,363.82 352.66,362.5 L353.88,362.36 Z M356.6,362.12 C357.02,363.48 357.4,364.94 357.74,366.54 L356.34,366.86 C356.08,365.16 355.76,363.66 355.38,362.38 L356.6,362.12 Z M359.38,361.82 C360.1,363.2 360.74,364.68 361.26,366.24 L360,366.8 C359.44,365.06 358.84,363.54 358.18,362.22 L359.38,361.82 Z M343.48,352.5 L344.58,352.58 C344.54,354.58 344.36,356.46 344.08,358.26 L342.96,357.96 C343.26,356.24 343.44,354.42 343.48,352.5 Z M346.46,361.08 C345.94,363.48 345.06,365.4 343.78,366.8 L342.7,365.86 C344.62,363.82 345.6,360.54 345.64,356.06 L345.64,348.74 L346.96,348.74 L346.96,353.64 C347.5,352.96 348,352.14 348.46,351.2 L349.16,352.16 C348.5,353.28 347.76,354.22 346.96,355.02 L346.96,356.06 C346.94,357.4 346.86,358.64 346.7,359.78 C347.42,360.7 348.14,361.74 348.88,362.86 L348,364.18 C347.4,362.9 346.9,361.88 346.46,361.08 Z M363.38,352.48 L364.54,352.56 C364.5,354.56 364.3,356.46 363.94,358.26 L362.82,357.94 C363.14,356.22 363.34,354.4 363.38,352.48 Z M365.64,348.82 L366.96,348.82 L366.96,354.04 C367.66,353.28 368.26,352.48 368.74,351.64 L369.54,352.64 C368.86,353.66 368,354.64 366.96,355.6 L366.96,356.08 C366.94,357.44 366.86,358.68 366.72,359.84 C367.52,360.88 368.32,362.06 369.16,363.36 L368.36,364.56 C367.64,363.18 367,362.08 366.48,361.26 C366,363.68 365.18,365.6 364,367 L362.96,366.08 C364.72,364 365.6,360.68 365.64,356.08 L365.64,348.82 Z M370.42,349.24 L379.96,349.24 L379.96,354.5 L377.94,354.5 L377.94,355.7 L380.64,355.7 L380.64,356.78 L377.94,356.78 L377.94,358.06 L381,358.06 L381,359.18 L378.04,359.18 C378.72,360.06 379.78,360.88 381.26,361.6 L380.44,362.64 C379.8,362.24 379.24,361.82 378.76,361.42 C378.26,361.94 377.7,362.4 377.06,362.82 L376.42,361.96 C376.98,361.58 377.48,361.14 377.92,360.66 C377.44,360.16 377.08,359.66 376.8,359.18 L373.48,359.18 C373.12,359.78 372.64,360.32 372.08,360.8 C372.66,361.24 373.16,361.66 373.56,362.08 L372.78,362.86 C372.38,362.42 371.86,361.94 371.22,361.46 C370.7,361.8 370.16,362.12 369.56,362.4 L368.86,361.24 C370.34,360.68 371.46,360 372.2,359.18 L368.92,359.18 L368.92,358.06 L372.44,358.06 L372.44,356.78 L369.7,356.78 L369.7,355.7 L372.44,355.7 L372.44,354.5 L370.42,354.5 L370.42,349.24 Z M373.72,358.06 L376.68,358.06 L376.68,356.78 L373.72,356.78 L373.72,358.06 Z M376.68,355.7 L376.68,354.5 L373.72,354.5 L373.72,355.7 L376.68,355.7 Z M378.68,353.52 L378.68,352.38 L371.68,352.38 L371.68,353.52 L378.68,353.52 Z M371.68,351.44 L378.68,351.44 L378.68,350.28 L371.68,350.28 L371.68,351.44 Z M374.38,366.98 L372.86,366.98 L372.58,365.74 C373.06,365.8 373.5,365.84 373.94,365.84 C374.26,365.84 374.44,365.64 374.44,365.24 L374.44,359.88 L375.8,359.88 L375.8,365.56 C375.8,366.5 375.32,366.98 374.38,366.98 Z M373.34,363.16 L373.64,364.22 C372.6,364.9 371.3,365.52 369.74,366.04 L369.2,364.8 C370.8,364.36 372.18,363.8 373.34,363.16 Z M376.96,363.3 C378.34,363.86 379.6,364.52 380.74,365.3 L380,366.46 C378.8,365.52 377.56,364.8 376.3,364.28 L376.96,363.3 Z M384.08,349.92 L391.26,349.92 L391.26,348.62 L392.74,348.62 L392.74,349.92 L399.96,349.92 L399.96,351.12 L392.74,351.12 L392.74,352.48 L399.18,352.48 L399.18,353.64 L392.74,353.64 L392.74,355.04 L400.78,355.04 L400.78,356.26 L383.22,356.26 L383.22,355.04 L391.26,355.04 L391.26,353.64 L384.86,353.64 L384.86,352.48 L391.26,352.48 L391.26,351.12 L384.08,351.12 L384.08,349.92 Z M396.52,366.88 L394.3,366.88 L393.96,365.6 L396.08,365.66 C396.7,365.66 397.02,365.34 397.02,364.74 L397.02,363.76 L387.02,363.76 L387.02,367 L385.6,367 L385.6,357.46 L398.44,357.46 L398.44,365.04 C398.44,366.26 397.8,366.88 396.52,366.88 Z M387.02,362.66 L397.02,362.66 L397.02,361.22 L387.02,361.22 L387.02,362.66 Z M387.02,360.1 L397.02,360.1 L397.02,358.64 L387.02,358.64 L387.02,360.1 Z M404.14,349.96 L410.96,349.96 L411.26,348.5 L412.74,348.64 C412.66,349.08 412.56,349.52 412.46,349.96 L419.86,349.96 L419.86,351.22 L412.12,351.22 C411.96,351.78 411.78,352.3 411.6,352.78 L418.94,352.78 L418.94,354.04 L411.1,354.04 C410.86,354.58 410.6,355.1 410.32,355.6 L420.52,355.6 L420.52,356.88 L416.62,356.88 C417.62,358.38 419.2,359.58 421.34,360.46 L420.72,361.74 C419.32,361.08 418.18,360.32 417.26,359.46 L417.26,367.04 L415.84,367.04 L415.84,366.22 L408.28,366.22 L408.28,367.08 L406.86,367.08 L406.86,359.78 C405.82,360.62 404.66,361.3 403.42,361.82 L402.7,360.62 C404.76,359.82 406.46,358.58 407.82,356.88 L403.48,356.88 L403.48,355.6 L408.72,355.6 C409.02,355.1 409.3,354.58 409.56,354.04 L405.12,354.04 L405.12,352.78 L410.1,352.78 C410.28,352.26 410.46,351.74 410.62,351.22 L404.14,351.22 L404.14,349.96 Z M416.36,358.54 C415.9,358 415.52,357.44 415.22,356.88 L409.52,356.88 C409.1,357.48 408.66,358.04 408.2,358.54 L416.36,358.54 Z M408.28,364.94 L415.84,364.94 L415.84,362.98 L408.28,362.98 L408.28,364.94 Z M408.28,361.72 L415.84,361.72 L415.84,359.8 L408.28,359.8 L408.28,361.72 Z M425.72,362.62 C426.16,362.62 426.54,362.8 426.82,363.18 C427.08,363.54 427.22,364 427.22,364.58 C427.22,365.46 426.96,366.24 426.44,366.92 C425.92,367.56 425.22,368 424.38,368.22 L424.38,367.24 C424.9,367.06 425.32,366.76 425.64,366.36 C425.94,365.94 426.08,365.5 426.08,365.02 C426,365.06 425.84,365.1 425.64,365.1 C425.3,365.1 425.02,364.98 424.78,364.74 C424.54,364.5 424.42,364.2 424.42,363.86 C424.42,363.48 424.54,363.18 424.78,362.96 C425.02,362.72 425.32,362.62 425.72,362.62 Z M186.26,383.64 L186.26,387.14 L191.34,387.14 L191.34,383.64 L186.26,383.64 Z M186.18,388.46 C185.96,391.02 185.22,393.14 183.94,394.82 L182.84,393.84 C184.12,392.06 184.78,389.8 184.82,387.06 L184.82,377.46 L199.72,377.46 L199.72,392.44 C199.72,393.84 199.02,394.54 197.62,394.54 L195.32,394.54 L194.94,393.12 C195.74,393.16 196.48,393.2 197.16,393.2 C197.88,393.2 198.26,392.78 198.26,391.94 L198.26,388.46 L192.82,388.46 L192.82,394.32 L191.34,394.32 L191.34,388.46 L186.18,388.46 Z M198.26,387.14 L198.26,383.64 L192.82,383.64 L192.82,387.14 L198.26,387.14 Z M198.26,382.3 L198.26,378.86 L192.82,378.86 L192.82,382.3 L198.26,382.3 Z M191.34,378.86 L186.26,378.86 L186.26,382.3 L191.34,382.3 L191.34,378.86 Z M210.52,378.18 L214.5,378.18 C214.3,377.66 214.06,377.16 213.82,376.7 L215.26,376.46 C215.46,376.96 215.68,377.54 215.88,378.18 L220.12,378.18 L220.12,379.38 L218.48,379.38 C218.3,380.14 218.06,380.86 217.74,381.54 L220.78,381.54 L220.78,382.76 L209.92,382.76 L209.92,381.54 L212.9,381.54 C212.66,380.74 212.4,380.02 212.12,379.38 L210.52,379.38 L210.52,378.18 Z M216.36,381.54 C216.72,380.84 216.98,380.12 217.14,379.38 L213.52,379.38 C213.76,380.04 213.98,380.76 214.2,381.54 L216.36,381.54 Z M211.14,383.96 L219.42,383.96 L219.42,390.24 L217.38,390.24 L217.38,392.84 C217.38,393.34 217.62,393.6 218.12,393.6 L218.98,393.6 C219.3,393.6 219.54,393.5 219.68,393.32 C219.86,393.08 219.98,392.38 220.04,391.24 L221.22,391.6 C221.1,393.12 220.88,394.04 220.56,394.38 C220.28,394.64 219.82,394.78 219.2,394.78 L217.74,394.78 C216.6,394.78 216.04,394.22 216.04,393.12 L216.04,390.24 L214.28,390.24 C214.06,391.44 213.64,392.42 213.02,393.16 C212.3,394 211.12,394.64 209.46,395.1 L208.96,393.9 C210.32,393.54 211.32,393.02 211.94,392.38 C212.42,391.82 212.76,391.12 212.94,390.24 L211.14,390.24 L211.14,383.96 Z M218.12,389.08 L218.12,387.62 L212.44,387.62 L212.44,389.08 L218.12,389.08 Z M212.44,386.56 L218.12,386.56 L218.12,385.1 L212.44,385.1 L212.44,386.56 Z M205.26,376.54 L206.64,376.84 C206.46,377.58 206.28,378.28 206.08,378.92 L209.54,378.92 L209.54,380.3 L205.62,380.3 C205.1,381.68 204.52,382.94 203.86,384.06 L202.68,383.32 C203.86,381.28 204.72,379.02 205.26,376.54 Z M204.76,382.96 L209.3,382.96 L209.3,384.26 L207.2,384.26 L207.2,386.72 L209.76,386.72 L209.76,388.04 L207.2,388.04 L207.2,392.68 C207.88,392.36 208.58,391.94 209.28,391.44 L209.54,392.68 C208.46,393.4 207.24,393.98 205.84,394.42 L205.28,393.22 C205.62,393.1 205.8,392.88 205.8,392.58 L205.8,388.04 L203.3,388.04 L203.3,386.72 L205.8,386.72 L205.8,384.26 L204.76,384.26 L204.76,382.96 Z M223.38,386.04 L232.28,386.04 C232.52,385.02 232.66,383.92 232.7,382.76 L232.7,376.7 L234.16,376.7 L234.16,382.76 C234.12,383.96 233.98,385.04 233.76,386.04 L240.74,386.04 L240.74,387.44 L233.38,387.44 C233.24,387.86 233.08,388.26 232.9,388.64 C235.96,390.42 238.54,392.2 240.64,393.96 L239.6,394.98 C237.8,393.34 235.38,391.58 232.3,389.74 C232.1,390.06 231.88,390.38 231.66,390.68 C230.12,392.52 227.62,393.94 224.14,394.98 L223.36,393.76 C226.84,392.72 229.28,391.36 230.64,389.66 C231.12,388.98 231.52,388.24 231.84,387.44 L223.38,387.44 L223.38,386.04 Z M225,380.98 C226.64,381.7 228.16,382.56 229.52,383.6 L228.74,384.78 C227.28,383.66 225.78,382.76 224.24,382.1 L225,380.98 Z M227.2,377.76 C228.6,378.4 229.9,379.16 231.06,380.04 L230.3,381.2 C229.04,380.2 227.76,379.44 226.44,378.88 L227.2,377.76 Z M252.82,384.18 C252.46,384.74 252.08,385.26 251.68,385.74 L250.8,384.68 C252.36,382.68 253.42,379.98 253.98,376.6 L255.4,376.84 C255.22,377.86 255,378.82 254.74,379.7 L260.64,379.7 L260.64,381.08 L259.16,381.08 C259.04,384.44 258.26,387.32 256.82,389.7 C258.08,391.5 259.58,392.88 261.3,393.84 L260.48,395.06 C258.74,394.06 257.24,392.68 256,390.92 C254.8,392.52 253.28,393.86 251.4,394.94 L250.58,393.64 C252.5,392.6 254.02,391.28 255.18,389.66 C254.24,388.06 253.46,386.24 252.82,384.18 Z M254.3,381.08 C254.1,381.64 253.88,382.16 253.64,382.66 C254.24,384.86 255.02,386.76 255.96,388.38 C257.08,386.32 257.68,383.88 257.78,381.08 L254.3,381.08 Z M243.1,379.68 L246.92,379.68 C246.56,378.72 246.12,377.8 245.64,376.9 L247.04,376.5 C247.6,377.66 248.06,378.72 248.38,379.68 L251.38,379.68 L251.38,381.06 L246.52,381.06 L246.52,382.9 C246.52,383.3 246.5,383.68 246.5,384.04 L250.32,384.04 C250.32,388.9 250.22,391.88 250.04,393 C249.84,394.14 249.04,394.72 247.62,394.72 C247.36,394.72 246.9,394.68 246.24,394.64 L245.92,393.4 C246.48,393.44 246.98,393.46 247.42,393.46 C248.14,393.46 248.58,393.12 248.72,392.46 C248.86,391.7 248.94,389.32 248.96,385.36 L246.44,385.36 C246.16,389.64 245.28,392.84 243.8,394.96 L242.68,393.98 C244.32,391.68 245.14,387.98 245.18,382.9 L245.18,381.06 L243.1,381.06 L243.1,379.68 Z M263.22,381.92 L271,381.92 C271.16,380.76 271.24,379.56 271.26,378.3 L271.26,376.68 L272.74,376.68 L272.74,377.98 C272.74,379.38 272.64,380.68 272.48,381.92 L280.78,381.92 L280.78,383.32 L272.9,383.32 C274.3,387.84 277.06,391.32 281.16,393.76 L280.26,394.92 C276.24,392.44 273.48,388.96 271.98,384.44 C270.74,389.3 267.98,392.84 263.72,395.06 L262.82,393.86 C267.08,391.76 269.72,388.24 270.76,383.32 L263.22,383.32 L263.22,381.92 Z M287.2,379.76 C286.26,381.28 285.18,382.62 283.94,383.74 L283.02,382.62 C284.74,381.06 286.14,379.04 287.24,376.52 L288.7,376.86 C288.46,377.38 288.22,377.9 287.98,378.38 L300.3,378.38 L300.3,379.76 L287.2,379.76 Z M290.42,387.78 C291.9,388.3 293.24,388.92 294.46,389.66 L293.78,390.7 C292.46,389.86 291.12,389.2 289.76,388.72 L290.42,387.78 Z M285.32,392.14 C285.62,390.58 285.86,388.98 286.04,387.38 L282.8,387.38 L282.8,386.02 L286.18,386.02 C286.32,384.5 286.4,382.96 286.44,381.42 L298.86,381.42 L298.72,386.02 L301.24,386.02 L301.24,387.38 L298.66,387.38 C298.6,388.78 298.54,389.92 298.5,390.8 L300.7,390.8 L300.7,392.14 L298.4,392.14 C298.36,392.66 298.3,393 298.26,393.16 C298.08,393.78 297.74,394.24 297.22,394.56 C296.74,394.84 296,394.98 295.04,394.98 C294.36,394.98 293.56,395 292.68,395 L292.24,393.66 C293.2,393.7 294.06,393.74 294.82,393.74 C295.3,393.74 295.72,393.68 296.08,393.58 C296.44,393.44 296.72,393.14 296.9,392.7 C296.94,392.62 296.96,392.42 297,392.14 L285.32,392.14 Z M297.12,390.8 C297.16,389.92 297.22,388.78 297.28,387.38 L287.48,387.38 C287.34,388.62 287.18,389.76 286.98,390.8 L297.12,390.8 Z M287.62,386.02 L293.84,386.02 C292.56,385.22 291.24,384.58 289.92,384.1 L290.58,383.14 C292.04,383.66 293.38,384.28 294.58,385.02 L293.92,386.02 L297.32,386.02 C297.36,385.02 297.38,383.94 297.42,382.76 L287.8,382.76 C287.76,383.92 287.7,385 287.62,386.02 Z M303,384.94 L320.98,384.94 L320.98,386.38 L303,386.38 L303,384.94 Z M331.66,381.08 C331.04,382.94 330.22,384.46 329.2,385.62 L328,384.78 C329.64,382.82 330.7,380.08 331.18,376.6 L332.62,376.82 C332.46,377.86 332.28,378.82 332.06,379.7 L340.46,379.7 L340.46,380.64 C340.04,382.34 339.5,384.02 338.82,385.68 L337.4,385.28 C338.02,384.04 338.52,382.64 338.92,381.08 L331.66,381.08 Z M333.72,382.44 L335.12,382.44 C335.12,383.52 335.06,384.52 334.96,385.44 C336.16,389 338.26,391.82 341.28,393.9 L340.34,395 C337.74,393.04 335.82,390.64 334.54,387.76 C334.42,388.26 334.28,388.72 334.12,389.16 C333.26,391.56 331.3,393.52 328.22,395.04 L327.28,393.9 C330,392.58 331.8,390.9 332.7,388.9 C333.34,387.2 333.68,385.04 333.72,382.44 Z M324.16,377.52 C325.72,379.08 326.92,380.44 327.76,381.6 L326.64,382.4 C325.74,381.16 324.52,379.76 323,378.24 L324.16,377.52 Z M326.6,386.1 L327.86,386.58 C326.74,389.34 325.5,391.94 324.12,394.36 L322.78,393.76 C324.26,391.26 325.52,388.7 326.6,386.1 Z M343.36,388.58 L351.24,388.58 L351.24,386.62 L352.72,386.62 L352.72,388.58 L360.68,388.58 L360.68,389.98 L352.72,389.98 L352.72,395.02 L351.24,395.02 L351.24,389.98 L343.36,389.98 L343.36,388.58 Z M358.04,386.32 L354.36,386.32 C353.16,386.32 352.56,385.74 352.56,384.58 L352.56,383.02 C351.6,383.42 350.62,383.78 349.62,384.14 L348.82,382.94 C350.18,382.5 351.42,382.02 352.56,381.52 L352.56,376.94 L353.94,376.94 L353.94,380.88 C355.98,379.88 357.66,378.76 358.98,377.56 L359.96,378.56 C358.24,380.02 356.24,381.3 353.94,382.4 L353.94,384.3 C353.94,384.76 354.22,385 354.78,385 L357.78,385 C358.3,385 358.68,384.9 358.9,384.7 C359.18,384.42 359.38,383.62 359.48,382.32 L360.84,382.76 C360.68,384.44 360.36,385.48 359.92,385.84 C359.52,386.16 358.88,386.32 358.04,386.32 Z M346.12,381.76 C345.34,382.44 344.48,383.1 343.54,383.72 L343.08,382.24 C345.58,380.6 347.4,378.74 348.56,376.62 L349.78,377.18 C349.18,378.32 348.44,379.4 347.52,380.4 L347.52,387.02 L346.12,387.02 L346.12,381.76 Z M363.24,377.7 L380.76,377.7 L380.76,379.1 L363.24,379.1 L363.24,377.7 Z M369.18,394.96 L367.68,394.96 L367.32,393.64 L368.74,393.7 C369.22,393.7 369.48,393.42 369.48,392.9 L369.48,382.54 L365.48,382.54 L365.48,395.02 L364.16,395.02 L364.16,381.18 L370.82,381.18 L370.82,393.18 C370.82,394.36 370.26,394.96 369.18,394.96 Z M366.94,384.68 C367.78,386.08 368.52,387.58 369.12,389.16 L367.96,389.66 C367.32,387.92 366.62,386.4 365.86,385.12 L366.94,384.68 Z M378.12,394.96 L376.74,394.96 L376.38,393.64 L377.68,393.7 C378.22,393.7 378.5,393.42 378.5,392.86 L378.5,382.54 L374.48,382.54 L374.48,395.02 L373.14,395.02 L373.14,381.18 L379.82,381.18 L379.82,393.14 C379.82,394.34 379.24,394.96 378.12,394.96 Z M375.92,384.66 C376.78,386.1 377.52,387.62 378.14,389.22 L376.98,389.72 C376.34,387.96 375.62,386.42 374.84,385.1 L375.92,384.66 Z M386.84,382.16 L388.22,382.16 L388.22,385.2 L390.44,385.2 L390.44,386.5 L388.22,386.5 L388.22,389.24 C389.2,389.04 390.12,388.82 391,388.6 L391,389.96 C390.1,390.2 389.18,390.44 388.22,390.64 L388.22,394.98 L386.84,394.98 L386.84,390.92 C385.6,391.14 384.32,391.34 382.96,391.52 L382.78,390.1 C384.22,389.92 385.56,389.72 386.84,389.5 L386.84,386.5 L383.48,386.5 L383.18,385.22 C383.76,384.02 384.3,382.52 384.8,380.68 L382.8,380.68 L382.8,379.28 L385.16,379.28 C385.36,378.44 385.54,377.54 385.74,376.62 L387.1,376.82 C386.92,377.68 386.74,378.5 386.56,379.28 L390.36,379.28 L390.36,380.68 L386.2,380.68 C385.72,382.4 385.2,383.9 384.64,385.2 L386.84,385.2 L386.84,382.16 Z M391.28,379.28 L394.42,379.28 C394.58,378.4 394.74,377.5 394.9,376.58 L396.32,376.72 C396.16,377.6 396.02,378.46 395.86,379.28 L400.72,379.28 L400.72,380.68 L395.58,380.68 L395.06,382.98 L401.22,382.98 L401.22,384.36 L394.72,384.36 C394.48,385.28 394.22,386.12 393.96,386.9 L400.34,386.9 L400.34,388.1 C399.66,389.46 398.62,390.82 397.2,392.18 C398.02,392.68 398.8,393.2 399.54,393.76 L398.74,394.98 C396.66,393.38 394.52,392.1 392.32,391.18 L393.08,390.04 C394.12,390.48 395.1,390.98 396.02,391.5 C397.22,390.44 398.16,389.34 398.86,388.18 L392.16,388.18 C392.56,386.94 392.94,385.68 393.28,384.36 L390.7,384.36 L390.7,382.98 L393.62,382.98 C393.8,382.2 393.98,381.44 394.14,380.68 L391.28,380.68 L391.28,379.28 Z M410.64,376.46 L412.14,376.66 C411.98,377.26 411.78,377.82 411.54,378.34 L417.4,378.34 L417.4,387.16 C418.44,386 419.2,384.78 419.7,383.54 L420.94,384.32 C419.98,386.16 418.8,387.74 417.4,389.04 L417.4,393.3 C417.4,394.46 416.86,395.04 415.82,395.04 L413.68,395.04 L413.3,393.66 L415.36,393.72 C415.76,393.72 415.98,393.46 415.98,392.98 L415.98,390.22 C415.54,390.54 415.12,390.84 414.68,391.12 C411.94,392.74 408.5,393.9 404.38,394.62 L403.74,393.32 C408.96,392.4 412.72,391.06 415.04,389.32 L415.32,389.1 L403.62,389.1 L403.62,387.78 L406.02,387.78 L406.02,378.34 L410.04,378.34 C410.3,377.74 410.5,377.1 410.64,376.46 Z M407.46,387.78 L415.98,387.78 L415.98,385.76 L407.46,385.76 L407.46,387.78 Z M407.46,384.52 L415.98,384.52 L415.98,382.72 L407.46,382.72 L407.46,384.52 Z M407.46,381.5 L415.98,381.5 L415.98,379.62 L407.46,379.62 L407.46,381.5 Z M427,390.16 C427.72,390.16 428.32,390.4 428.84,390.88 C429.34,391.36 429.6,391.96 429.6,392.68 C429.6,393.38 429.34,393.98 428.84,394.46 C428.32,394.94 427.72,395.18 427,395.18 C426.28,395.18 425.66,394.94 425.16,394.48 C424.64,394 424.4,393.4 424.4,392.68 C424.4,391.96 424.64,391.36 425.16,390.88 C425.66,390.4 426.28,390.16 427,390.16 Z M427,391.2 C426.58,391.2 426.22,391.34 425.94,391.64 C425.62,391.92 425.48,392.26 425.48,392.68 C425.48,393.08 425.62,393.42 425.94,393.7 C426.22,393.98 426.58,394.14 427,394.14 C427.4,394.14 427.76,393.98 428.06,393.7 C428.36,393.42 428.52,393.08 428.52,392.68 C428.52,392.26 428.36,391.92 428.06,391.64 C427.76,391.34 427.4,391.2 427,391.2 Z" id="运动燃爆青春，-用镜头放大每一次华丽转身"></path>
        </g>
    </g>
</svg>