<?xml version="1.0" encoding="UTF-8"?>
<svg width="431px" height="396px" viewBox="0 0 431 396" version="1.1" xmlns="http://www.w3.org/2000/svg" xmlns:xlink="http://www.w3.org/1999/xlink">
    <!-- Generator: Sketch 50.2 (55047) - http://www.bohemiancoding.com/sketch -->
    <title>人物</title>
    <desc>Created with Sketch.</desc>
    <defs></defs>
    <g id="Page-1" stroke="none" stroke-width="1" fill="none" fill-rule="evenodd">
        <g id="Group-4-Copy-2" fill="#FFFFFF">
            <path d="M35.8,21.3 L25.6,21.3 L25.6,19 C25.6,16.666655 25.0500055,14.6500085 23.95,12.95 C22.8499945,11.2499915 21.000013,10.4 18.4,10.4 C16.999993,10.4 15.8500045,10.666664 14.95,11.2 C14.0499955,11.733336 13.3500025,12.4166625 12.85,13.25 C12.3499975,14.0833375 12.000001,15.0499945 11.8,16.15 C11.599999,17.2500055 11.5,18.399994 11.5,19.6 C11.5,21.000007 11.5499995,22.1833285 11.65,23.15 C11.7500005,24.1166715 11.999998,24.9499965 12.4,25.65 C12.800002,26.3500035 13.3833295,26.966664 14.15,27.5 C14.9166705,28.033336 15.96666,28.566664 17.3,29.1 L25.1,32.2 C27.366678,33.066671 29.199993,34.0833275 30.6,35.25 C32.000007,36.4166725 33.0833295,37.7833255 33.85,39.35 C34.6166705,40.9166745 35.133332,42.7166565 35.4,44.75 C35.666668,46.7833435 35.8,49.099987 35.8,51.7 C35.8,54.700015 35.500003,57.4833205 34.9,60.05 C34.299997,62.6166795 33.3166735,64.8166575 31.95,66.65 C30.5833265,68.4833425 28.766678,69.933328 26.5,71 C24.233322,72.066672 21.466683,72.6 18.2,72.6 C15.733321,72.6 13.433344,72.166671 11.3,71.3 C9.166656,70.433329 7.333341,69.2500075 5.8,67.75 C4.266659,66.2499925 3.0500045,64.466677 2.15,62.4 C1.2499955,60.333323 0.8,58.100012 0.8,55.7 L0.8,51.9 L11,51.9 L11,55.1 C11,56.966676 11.5499945,58.6499925 12.65,60.15 C13.7500055,61.6500075 15.599987,62.4 18.2,62.4 C19.933342,62.4 21.2833285,62.1500025 22.25,61.65 C23.2166715,61.1499975 23.9499975,60.4500045 24.45,59.55 C24.9500025,58.6499955 25.266666,57.53334 25.4,56.2 C25.533334,54.86666 25.6,53.400008 25.6,51.8 C25.6,49.933324 25.533334,48.400006 25.4,47.2 C25.266666,45.999994 24.9833355,45.033337 24.55,44.3 C24.1166645,43.566663 23.5166705,42.966669 22.75,42.5 C21.9833295,42.033331 20.966673,41.533336 19.7,41 L12.4,38 C7.999978,36.199991 5.0500075,33.8166815 3.55,30.85 C2.0499925,27.8833185 1.3,24.166689 1.3,19.7 C1.3,17.03332 1.666663,14.500012 2.4,12.1 C3.133337,9.699988 4.2166595,7.633342 5.65,5.9 C7.0833405,4.166658 8.899989,2.7833385 11.1,1.75 C13.300011,0.7166615 15.866652,0.2 18.8,0.2 C21.333346,0.2 23.6499895,0.666662 25.75,1.6 C27.8500105,2.533338 29.6499925,3.766659 31.15,5.3 C32.6500075,6.833341 33.799996,8.5499905 34.6,10.45 C35.400004,12.3500095 35.8,14.29999 35.8,16.3 L35.8,21.3 Z M43.4,0.8 L53.6,0.8 L53.6,61.8 L73.8,61.8 L73.8,72 L43.4,72 L43.4,0.8 Z M79.8,17.6 C79.8,14.733319 80.299995,12.200011 81.3,10 C82.300005,7.799989 83.6166585,5.9833405 85.25,4.55 C86.8833415,3.1166595 88.7166565,2.033337 90.75,1.3 C92.7833435,0.566663 94.833323,0.2 96.9,0.2 C98.966677,0.2 101.016656,0.566663 103.05,1.3 C105.083343,2.033337 106.916658,3.1166595 108.55,4.55 C110.183341,5.9833405 111.499995,7.799989 112.5,10 C113.500005,12.200011 114,14.733319 114,17.6 L114,55.2 C114,58.133348 113.500005,60.6833225 112.5,62.85 C111.499995,65.0166775 110.183341,66.8166595 108.55,68.25 C106.916658,69.6833405 105.083343,70.766663 103.05,71.5 C101.016656,72.233337 98.966677,72.6 96.9,72.6 C94.833323,72.6 92.7833435,72.233337 90.75,71.5 C88.7166565,70.766663 86.8833415,69.6833405 85.25,68.25 C83.6166585,66.8166595 82.300005,65.0166775 81.3,62.85 C80.299995,60.6833225 79.8,58.133348 79.8,55.2 L79.8,17.6 Z M90,55.2 C90,57.666679 90.6833265,59.4833275 92.05,60.65 C93.4166735,61.8166725 95.033324,62.4 96.9,62.4 C98.766676,62.4 100.383326,61.8166725 101.75,60.65 C103.116673,59.4833275 103.8,57.666679 103.8,55.2 L103.8,17.6 C103.8,15.133321 103.116673,13.3166725 101.75,12.15 C100.383326,10.9833275 98.766676,10.4 96.9,10.4 C95.033324,10.4 93.4166735,10.9833275 92.05,12.15 C90.6833265,13.3166725 90,15.133321 90,17.6 L90,55.2 Z M165.3,72 L155.7,72 L147.9,25.8 L147.7,25.8 L140,72 L130.4,72 L119.8,0.8 L130.6,0.8 L135.7,46 L135.9,46 L143.9,0.8 L151.7,0.8 L160,47.1 L160.2,47.1 L165.1,0.8 L175.9,0.8 L165.3,72 Z M200.9,0.8 L210.7,0.8 L223.8,38.5 L224,38.5 L237,0.8 L246.9,0.8 L246.9,72 L236.7,72 L236.7,28.7 L236.5,28.7 L226.4,59.3 L221.3,59.3 L211.3,28.7 L211.1,28.7 L211.1,72 L200.9,72 L200.9,0.8 Z M255.9,17.6 C255.9,14.733319 256.399995,12.200011 257.4,10 C258.400005,7.799989 259.716658,5.9833405 261.35,4.55 C262.983341,3.1166595 264.816656,2.033337 266.85,1.3 C268.883343,0.566663 270.933323,0.2 273,0.2 C275.066677,0.2 277.116656,0.566663 279.15,1.3 C281.183343,2.033337 283.016658,3.1166595 284.65,4.55 C286.283341,5.9833405 287.599995,7.799989 288.6,10 C289.600005,12.200011 290.1,14.733319 290.1,17.6 L290.1,55.2 C290.1,58.133348 289.600005,60.6833225 288.6,62.85 C287.599995,65.0166775 286.283341,66.8166595 284.65,68.25 C283.016658,69.6833405 281.183343,70.766663 279.15,71.5 C277.116656,72.233337 275.066677,72.6 273,72.6 C270.933323,72.6 268.883343,72.233337 266.85,71.5 C264.816656,70.766663 262.983341,69.6833405 261.35,68.25 C259.716658,66.8166595 258.400005,65.0166775 257.4,62.85 C256.399995,60.6833225 255.9,58.133348 255.9,55.2 L255.9,17.6 Z M266.1,55.2 C266.1,57.666679 266.783326,59.4833275 268.15,60.65 C269.516673,61.8166725 271.133324,62.4 273,62.4 C274.866676,62.4 276.483326,61.8166725 277.85,60.65 C279.216673,59.4833275 279.9,57.666679 279.9,55.2 L279.9,17.6 C279.9,15.133321 279.216673,13.3166725 277.85,12.15 C276.483326,10.9833275 274.866676,10.4 273,10.4 C271.133324,10.4 269.516673,10.9833275 268.15,12.15 C266.783326,13.3166725 266.1,15.133321 266.1,17.6 L266.1,55.2 Z M305.8,10.4 L294,10.4 L294,0.8 L327.8,0.8 L327.8,10.4 L316,10.4 L316,72 L305.8,72 L305.8,10.4 Z M332.6,0.8 L342.8,0.8 L342.8,72 L332.6,72 L332.6,0.8 Z M352.1,17.6 C352.1,14.733319 352.599995,12.200011 353.6,10 C354.600005,7.799989 355.916658,5.9833405 357.55,4.55 C359.183341,3.1166595 361.016656,2.033337 363.05,1.3 C365.083343,0.566663 367.133323,0.2 369.2,0.2 C371.266677,0.2 373.316656,0.566663 375.35,1.3 C377.383343,2.033337 379.216658,3.1166595 380.85,4.55 C382.483341,5.9833405 383.799995,7.799989 384.8,10 C385.800005,12.200011 386.3,14.733319 386.3,17.6 L386.3,55.2 C386.3,58.133348 385.800005,60.6833225 384.8,62.85 C383.799995,65.0166775 382.483341,66.8166595 380.85,68.25 C379.216658,69.6833405 377.383343,70.766663 375.35,71.5 C373.316656,72.233337 371.266677,72.6 369.2,72.6 C367.133323,72.6 365.083343,72.233337 363.05,71.5 C361.016656,70.766663 359.183341,69.6833405 357.55,68.25 C355.916658,66.8166595 354.600005,65.0166775 353.6,62.85 C352.599995,60.6833225 352.1,58.133348 352.1,55.2 L352.1,17.6 Z M362.3,55.2 C362.3,57.666679 362.983326,59.4833275 364.35,60.65 C365.716673,61.8166725 367.333324,62.4 369.2,62.4 C371.066676,62.4 372.683326,61.8166725 374.05,60.65 C375.416673,59.4833275 376.1,57.666679 376.1,55.2 L376.1,17.6 C376.1,15.133321 375.416673,13.3166725 374.05,12.15 C372.683326,10.9833275 371.066676,10.4 369.2,10.4 C367.333324,10.4 365.716673,10.9833275 364.35,12.15 C362.983326,13.3166725 362.3,15.133321 362.3,17.6 L362.3,55.2 Z M394.9,0.8 L404.7,0.8 L420.1,43.7 L420.3,43.7 L420.3,0.8 L430.5,0.8 L430.5,72 L420.9,72 L405.3,29.2 L405.1,29.2 L405.1,72 L394.9,72 L394.9,0.8 Z M2.8,95.8 L18.1,95.8 C20.900014,95.8 23.366656,96.166663 25.5,96.9 C27.633344,97.633337 29.566658,98.933324 31.3,100.8 C33.033342,102.666676 34.23333,104.849988 34.9,107.35 C35.56667,109.850013 35.9,113.233312 35.9,117.5 C35.9,120.633349 35.7166685,123.316656 35.35,125.55 C34.9833315,127.783345 34.200006,129.866657 33,131.8 C31.599993,134.133345 29.733345,135.949994 27.4,137.25 C25.066655,138.550007 22.000019,139.2 18.2,139.2 L13,139.2 L13,167 L2.8,167 L2.8,95.8 Z M13,129.6 L17.9,129.6 C19.966677,129.6 21.566661,129.300003 22.7,128.7 C23.833339,128.099997 24.666664,127.283339 25.2,126.25 C25.733336,125.216662 26.0499995,123.966674 26.15,122.5 C26.2500005,121.033326 26.3,119.400009 26.3,117.6 C26.3,115.933325 26.2500005,114.350008 26.15,112.85 C26.0499995,111.349993 25.7500025,110.050006 25.25,108.95 C24.7499975,107.849995 23.966672,106.983337 22.9,106.35 C21.833328,105.716664 20.30001,105.4 18.3,105.4 L13,105.4 L13,129.6 Z M43.5,95.8 L73.9,95.8 L73.9,105.4 L53.7,105.4 L53.7,126.3 L71.3,126.3 L71.3,135.9 L53.7,135.9 L53.7,156.8 L73.9,156.8 L73.9,167 L43.5,167 L43.5,95.8 Z M79.9,112.6 C79.9,109.733319 80.399995,107.200011 81.4,105 C82.400005,102.799989 83.7166585,100.983341 85.35,99.55 C86.9833415,98.1166595 88.8166565,97.033337 90.85,96.3 C92.8833435,95.566663 94.933323,95.2 97,95.2 C99.066677,95.2 101.116656,95.566663 103.15,96.3 C105.183343,97.033337 107.016658,98.1166595 108.65,99.55 C110.283341,100.983341 111.599995,102.799989 112.6,105 C113.600005,107.200011 114.1,109.733319 114.1,112.6 L114.1,150.2 C114.1,153.133348 113.600005,155.683323 112.6,157.85 C111.599995,160.016678 110.283341,161.81666 108.65,163.25 C107.016658,164.683341 105.183343,165.766663 103.15,166.5 C101.116656,167.233337 99.066677,167.6 97,167.6 C94.933323,167.6 92.8833435,167.233337 90.85,166.5 C88.8166565,165.766663 86.9833415,164.683341 85.35,163.25 C83.7166585,161.81666 82.400005,160.016678 81.4,157.85 C80.399995,155.683323 79.9,153.133348 79.9,150.2 L79.9,112.6 Z M90.1,150.2 C90.1,152.666679 90.7833265,154.483328 92.15,155.65 C93.5166735,156.816673 95.133324,157.4 97,157.4 C98.866676,157.4 100.483326,156.816673 101.85,155.65 C103.216673,154.483328 103.9,152.666679 103.9,150.2 L103.9,112.6 C103.9,110.133321 103.216673,108.316673 101.85,107.15 C100.483326,105.983328 98.866676,105.4 97,105.4 C95.133324,105.4 93.5166735,105.983328 92.15,107.15 C90.7833265,108.316673 90.1,110.133321 90.1,112.6 L90.1,150.2 Z M123.1,95.8 L138.4,95.8 C141.200014,95.8 143.666656,96.166663 145.8,96.9 C147.933344,97.633337 149.866658,98.933324 151.6,100.8 C153.333342,102.666676 154.53333,104.849988 155.2,107.35 C155.86667,109.850013 156.2,113.233312 156.2,117.5 C156.2,120.633349 156.016668,123.316656 155.65,125.55 C155.283331,127.783345 154.500006,129.866657 153.3,131.8 C151.899993,134.133345 150.033345,135.949994 147.7,137.25 C145.366655,138.550007 142.300019,139.2 138.5,139.2 L133.3,139.2 L133.3,167 L123.1,167 L123.1,95.8 Z M133.3,129.6 L138.2,129.6 C140.266677,129.6 141.866661,129.300003 143,128.7 C144.133339,128.099997 144.966664,127.283339 145.5,126.25 C146.033336,125.216662 146.349999,123.966674 146.45,122.5 C146.55,121.033326 146.6,119.400009 146.6,117.6 C146.6,115.933325 146.55,114.350008 146.45,112.85 C146.349999,111.349993 146.050002,110.050006 145.55,108.95 C145.049997,107.849995 144.266672,106.983337 143.2,106.35 C142.133328,105.716664 140.60001,105.4 138.6,105.4 L133.3,105.4 L133.3,129.6 Z M163.8,95.8 L174,95.8 L174,156.8 L194.2,156.8 L194.2,167 L163.8,167 L163.8,95.8 Z M200.8,95.8 L231.2,95.8 L231.2,105.4 L211,105.4 L211,126.3 L228.6,126.3 L228.6,135.9 L211,135.9 L211,156.8 L231.2,156.8 L231.2,167 L200.8,167 L200.8,95.8 Z" id="SLOW-MOTION-PEOPLE"></path>
            <polygon id="Rectangle-3" points="2 202 228 202 228 210 2 210"></polygon>
            <path d="M25.88,241.872 L57.296,241.872 L57.296,261.048 L25.88,261.048 L25.88,241.872 Z M51.244,256.56 L51.244,253.5 L32,253.5 L32,256.56 L51.244,256.56 Z M32,249.352 L51.244,249.352 L51.244,246.292 L32,246.292 L32,249.352 Z M10.24,240.444 L16.156,240.444 L16.156,303.004 L10.24,303.004 L10.24,240.444 Z M7.792,253.908 C7.65599932,260.572033 6.86267392,267.009302 5.412,273.22 L0.448,271.86 C1.98934104,265.966637 2.85066576,259.869365 3.032,253.568 L7.792,253.908 Z M20.508,251.256 C21.8226732,254.610683 22.9559952,258.395979 23.908,262.612 L19.284,263.836 C18.4679959,259.89198 17.4480061,256.174684 16.224,252.684 L20.508,251.256 Z M22.276,263.904 L61.172,263.904 L61.172,277.912 L22.276,277.912 L22.276,263.904 Z M55.732,273.696 L55.732,268.12 L49.544,268.12 L49.544,273.696 L55.732,273.696 Z M44.648,273.696 L44.648,268.12 L38.664,268.12 L38.664,273.696 L44.648,273.696 Z M33.7,273.696 L33.7,268.12 L27.512,268.12 L27.512,273.696 L33.7,273.696 Z M22.956,281.244 L59.064,281.244 L59.064,285.596 C56.1173186,288.996017 52.6040204,291.965321 48.524,294.504 C52.9666889,296.000007 58.0893043,297.223995 63.892,298.176 L60.424,303.208 C53.3972982,301.847993 47.3906916,300.012012 42.404,297.7 C36.9186392,300.057345 30.3907045,301.87066 22.82,303.14 L20.236,297.904 C26.2200299,297.133329 31.5013104,295.954675 36.08,294.368 C32.2266474,291.965321 29.0080129,289.268015 26.424,286.276 L22.956,286.276 L22.956,281.244 Z M32.952,286.276 C35.5360129,288.452011 38.5506494,290.333325 41.996,291.92 C45.2146828,290.333325 48.16132,288.452011 50.836,286.276 L32.952,286.276 Z M83.972,275.736 C83.972,274.557327 84.4026624,273.537338 85.264,272.676 C86.1253376,271.814662 87.1453274,271.384 88.324,271.384 C89.5026726,271.384 90.5226624,271.814662 91.384,272.676 C92.2453376,273.537338 92.676,274.557327 92.676,275.736 C92.676,276.914673 92.2453376,277.934662 91.384,278.796 C90.5226624,279.657338 89.5026726,280.088 88.324,280.088 C87.1453274,280.088 86.1253376,279.657338 85.264,278.796 C84.4026624,277.934662 83.972,276.914673 83.972,275.736 Z M131.708,240.376 C131.708,245.589359 131.549335,250.666642 131.232,255.608 C135.17602,273.650757 144.922589,287.454619 160.472,297.02 L156.188,302.664 C143.131935,293.959956 134.020026,282.309406 128.852,267.712 C124.363978,281.856071 114.980071,293.551954 100.7,302.8 L96.756,297.02 C115.116092,285.867944 124.567997,270.545431 125.112,251.052 L125.18,240.376 L131.708,240.376 Z M202.156,241.668 C201.475997,244.932016 200.728004,247.923986 199.912,250.644 L225.82,250.644 C225.82,274.036117 225.480003,288.451973 224.8,293.892 C223.983996,299.740029 220.153368,302.664 213.308,302.664 L208.208,302.392 L206.712,296.612 C209.114679,296.838668 210.995993,296.952 212.356,296.952 C216.118685,296.952 218.271997,294.98002 218.816,291.036 C219.224002,287.635983 219.495999,276.25743 219.632,256.9 L216.572,256.9 C215.030659,268.142723 213.013346,276.891969 210.52,283.148 C207.437318,290.220035 202.790698,296.657304 196.58,302.46 L192.568,297.36 C198.053361,292.418642 202.246652,286.774698 205.148,280.428 C207.686679,274.353303 209.545327,266.510715 210.724,256.9 L206.78,256.9 C203.969319,271.497406 198.846704,282.1053 191.412,288.724 L187.264,283.896 C193.973367,278.138638 198.574654,269.140061 201.068,256.9 L197.668,256.9 C195.854658,261.116021 193.860011,264.538654 191.684,267.168 L186.924,263.156 C191.230688,257.761306 194.267991,250.077383 196.036,240.104 L202.156,241.668 Z M172.644,260.164 C172.190664,262.929347 171.488005,266.079982 170.536,269.616 L164.892,268.052 C166.93201,260.843964 168.087999,253.296039 168.36,245.408 L174.072,245.816 C173.935999,248.581347 173.732001,251.278654 173.46,253.908 L176.996,253.908 L176.996,240.308 L183.252,240.308 L183.252,253.908 L188.216,253.908 L188.216,260.164 L183.252,260.164 L183.252,274.512 L187.944,272.268 L187.944,278.388 C185.858656,279.385338 184.294672,280.110664 183.252,280.564 L183.252,303.004 L176.996,303.004 L176.996,283.08 C174.094652,284.213339 170.830685,285.323995 167.204,286.412 L165.708,280.156 C169.78802,279.294662 173.550649,278.252006 176.996,277.028 L176.996,260.164 L172.644,260.164 Z" id="慢-·人物"></path>
            <path d="M8.22,356.22 C7.6,357.12 6.92,357.98 6.2,358.8 L5.78,357.36 C7.86,354.8 9.36,351.88 10.28,348.58 L11.58,349.18 C11.06,350.84 10.42,352.42 9.64,353.9 L9.64,367.02 L8.22,367.02 L8.22,356.22 Z M11.24,352.08 L16.54,352.08 L16.54,348.64 L17.96,348.64 L17.96,352.08 L23.42,352.08 L23.42,353.48 L19.34,353.48 C20.26,356.78 21.88,359.72 24.2,362.3 L23.26,363.48 C20.82,360.52 19.12,357.18 18.2,353.48 L17.96,353.48 L17.96,361.5 L21.06,361.5 L21.06,362.88 L17.96,362.88 L17.96,367 L16.54,367 L16.54,362.88 L13.48,362.88 L13.48,361.5 L16.54,361.5 L16.54,353.48 L16.3,353.48 C15.3,357.64 13.56,361.06 11.1,363.72 L10.36,362.48 C12.6,360.16 14.18,357.16 15.14,353.48 L11.24,353.48 L11.24,352.08 Z M31.8,350.34 L31.8,364.98 L30.46,364.98 L30.46,363.78 L28.06,363.78 L28.06,365.46 L26.66,365.46 L26.66,350.34 L31.8,350.34 Z M28.06,362.44 L30.46,362.44 L30.46,351.66 L28.06,351.66 L28.06,362.44 Z M39.02,357.72 L39.02,367.06 L37.6,367.06 L37.6,357.66 C36.68,360.74 35.16,363.28 33.04,365.28 L32.28,364.06 C34.28,362.36 35.74,360.18 36.64,357.54 L32.88,357.54 L32.88,356.18 L37.6,356.18 L37.6,352.86 L33.58,352.86 L33.58,351.5 L37.6,351.5 L37.6,348.62 L39.02,348.62 L39.02,351.5 L43.02,351.5 L43.02,352.86 L39.02,352.86 L39.02,356.18 L43.68,356.18 L43.68,357.54 L39.98,357.54 C40.82,359.96 42.28,362.12 44.36,364.02 L43.42,365.18 C41.34,362.94 39.86,360.44 39.02,357.72 Z M49.82,353.78 C49.02,355.6 48,357.12 46.76,358.36 L45.84,357.18 C47.72,355.22 49,352.56 49.66,349.22 L51.12,349.48 C50.9,350.52 50.64,351.48 50.34,352.38 L54.62,352.38 L54.62,348.82 L56.08,348.82 L56.08,352.38 L62.66,352.38 L62.66,353.78 L56.08,353.78 L56.08,358.4 L62.26,358.4 L62.26,359.8 L56.08,359.8 L56.08,364.88 L63.94,364.88 L63.94,366.32 L46.32,366.32 L46.32,364.88 L54.62,364.88 L54.62,359.8 L48.74,359.8 L48.74,358.4 L54.62,358.4 L54.62,353.78 L49.82,353.78 Z M71.16,354.48 L76.88,354.48 L76.88,351.34 C75.36,351.48 73.74,351.56 72.02,351.56 L71.58,350.26 C75.94,350.26 79.58,349.76 82.46,348.78 L83.16,350.02 C81.76,350.52 80.16,350.9 78.34,351.16 L78.34,354.48 L84.1,354.48 L84.1,355.86 L78.34,355.86 L78.34,358.96 L82.84,358.96 L82.84,366.98 L81.42,366.98 L81.42,365.92 L73.92,365.92 L73.92,367.02 L72.5,367.02 L72.5,358.96 L76.88,358.96 L76.88,355.86 L71.16,355.86 L71.16,354.48 Z M73.92,364.56 L81.42,364.56 L81.42,360.32 L73.92,360.32 L73.92,364.56 Z M67.54,348.94 C68.88,349.82 70.02,350.7 70.94,351.58 L69.96,352.56 C69.14,351.72 68,350.84 66.56,349.88 L67.54,348.94 Z M67.08,353.72 C68.44,354.7 69.6,355.68 70.52,356.68 L69.52,357.68 C68.68,356.74 67.54,355.74 66.08,354.7 L67.08,353.72 Z M69.44,359.04 L70.74,359.54 C69.86,362.1 68.9,364.52 67.86,366.76 L66.42,366.14 C67.58,363.82 68.6,361.46 69.44,359.04 Z M94.26,348.58 L95.74,348.58 L95.74,352.18 L102.92,352.18 L102.92,361.58 L101.48,361.58 L101.48,360.32 L95.74,360.32 L95.74,367.14 L94.26,367.14 L94.26,360.32 L88.54,360.32 L88.54,361.58 L87.1,361.58 L87.1,352.18 L94.26,352.18 L94.26,348.58 Z M88.54,358.92 L94.26,358.92 L94.26,353.58 L88.54,353.58 L88.54,358.92 Z M95.74,358.92 L101.48,358.92 L101.48,353.58 L95.74,353.58 L95.74,358.92 Z M113.08,352.12 L113.08,365.76 L111.68,365.76 L111.68,364.62 L108.04,364.62 L108.04,366.34 L106.64,366.34 L106.64,352.12 L108.5,352.12 C108.9,351 109.18,349.84 109.36,348.64 L110.8,348.84 C110.56,350.02 110.26,351.12 109.86,352.12 L113.08,352.12 Z M108.04,363.28 L111.68,363.28 L111.68,358.9 L108.04,358.9 L108.04,363.28 Z M108.04,357.6 L111.68,357.6 L111.68,353.48 L108.04,353.48 L108.04,357.6 Z M116.56,356.76 C118,358.42 119.08,359.88 119.84,361.12 L118.7,361.92 C117.88,360.6 116.78,359.12 115.4,357.48 L116.56,356.76 Z M123.42,352.14 C123.42,358.78 123.32,362.9 123.12,364.46 C122.92,365.98 122,366.76 120.32,366.76 C119.92,366.76 119.24,366.72 118.28,366.68 L117.94,365.36 C118.78,365.4 119.5,365.42 120.12,365.42 C121.06,365.42 121.6,364.9 121.76,363.88 C121.88,362.76 121.96,359.3 122,353.54 L116.5,353.54 C115.94,354.8 115.28,355.94 114.5,356.96 L113.64,355.82 C115.04,353.86 115.98,351.46 116.5,348.62 L117.92,348.8 C117.68,349.98 117.4,351.1 117.04,352.14 L123.42,352.14 Z M135,361.24 L135,362.64 L141.34,362.64 L141.34,361.24 L135,361.24 Z M141.34,360.12 L141.34,358.64 L135,358.64 L135,360.12 L141.34,360.12 Z M135,363.74 L135,366.96 L133.64,366.96 L133.64,357.44 L142.72,357.44 L142.72,365.22 C142.72,366.3 142.16,366.86 141.06,366.86 L139.5,366.86 L139.14,365.58 L140.64,365.66 C141.1,365.66 141.34,365.4 141.34,364.92 L141.34,363.74 L135,363.74 Z M137.52,348.66 L138.96,348.66 L138.96,349.94 L143.6,349.94 L143.6,351.12 L138.96,351.12 L138.96,352.5 L142.94,352.5 L142.94,353.66 L138.96,353.66 L138.96,355 L144.18,355 L144.18,356.2 L132.22,356.2 L132.22,355.82 L131.32,356.04 C131,354.78 130.58,353.56 130.08,352.4 L131.12,352.08 C131.52,352.98 131.9,354 132.22,355.14 L132.22,355 L137.52,355 L137.52,353.66 L133.5,353.66 L133.5,352.5 L137.52,352.5 L137.52,351.12 L132.82,351.12 L132.82,349.94 L137.52,349.94 L137.52,348.66 Z M126.4,352.52 L127.52,352.6 C127.48,354.62 127.24,356.52 126.84,358.32 L125.74,358.02 C126.14,356.28 126.36,354.44 126.4,352.52 Z M128.44,348.72 L129.84,348.72 L129.84,366.92 L128.44,366.92 L128.44,348.72 Z M155,353.12 L157.3,353.12 L157.3,351.54 L158.66,351.54 L158.66,353.12 L160.98,353.12 L160.98,354.3 L158.66,354.3 L158.66,356.18 L161.32,356.18 L161.32,357.38 L154.68,357.38 L154.68,356.18 L157.3,356.18 L157.3,354.3 L155,354.3 L155,353.12 Z M155.32,358.8 L160.64,358.8 L160.64,363.9 L155.32,363.9 L155.32,358.8 Z M159.4,362.72 L159.4,360 L156.56,360 L156.56,362.72 L159.4,362.72 Z M163.42,349.46 L163.42,365.12 C163.42,366.3 162.82,366.9 161.62,366.9 L159.7,366.9 L159.36,365.58 C160.02,365.62 160.64,365.64 161.2,365.64 C161.76,365.64 162.06,365.3 162.06,364.64 L162.06,350.76 L153.96,350.76 L153.96,360.42 C153.92,363.12 153.34,365.32 152.18,367 L151.12,366.02 C152.08,364.56 152.56,362.72 152.6,360.5 L152.6,349.46 L163.42,349.46 Z M148.28,348.9 C149.54,349.9 150.6,350.9 151.46,351.9 L150.48,352.9 C149.68,351.94 148.62,350.94 147.28,349.88 L148.28,348.9 Z M145.84,354.78 L150.02,354.78 L150.02,363.12 C150.5,362.68 151,362.22 151.52,361.7 L151.88,363.12 C150.9,364.12 149.86,365.02 148.74,365.82 L148.18,364.54 C148.46,364.3 148.62,364.04 148.62,363.72 L148.62,356.16 L145.84,356.16 L145.84,354.78 Z M168.72,362.62 C169.16,362.62 169.54,362.8 169.82,363.18 C170.08,363.54 170.22,364 170.22,364.58 C170.22,365.46 169.96,366.24 169.44,366.92 C168.92,367.56 168.22,368 167.38,368.22 L167.38,367.24 C167.9,367.06 168.32,366.76 168.64,366.36 C168.94,365.94 169.08,365.5 169.08,365.02 C169,365.06 168.84,365.1 168.64,365.1 C168.3,365.1 168.02,364.98 167.78,364.74 C167.54,364.5 167.42,364.2 167.42,363.86 C167.42,363.48 167.54,363.18 167.78,362.96 C168.02,362.72 168.32,362.62 168.72,362.62 Z M24.32,389.44 C24.14,391.48 23.86,392.82 23.48,393.44 C23.1,394.04 22.34,394.36 21.22,394.36 L16.04,394.36 C14.8,394.36 14.18,393.72 14.18,392.44 L14.18,383.7 L21.3,383.7 L21.3,379.04 L13.22,379.04 L13.22,377.64 L22.68,377.64 L22.68,385.08 L15.58,385.08 L15.58,391.92 C15.58,392.6 15.92,392.96 16.6,392.98 L20.96,392.98 C21.74,392.98 22.24,392.7 22.46,392.16 C22.66,391.62 22.8,390.56 22.9,388.96 L24.32,389.44 Z M8.24,376.86 C9.6,377.88 10.74,378.9 11.66,379.94 L10.68,380.94 C9.84,379.96 8.68,378.92 7.24,377.84 L8.24,376.86 Z M5.9,382.78 L10.22,382.78 L10.22,391.78 C11,391.18 11.84,390.46 12.72,389.66 L13.08,391.18 C11.8,392.34 10.42,393.36 8.98,394.28 L8.42,392.98 C8.7,392.74 8.84,392.46 8.84,392.14 L8.84,384.16 L5.9,384.16 L5.9,382.78 Z M28.44,377.42 L39.98,377.42 L39.98,383.92 L43.58,383.92 L43.58,385.22 L35.6,385.22 L35.6,387.5 C36.08,388.06 36.58,388.58 37.14,389.08 C38.56,388.28 39.8,387.14 40.84,385.66 L41.94,386.58 C40.82,388.02 39.56,389.12 38.12,389.88 C39.68,391.1 41.52,392.18 43.64,393.1 L42.92,394.38 C39.84,392.94 37.4,391.18 35.6,389.1 L35.6,393.22 C35.6,394.42 35.06,395.02 34.02,395.02 L31.72,395.02 L31.42,393.66 C32.16,393.72 32.86,393.76 33.54,393.76 C33.94,393.76 34.16,393.46 34.16,392.88 L34.16,389.22 C32.1,391.1 29.64,392.78 26.8,394.3 L26.22,392.96 C29.3,391.5 31.94,389.76 34.16,387.72 L34.16,385.22 L26.44,385.22 L26.44,383.92 L38.52,383.92 L38.52,381.98 L29.12,381.98 L29.12,380.72 L38.52,380.72 L38.52,378.72 L28.44,378.72 L28.44,377.42 Z M28.6,385.98 C29.82,386.82 30.84,387.68 31.66,388.52 L30.74,389.46 C29.98,388.66 28.96,387.8 27.64,386.9 L28.6,385.98 Z M46.92,378.68 L51.48,378.68 C51.2,378 50.88,377.38 50.52,376.82 L52.04,376.58 C52.36,377.2 52.66,377.9 52.96,378.68 L57.14,378.68 C57.48,377.98 57.74,377.26 57.9,376.54 L59.44,376.74 C59.24,377.42 58.98,378.06 58.64,378.68 L63.08,378.68 L63.08,380 L55.74,380 L55.74,381.9 L62.02,381.9 L62.02,383.18 L55.74,383.18 L55.74,385.12 L63.74,385.12 L63.74,386.44 L46.26,386.44 L46.26,385.12 L54.26,385.12 L54.26,383.18 L48.04,383.18 L48.04,381.9 L54.26,381.9 L54.26,380 L46.92,380 L46.92,378.68 Z M54.4,386.96 L55.88,387.12 C55.8,387.64 55.7,388.14 55.56,388.58 L63.3,388.58 L63.3,389.94 L56.3,389.94 C57.68,391.78 60.34,393.04 64.28,393.7 L63.52,395.06 C59.12,394.18 56.26,392.54 54.94,390.14 C54.5,390.98 53.92,391.7 53.24,392.34 C51.94,393.52 49.66,394.44 46.4,395.12 L45.8,393.72 C48.7,393.18 50.78,392.4 52.06,391.38 C52.58,390.96 53,390.48 53.34,389.94 L46.72,389.94 L46.72,388.58 L54,388.58 C54.18,388.06 54.32,387.52 54.4,386.96 Z M69.26,376.44 L70.68,376.56 C70.44,377.96 70.2,379.28 69.96,380.48 L73.42,380.48 L73.42,381.3 C73.24,384.46 72.58,387.22 71.46,389.56 C72.62,390.46 73.56,391.28 74.3,392 L73.32,393.14 C72.64,392.42 71.78,391.66 70.78,390.82 C69.78,392.48 68.5,393.9 66.96,395.08 L65.98,393.88 C67.5,392.78 68.72,391.46 69.66,389.9 C68.74,389.16 67.7,388.38 66.58,387.56 C67.2,385.8 67.74,383.9 68.22,381.86 L66.1,381.86 L66.1,380.48 L68.52,380.48 C68.8,379.16 69.04,377.82 69.26,376.44 Z M70.3,388.68 C71.26,386.7 71.82,384.42 72,381.86 L69.66,381.86 C69.18,383.98 68.68,385.74 68.16,387.14 C68.92,387.68 69.64,388.2 70.3,388.68 Z M74.1,385.06 L78.62,385.06 L78.62,382.54 C79.7,381.6 80.72,380.46 81.7,379.1 L74.68,379.1 L74.68,377.7 L83.34,377.7 L83.34,379.1 C82.38,380.48 81.28,381.78 80.08,382.98 L80.08,385.06 L84.16,385.06 L84.16,386.46 L80.08,386.46 L80.08,392.86 C80.08,394.14 79.54,394.78 78.5,394.78 L75.62,394.78 L75.24,393.42 C76.06,393.42 76.96,393.44 77.92,393.44 C78.38,393.44 78.62,393.1 78.62,392.42 L78.62,386.46 L74.1,386.46 L74.1,385.06 Z M86.08,377.96 L103.92,377.96 L103.92,379.34 L95.74,379.34 C95.5,380.36 95.18,381.34 94.76,382.26 L102.78,382.26 L102.78,392.78 C102.78,394.16 102.18,394.86 101,394.86 L99.16,394.86 L98.76,393.4 L100.5,393.46 C101.06,393.46 101.34,393.12 101.34,392.46 L101.34,383.64 L97.98,383.64 L97.98,394.28 L96.58,394.28 L96.58,383.64 L93.38,383.64 L93.38,394.28 L91.98,394.28 L91.98,383.64 L88.94,383.64 L88.94,394.88 L87.48,394.88 L87.48,382.26 L93.06,382.26 C93.5,381.34 93.82,380.36 94.04,379.34 L86.08,379.34 L86.08,377.96 Z M113.04,379.72 L116.6,379.72 L116.6,376.7 L118,376.7 L118,379.72 L122.26,379.72 L122.26,385.76 L123.82,385.76 L123.82,387.16 L118.36,387.16 C119.6,389.88 121.58,392.08 124.28,393.76 L123.3,394.88 C120.58,393.02 118.58,390.68 117.32,387.84 C116.42,391.04 114.64,393.38 111.98,394.9 L111.1,393.72 C113.66,392.36 115.34,390.18 116.1,387.16 L112.22,387.16 L112.22,385.76 L116.38,385.76 C116.52,384.84 116.6,383.84 116.6,382.8 L116.6,381.06 L113.04,381.06 L113.04,379.72 Z M118,381.06 L118,382.5 C118,383.66 117.92,384.74 117.76,385.76 L120.86,385.76 L120.86,381.06 L118,381.06 Z M106.52,380.52 L107.66,380.6 C107.6,382.6 107.36,384.52 106.94,386.32 L105.76,385.98 C106.2,384.26 106.46,382.44 106.52,380.52 Z M111.56,380.08 C112.12,381.36 112.6,382.82 113.04,384.48 L111.86,384.76 C111.5,383.26 111.04,381.82 110.48,380.42 L111.56,380.08 Z M108.66,376.72 L110.08,376.72 L110.08,394.92 L108.66,394.92 L108.66,376.72 Z M127.1,385.88 C127.74,382.94 128.22,380.34 128.5,378.08 C128.86,378.14 129.26,378.18 129.66,378.2 C134.4,378.18 138.24,377.7 141.18,376.78 L141.86,378 C138.78,378.88 134.72,379.34 129.68,379.42 C129.36,381.32 129.02,383 128.7,384.48 L134.42,384.48 L134.42,380.56 L135.9,380.56 L135.9,384.48 L143.2,384.48 L143.2,385.88 L135.9,385.88 L135.9,392.98 C135.9,394.26 135.26,394.92 134.02,394.92 L131.34,394.92 L131.04,393.5 C131.9,393.56 132.72,393.6 133.52,393.6 C134.12,393.6 134.42,393.26 134.42,392.62 L134.42,385.88 L127.1,385.88 Z M129.7,387.42 L130.96,388.04 C129.92,390.38 128.72,392.42 127.34,394.14 L126.1,393.26 C127.5,391.62 128.7,389.68 129.7,387.42 Z M139.9,387.3 C141.12,389.22 142.28,391.3 143.38,393.58 L142.04,394.26 C140.98,391.9 139.84,389.78 138.62,387.92 L139.9,387.3 Z M153.08,380.12 L153.08,393.76 L151.68,393.76 L151.68,392.62 L148.04,392.62 L148.04,394.34 L146.64,394.34 L146.64,380.12 L148.5,380.12 C148.9,379 149.18,377.84 149.36,376.64 L150.8,376.84 C150.56,378.02 150.26,379.12 149.86,380.12 L153.08,380.12 Z M148.04,391.28 L151.68,391.28 L151.68,386.9 L148.04,386.9 L148.04,391.28 Z M148.04,385.6 L151.68,385.6 L151.68,381.48 L148.04,381.48 L148.04,385.6 Z M156.56,384.76 C158,386.42 159.08,387.88 159.84,389.12 L158.7,389.92 C157.88,388.6 156.78,387.12 155.4,385.48 L156.56,384.76 Z M163.42,380.14 C163.42,386.78 163.32,390.9 163.12,392.46 C162.92,393.98 162,394.76 160.32,394.76 C159.92,394.76 159.24,394.72 158.28,394.68 L157.94,393.36 C158.78,393.4 159.5,393.42 160.12,393.42 C161.06,393.42 161.6,392.9 161.76,391.88 C161.88,390.76 161.96,387.3 162,381.54 L156.5,381.54 C155.94,382.8 155.28,383.94 154.5,384.96 L153.64,383.82 C155.04,381.86 155.98,379.46 156.5,376.62 L157.92,376.8 C157.68,377.98 157.4,379.1 157.04,380.14 L163.42,380.14 Z M180.72,384.42 L182,384.42 L182,385.92 L183.4,385.92 L183.4,387.2 L182,387.2 L182,390.52 L183.74,390.52 L183.74,391.72 L182,391.72 L182,394.9 L180.72,394.9 L180.72,391.72 L177.76,391.72 C178.02,390.36 178.22,389.14 178.36,388.1 L179.42,388.22 C179.3,389.08 179.2,389.84 179.08,390.52 L180.72,390.52 L180.72,387.2 L178,387.2 L178,385.92 L180.72,385.92 L180.72,384.42 Z M171.14,377.66 L171.14,392.6 L167.72,392.6 L167.72,394.14 L166.42,394.14 L166.42,377.66 L171.14,377.66 Z M167.72,391.34 L169.84,391.34 L169.84,387.98 L167.72,387.98 L167.72,391.34 Z M167.72,386.7 L169.84,386.7 L169.84,383.42 L167.72,383.42 L167.72,386.7 Z M167.72,382.14 L169.84,382.14 L169.84,378.94 L167.72,378.94 L167.72,382.14 Z M183.68,381.92 L183.68,385.08 L182.38,385.08 L182.38,383.16 L173.44,383.16 L173.44,385.16 L172.14,385.16 L172.14,381.92 L174.16,381.92 C173.92,381.16 173.64,380.48 173.32,379.84 L174.62,379.6 C174.88,380.28 175.14,381.06 175.4,381.92 L177.58,381.92 C177.34,381.08 177.06,380.32 176.74,379.64 L178.04,379.44 C178.3,380.16 178.56,381 178.8,381.92 L180.32,381.92 C180.76,381.02 181.1,380.08 181.32,379.08 L182.62,379.26 C182.38,380.22 182.04,381.12 181.58,381.92 L183.68,381.92 Z M182.8,376.82 L183.46,377.96 C180.74,378.6 177.12,378.94 172.62,378.94 L172.22,377.76 C176.46,377.76 180,377.44 182.8,376.82 Z M174.46,386.94 C173.9,388.42 173.16,389.62 172.24,390.58 L171.48,389.66 C172.76,388.3 173.62,386.46 174.08,384.16 L175.2,384.36 C175.1,384.86 174.98,385.34 174.86,385.78 L177.5,385.78 L177.5,386.86 C176.86,390.7 175.12,393.38 172.24,394.94 L171.62,393.84 C172.98,393.12 174.06,392.12 174.86,390.84 C174.46,390.4 174.02,390 173.52,389.68 L174.26,388.82 C174.66,389.06 175.06,389.38 175.44,389.78 C175.84,388.92 176.14,387.98 176.36,386.94 L174.46,386.94 Z M191.12,382.08 L198.72,382.08 L198.72,391.4 L191.12,391.4 L191.12,382.08 Z M197.38,390.12 L197.38,387.38 L192.48,387.38 L192.48,390.12 L197.38,390.12 Z M192.48,386.1 L197.38,386.1 L197.38,383.36 L192.48,383.36 L192.48,386.1 Z M200.96,394.84 L199.28,394.84 L198.92,393.5 L200.66,393.54 C201.26,393.54 201.58,393.12 201.58,392.32 L201.58,379 L193.82,379 L193.82,377.66 L202.98,377.66 L202.98,392.72 C202.98,394.12 202.3,394.84 200.96,394.84 Z M186.98,379.98 L188.38,379.98 L188.38,395.02 L186.98,395.02 L186.98,379.98 Z M189.88,376.48 C190.8,377.58 191.62,378.78 192.32,380.1 L191.04,380.78 C190.28,379.38 189.46,378.14 188.56,377.06 L189.88,376.48 Z" id="体味生活中的情调，-记录美好而快乐的瞬间"></path>
        </g>
    </g>
</svg>