<?xml version="1.0" encoding="UTF-8"?>
<svg width="203px" height="50px" viewBox="0 0 203 50" version="1.1" xmlns="http://www.w3.org/2000/svg" xmlns:xlink="http://www.w3.org/1999/xlink">
    <!-- Generator: Sketch 50.2 (55047) - http://www.bohemiancoding.com/sketch -->
    <title>Group 11</title>
    <desc>Created with Sketch.</desc>
    <defs></defs>
    <g id="Page-1" stroke="none" stroke-width="1" fill="none" fill-rule="evenodd">
        <g id="Group-11">
            <polygon id="Rectangle-4-Copy" fill="#35343D" points="0 0 203 0 183 50 0 50"></polygon>
            <path d="M25.728,16.808 L35.112,16.808 L35.112,12.464 L36.888,12.464 L36.888,16.808 L46.248,16.808 L46.248,18.464 L38.424,18.464 C40.032,22.28 42.912,25.688 47.04,28.688 L45.864,30.176 C41.64,26.72 38.712,22.808 37.08,18.464 L36.888,18.464 L36.888,27.824 L42.024,27.824 L42.024,29.48 L36.888,29.48 L36.888,34.4 L35.112,34.4 L35.112,29.48 L30.168,29.48 L30.168,27.824 L35.112,27.824 L35.112,18.464 L34.944,18.464 C33.168,23.336 30.144,27.344 25.872,30.488 L24.888,28.88 C28.92,26.192 31.8,22.712 33.576,18.464 L25.728,18.464 L25.728,16.808 Z M55.44,20.432 L55.44,21.872 C55.416,22.76 55.368,23.6 55.32,24.392 L66.48,24.392 L66.48,34.448 L64.752,34.448 L64.752,26.072 L55.104,26.072 C54.528,29.672 53.208,32.456 51.168,34.376 L49.848,33.224 C52.368,30.848 53.64,27.056 53.688,21.872 L53.688,13.064 L55.44,13.064 L55.44,18.776 L62.472,18.776 L62.472,12.392 L64.176,12.392 L64.176,18.776 L69.576,18.776 L69.576,20.432 L55.44,20.432 Z M90.552,12.392 L92.28,12.392 L92.28,34.424 L90.552,34.424 L90.552,12.392 Z M76.44,20.288 L75.6,24.272 L84.936,24.272 C84.936,28.232 84.768,30.848 84.432,32.096 C84.096,33.44 82.608,34.16 79.992,34.256 C79.248,34.256 78.504,34.208 77.736,34.16 L77.304,32.552 C78.072,32.6 78.84,32.648 79.608,32.648 C81.432,32.648 82.512,32.216 82.8,31.376 C83.064,30.488 83.208,28.64 83.208,25.832 L73.752,25.832 L75,18.68 L82.992,18.68 L82.992,14.936 L74.256,14.936 L74.256,13.352 L84.696,13.352 L84.696,20.288 L76.44,20.288 Z M101.112,20.768 L101.112,24.968 L107.208,24.968 L107.208,20.768 L101.112,20.768 Z M101.016,26.552 C100.752,29.624 99.864,32.168 98.328,34.184 L97.008,33.008 C98.544,30.872 99.336,28.16 99.384,24.872 L99.384,13.352 L117.264,13.352 L117.264,31.328 C117.264,33.008 116.424,33.848 114.744,33.848 L111.984,33.848 L111.528,32.144 C112.488,32.192 113.376,32.24 114.192,32.24 C115.056,32.24 115.512,31.736 115.512,30.728 L115.512,26.552 L108.984,26.552 L108.984,33.584 L107.208,33.584 L107.208,26.552 L101.016,26.552 Z M115.512,24.968 L115.512,20.768 L108.984,20.768 L108.984,24.968 L115.512,24.968 Z M115.512,19.16 L115.512,15.032 L108.984,15.032 L108.984,19.16 L115.512,19.16 Z M107.208,15.032 L101.112,15.032 L101.112,19.16 L107.208,19.16 L107.208,15.032 Z M122.712,14.024 L131.184,14.024 L131.184,12.344 L132.912,12.344 L132.912,14.024 L141.288,14.024 L141.288,15.44 L132.912,15.44 L132.912,17.072 L140.28,17.072 L140.28,18.44 L132.912,18.44 L132.912,20.072 L142.344,20.072 L142.344,21.536 L131.472,21.536 C130.056,22.64 128.64,23.528 127.2,24.2 C129.336,24.128 131.472,24.056 133.584,23.96 C134.592,23.408 135.6,22.832 136.584,22.232 L137.928,23.096 C134.448,25.112 130.944,26.648 127.44,27.752 C130.32,27.656 133.824,27.44 137.952,27.104 C137.4,26.528 136.824,25.952 136.2,25.376 L137.376,24.632 C139.224,26.336 140.64,27.824 141.6,29.096 L140.376,29.936 C139.944,29.36 139.488,28.808 139.008,28.256 C136.728,28.424 134.712,28.568 132.984,28.664 L132.984,32.504 C132.984,33.776 132.336,34.424 131.088,34.424 L128.808,34.424 L128.472,32.888 C129.192,32.936 129.864,32.984 130.536,32.984 C131.04,32.984 131.304,32.696 131.304,32.12 L131.304,28.76 C128.832,28.88 126.912,28.952 125.568,28.952 L123.552,29.024 L123.216,27.584 L124.152,27.68 C126.552,27.056 128.928,26.192 131.28,25.112 C129.264,25.184 127.128,25.256 124.872,25.352 L124.56,24.08 C124.896,24.032 125.232,23.96 125.544,23.816 C126.648,23.432 127.968,22.664 129.456,21.536 L121.68,21.536 L121.68,20.072 L131.184,20.072 L131.184,18.44 L123.72,18.44 L123.72,17.072 L131.184,17.072 L131.184,15.44 L122.712,15.44 L122.712,14.024 Z M128.112,29.6 L129.096,30.704 C127.224,32.048 124.896,33.152 122.112,34.04 L121.416,32.6 C124.128,31.832 126.36,30.848 128.112,29.6 Z M135.672,29.528 C138.168,30.44 140.472,31.52 142.56,32.792 L141.696,34.112 C139.464,32.696 137.184,31.568 134.832,30.752 L135.672,29.528 Z M161.376,18.8 L155.256,18.8 L155.256,17.144 L162.144,17.144 L162.144,12.392 L163.872,12.392 L163.872,17.144 L166.632,17.144 L166.632,18.8 L163.872,18.8 L163.872,31.904 C163.872,33.368 163.152,34.112 161.76,34.112 L159.144,34.112 L158.76,32.432 C159.6,32.48 160.416,32.528 161.184,32.528 C161.808,32.528 162.144,32.168 162.144,31.472 L162.144,20.192 C160.464,24.68 157.824,28.4 154.272,31.352 L153.36,29.792 C157.056,26.96 159.744,23.288 161.376,18.8 Z M145.392,17.096 L149.256,17.096 L149.256,12.416 L150.984,12.416 L150.984,17.096 L154.176,17.096 L154.176,18.752 L150.984,18.752 L150.984,20.168 C152.208,21.32 153.456,22.616 154.728,24.08 L153.72,25.568 C152.664,24.08 151.752,22.88 150.984,21.968 L150.984,34.304 L149.256,34.304 L149.256,21.728 C148.368,24.32 147.168,26.672 145.68,28.76 L144.912,26.816 C146.904,24.464 148.32,21.776 149.184,18.752 L145.392,18.752 L145.392,17.096 Z" id="本片引用素材-copy" fill="#FFFFFF"></path>
        </g>
    </g>
</svg>