<?xml version="1.0" encoding="UTF-8"?>
<svg width="203px" height="50px" viewBox="0 0 203 50" version="1.1" xmlns="http://www.w3.org/2000/svg" xmlns:xlink="http://www.w3.org/1999/xlink">
    <!-- Generator: Sketch 50.2 (55047) - http://www.bohemiancoding.com/sketch -->
    <title>Group 12</title>
    <desc>Created with Sketch.</desc>
    <defs></defs>
    <g id="Page-1" stroke="none" stroke-width="1" fill="none" fill-rule="evenodd">
        <g id="Group-12">
            <polygon id="Rectangle-4" fill="#35343D" transform="translate(101.500000, 25.000000) scale(-1, 1) translate(-101.500000, -25.000000) " points="0 0 203 0 183 50 0 50"></polygon>
            <path d="M37.728,16.808 L47.112,16.808 L47.112,12.464 L48.888,12.464 L48.888,16.808 L58.248,16.808 L58.248,18.464 L50.424,18.464 C52.032,22.28 54.912,25.688 59.04,28.688 L57.864,30.176 C53.64,26.72 50.712,22.808 49.08,18.464 L48.888,18.464 L48.888,27.824 L54.024,27.824 L54.024,29.48 L48.888,29.48 L48.888,34.4 L47.112,34.4 L47.112,29.48 L42.168,29.48 L42.168,27.824 L47.112,27.824 L47.112,18.464 L46.944,18.464 C45.168,23.336 42.144,27.344 37.872,30.488 L36.888,28.88 C40.92,26.192 43.8,22.712 45.576,18.464 L37.728,18.464 L37.728,16.808 Z M67.44,20.432 L67.44,21.872 C67.416,22.76 67.368,23.6 67.32,24.392 L78.48,24.392 L78.48,34.448 L76.752,34.448 L76.752,26.072 L67.104,26.072 C66.528,29.672 65.208,32.456 63.168,34.376 L61.848,33.224 C64.368,30.848 65.64,27.056 65.688,21.872 L65.688,13.064 L67.44,13.064 L67.44,18.776 L74.472,18.776 L74.472,12.392 L76.176,12.392 L76.176,18.776 L81.576,18.776 L81.576,20.432 L67.44,20.432 Z M102.552,12.392 L104.28,12.392 L104.28,34.424 L102.552,34.424 L102.552,12.392 Z M88.44,20.288 L87.6,24.272 L96.936,24.272 C96.936,28.232 96.768,30.848 96.432,32.096 C96.096,33.44 94.608,34.16 91.992,34.256 C91.248,34.256 90.504,34.208 89.736,34.16 L89.304,32.552 C90.072,32.6 90.84,32.648 91.608,32.648 C93.432,32.648 94.512,32.216 94.8,31.376 C95.064,30.488 95.208,28.64 95.208,25.832 L85.752,25.832 L87,18.68 L94.992,18.68 L94.992,14.936 L86.256,14.936 L86.256,13.352 L96.696,13.352 L96.696,20.288 L88.44,20.288 Z M113.112,20.768 L113.112,24.968 L119.208,24.968 L119.208,20.768 L113.112,20.768 Z M113.016,26.552 C112.752,29.624 111.864,32.168 110.328,34.184 L109.008,33.008 C110.544,30.872 111.336,28.16 111.384,24.872 L111.384,13.352 L129.264,13.352 L129.264,31.328 C129.264,33.008 128.424,33.848 126.744,33.848 L123.984,33.848 L123.528,32.144 C124.488,32.192 125.376,32.24 126.192,32.24 C127.056,32.24 127.512,31.736 127.512,30.728 L127.512,26.552 L120.984,26.552 L120.984,33.584 L119.208,33.584 L119.208,26.552 L113.016,26.552 Z M127.512,24.968 L127.512,20.768 L120.984,20.768 L120.984,24.968 L127.512,24.968 Z M127.512,19.16 L127.512,15.032 L120.984,15.032 L120.984,19.16 L127.512,19.16 Z M119.208,15.032 L113.112,15.032 L113.112,19.16 L119.208,19.16 L119.208,15.032 Z M134.712,14.024 L143.184,14.024 L143.184,12.344 L144.912,12.344 L144.912,14.024 L153.288,14.024 L153.288,15.44 L144.912,15.44 L144.912,17.072 L152.28,17.072 L152.28,18.44 L144.912,18.44 L144.912,20.072 L154.344,20.072 L154.344,21.536 L143.472,21.536 C142.056,22.64 140.64,23.528 139.2,24.2 C141.336,24.128 143.472,24.056 145.584,23.96 C146.592,23.408 147.6,22.832 148.584,22.232 L149.928,23.096 C146.448,25.112 142.944,26.648 139.44,27.752 C142.32,27.656 145.824,27.44 149.952,27.104 C149.4,26.528 148.824,25.952 148.2,25.376 L149.376,24.632 C151.224,26.336 152.64,27.824 153.6,29.096 L152.376,29.936 C151.944,29.36 151.488,28.808 151.008,28.256 C148.728,28.424 146.712,28.568 144.984,28.664 L144.984,32.504 C144.984,33.776 144.336,34.424 143.088,34.424 L140.808,34.424 L140.472,32.888 C141.192,32.936 141.864,32.984 142.536,32.984 C143.04,32.984 143.304,32.696 143.304,32.12 L143.304,28.76 C140.832,28.88 138.912,28.952 137.568,28.952 L135.552,29.024 L135.216,27.584 L136.152,27.68 C138.552,27.056 140.928,26.192 143.28,25.112 C141.264,25.184 139.128,25.256 136.872,25.352 L136.56,24.08 C136.896,24.032 137.232,23.96 137.544,23.816 C138.648,23.432 139.968,22.664 141.456,21.536 L133.68,21.536 L133.68,20.072 L143.184,20.072 L143.184,18.44 L135.72,18.44 L135.72,17.072 L143.184,17.072 L143.184,15.44 L134.712,15.44 L134.712,14.024 Z M140.112,29.6 L141.096,30.704 C139.224,32.048 136.896,33.152 134.112,34.04 L133.416,32.6 C136.128,31.832 138.36,30.848 140.112,29.6 Z M147.672,29.528 C150.168,30.44 152.472,31.52 154.56,32.792 L153.696,34.112 C151.464,32.696 149.184,31.568 146.832,30.752 L147.672,29.528 Z M173.376,18.8 L167.256,18.8 L167.256,17.144 L174.144,17.144 L174.144,12.392 L175.872,12.392 L175.872,17.144 L178.632,17.144 L178.632,18.8 L175.872,18.8 L175.872,31.904 C175.872,33.368 175.152,34.112 173.76,34.112 L171.144,34.112 L170.76,32.432 C171.6,32.48 172.416,32.528 173.184,32.528 C173.808,32.528 174.144,32.168 174.144,31.472 L174.144,20.192 C172.464,24.68 169.824,28.4 166.272,31.352 L165.36,29.792 C169.056,26.96 171.744,23.288 173.376,18.8 Z M157.392,17.096 L161.256,17.096 L161.256,12.416 L162.984,12.416 L162.984,17.096 L166.176,17.096 L166.176,18.752 L162.984,18.752 L162.984,20.168 C164.208,21.32 165.456,22.616 166.728,24.08 L165.72,25.568 C164.664,24.08 163.752,22.88 162.984,21.968 L162.984,34.304 L161.256,34.304 L161.256,21.728 C160.368,24.32 159.168,26.672 157.68,28.76 L156.912,26.816 C158.904,24.464 160.32,21.776 161.184,18.752 L157.392,18.752 L157.392,17.096 Z" id="本片引用素材" fill="#FFFFFF"></path>
        </g>
    </g>
</svg>