<?xml version="1.0" encoding="UTF-8"?>
<svg width="435px" height="397px" viewBox="0 0 435 397" version="1.1" xmlns="http://www.w3.org/2000/svg" xmlns:xlink="http://www.w3.org/1999/xlink">
    <!-- Generator: Sketch 50.2 (55047) - http://www.bohemiancoding.com/sketch -->
    <title>动物</title>
    <desc>Created with Sketch.</desc>
    <defs></defs>
    <g id="Page-1" stroke="none" stroke-width="1" fill="none" fill-rule="evenodd">
        <g id="Group-14" fill="#FFFFFF">
            <path d="M35.9,21.3 L25.7,21.3 L25.7,19 C25.7,16.666655 25.1500055,14.6500085 24.05,12.95 C22.9499945,11.2499915 21.100013,10.4 18.5,10.4 C17.099993,10.4 15.9500045,10.666664 15.05,11.2 C14.1499955,11.733336 13.4500025,12.4166625 12.95,13.25 C12.4499975,14.0833375 12.100001,15.0499945 11.9,16.15 C11.699999,17.2500055 11.6,18.399994 11.6,19.6 C11.6,21.000007 11.6499995,22.1833285 11.75,23.15 C11.8500005,24.1166715 12.099998,24.9499965 12.5,25.65 C12.900002,26.3500035 13.4833295,26.966664 14.25,27.5 C15.0166705,28.033336 16.06666,28.566664 17.4,29.1 L25.2,32.2 C27.466678,33.066671 29.299993,34.0833275 30.7,35.25 C32.100007,36.4166725 33.1833295,37.7833255 33.95,39.35 C34.7166705,40.9166745 35.233332,42.7166565 35.5,44.75 C35.766668,46.7833435 35.9,49.099987 35.9,51.7 C35.9,54.700015 35.600003,57.4833205 35,60.05 C34.399997,62.6166795 33.4166735,64.8166575 32.05,66.65 C30.6833265,68.4833425 28.866678,69.933328 26.6,71 C24.333322,72.066672 21.566683,72.6 18.3,72.6 C15.833321,72.6 13.533344,72.166671 11.4,71.3 C9.266656,70.433329 7.433341,69.2500075 5.9,67.75 C4.366659,66.2499925 3.1500045,64.466677 2.25,62.4 C1.3499955,60.333323 0.9,58.100012 0.9,55.7 L0.9,51.9 L11.1,51.9 L11.1,55.1 C11.1,56.966676 11.6499945,58.6499925 12.75,60.15 C13.8500055,61.6500075 15.699987,62.4 18.3,62.4 C20.033342,62.4 21.3833285,62.1500025 22.35,61.65 C23.3166715,61.1499975 24.0499975,60.4500045 24.55,59.55 C25.0500025,58.6499955 25.366666,57.53334 25.5,56.2 C25.633334,54.86666 25.7,53.400008 25.7,51.8 C25.7,49.933324 25.633334,48.400006 25.5,47.2 C25.366666,45.999994 25.0833355,45.033337 24.65,44.3 C24.2166645,43.566663 23.6166705,42.966669 22.85,42.5 C22.0833295,42.033331 21.066673,41.533336 19.8,41 L12.5,38 C8.099978,36.199991 5.1500075,33.8166815 3.65,30.85 C2.1499925,27.8833185 1.4,24.166689 1.4,19.7 C1.4,17.03332 1.766663,14.500012 2.5,12.1 C3.233337,9.699988 4.3166595,7.633342 5.75,5.9 C7.1833405,4.166658 8.999989,2.7833385 11.2,1.75 C13.400011,0.7166615 15.966652,0.2 18.9,0.2 C21.433346,0.2 23.7499895,0.666662 25.85,1.6 C27.9500105,2.533338 29.7499925,3.766659 31.25,5.3 C32.7500075,6.833341 33.899996,8.5499905 34.7,10.45 C35.500004,12.3500095 35.9,14.29999 35.9,16.3 L35.9,21.3 Z M43.5,0.8 L53.7,0.8 L53.7,61.8 L73.9,61.8 L73.9,72 L43.5,72 L43.5,0.8 Z M79.9,17.6 C79.9,14.733319 80.399995,12.200011 81.4,10 C82.400005,7.799989 83.7166585,5.9833405 85.35,4.55 C86.9833415,3.1166595 88.8166565,2.033337 90.85,1.3 C92.8833435,0.566663 94.933323,0.2 97,0.2 C99.066677,0.2 101.116656,0.566663 103.15,1.3 C105.183343,2.033337 107.016659,3.1166595 108.65,4.55 C110.283342,5.9833405 111.599995,7.799989 112.6,10 C113.600005,12.200011 114.1,14.733319 114.1,17.6 L114.1,55.2 C114.1,58.133348 113.600005,60.6833225 112.6,62.85 C111.599995,65.0166775 110.283342,66.8166595 108.65,68.25 C107.016659,69.6833405 105.183343,70.766663 103.15,71.5 C101.116656,72.233337 99.066677,72.6 97,72.6 C94.933323,72.6 92.8833435,72.233337 90.85,71.5 C88.8166565,70.766663 86.9833415,69.6833405 85.35,68.25 C83.7166585,66.8166595 82.400005,65.0166775 81.4,62.85 C80.399995,60.6833225 79.9,58.133348 79.9,55.2 L79.9,17.6 Z M90.1,55.2 C90.1,57.666679 90.7833265,59.4833275 92.15,60.65 C93.5166735,61.8166725 95.133324,62.4 97,62.4 C98.866676,62.4 100.483327,61.8166725 101.85,60.65 C103.216674,59.4833275 103.9,57.666679 103.9,55.2 L103.9,17.6 C103.9,15.133321 103.216674,13.3166725 101.85,12.15 C100.483327,10.9833275 98.866676,10.4 97,10.4 C95.133324,10.4 93.5166735,10.9833275 92.15,12.15 C90.7833265,13.3166725 90.1,15.133321 90.1,17.6 L90.1,55.2 Z M165.4,72 L155.8,72 L148,25.8 L147.8,25.8 L140.1,72 L130.5,72 L119.9,0.8 L130.7,0.8 L135.8,46 L136,46 L144,0.8 L151.8,0.8 L160.1,47.1 L160.3,47.1 L165.2,0.8 L176,0.8 L165.4,72 Z M201,0.8 L210.8,0.8 L223.9,38.5 L224.1,38.5 L237.1,0.8 L247,0.8 L247,72 L236.8,72 L236.8,28.7 L236.6,28.7 L226.5,59.3 L221.4,59.3 L211.4,28.7 L211.2,28.7 L211.2,72 L201,72 L201,0.8 Z M256,17.6 C256,14.733319 256.499995,12.200011 257.5,10 C258.500005,7.799989 259.816658,5.9833405 261.45,4.55 C263.083342,3.1166595 264.916657,2.033337 266.95,1.3 C268.983344,0.566663 271.033323,0.2 273.1,0.2 C275.166677,0.2 277.216656,0.566663 279.25,1.3 C281.283344,2.033337 283.116659,3.1166595 284.75,4.55 C286.383341,5.9833405 287.699995,7.799989 288.7,10 C289.700005,12.200011 290.2,14.733319 290.2,17.6 L290.2,55.2 C290.2,58.133348 289.700005,60.6833225 288.7,62.85 C287.699995,65.0166775 286.383341,66.8166595 284.75,68.25 C283.116659,69.6833405 281.283344,70.766663 279.25,71.5 C277.216656,72.233337 275.166677,72.6 273.1,72.6 C271.033323,72.6 268.983344,72.233337 266.95,71.5 C264.916657,70.766663 263.083342,69.6833405 261.45,68.25 C259.816658,66.8166595 258.500005,65.0166775 257.5,62.85 C256.499995,60.6833225 256,58.133348 256,55.2 L256,17.6 Z M266.2,55.2 C266.2,57.666679 266.883326,59.4833275 268.25,60.65 C269.616674,61.8166725 271.233324,62.4 273.1,62.4 C274.966676,62.4 276.583327,61.8166725 277.95,60.65 C279.316673,59.4833275 280,57.666679 280,55.2 L280,17.6 C280,15.133321 279.316673,13.3166725 277.95,12.15 C276.583327,10.9833275 274.966676,10.4 273.1,10.4 C271.233324,10.4 269.616674,10.9833275 268.25,12.15 C266.883326,13.3166725 266.2,15.133321 266.2,17.6 L266.2,55.2 Z M305.9,10.4 L294.1,10.4 L294.1,0.8 L327.9,0.8 L327.9,10.4 L316.1,10.4 L316.1,72 L305.9,72 L305.9,10.4 Z M332.7,0.8 L342.9,0.8 L342.9,72 L332.7,72 L332.7,0.8 Z M352.2,17.6 C352.2,14.733319 352.699995,12.200011 353.7,10 C354.700005,7.799989 356.016659,5.9833405 357.65,4.55 C359.283342,3.1166595 361.116656,2.033337 363.15,1.3 C365.183343,0.566663 367.233323,0.2 369.3,0.2 C371.366677,0.2 373.416657,0.566663 375.45,1.3 C377.483344,2.033337 379.316658,3.1166595 380.95,4.55 C382.583341,5.9833405 383.899995,7.799989 384.9,10 C385.900005,12.200011 386.4,14.733319 386.4,17.6 L386.4,55.2 C386.4,58.133348 385.900005,60.6833225 384.9,62.85 C383.899995,65.0166775 382.583341,66.8166595 380.95,68.25 C379.316658,69.6833405 377.483344,70.766663 375.45,71.5 C373.416657,72.233337 371.366677,72.6 369.3,72.6 C367.233323,72.6 365.183343,72.233337 363.15,71.5 C361.116656,70.766663 359.283342,69.6833405 357.65,68.25 C356.016659,66.8166595 354.700005,65.0166775 353.7,62.85 C352.699995,60.6833225 352.2,58.133348 352.2,55.2 L352.2,17.6 Z M362.4,55.2 C362.4,57.666679 363.083327,59.4833275 364.45,60.65 C365.816673,61.8166725 367.433324,62.4 369.3,62.4 C371.166676,62.4 372.783326,61.8166725 374.15,60.65 C375.516673,59.4833275 376.2,57.666679 376.2,55.2 L376.2,17.6 C376.2,15.133321 375.516673,13.3166725 374.15,12.15 C372.783326,10.9833275 371.166676,10.4 369.3,10.4 C367.433324,10.4 365.816673,10.9833275 364.45,12.15 C363.083327,13.3166725 362.4,15.133321 362.4,17.6 L362.4,55.2 Z M395,0.8 L404.8,0.8 L420.2,43.7 L420.4,43.7 L420.4,0.8 L430.6,0.8 L430.6,72 L421,72 L405.4,29.2 L405.2,29.2 L405.2,72 L395,72 L395,0.8 Z M216.6,116.3 L216.4,116.3 L211.4,142.1 L221.6,142.1 L216.6,116.3 Z M212.3,95.8 L220.8,95.8 L236.7,167 L226.5,167 L223.5,151.7 L209.6,151.7 L206.6,167 L196.4,167 L212.3,95.8 Z M241.3,95.8 L251.1,95.8 L266.5,138.7 L266.7,138.7 L266.7,95.8 L276.9,95.8 L276.9,167 L267.3,167 L251.7,124.2 L251.5,124.2 L251.5,167 L241.3,167 L241.3,95.8 Z M286.4,95.8 L296.6,95.8 L296.6,167 L286.4,167 L286.4,95.8 Z M306.5,95.8 L316.3,95.8 L329.4,133.5 L329.6,133.5 L342.6,95.8 L352.5,95.8 L352.5,167 L342.3,167 L342.3,123.7 L342.1,123.7 L332,154.3 L326.9,154.3 L316.9,123.7 L316.7,123.7 L316.7,167 L306.5,167 L306.5,95.8 Z M377.7,116.3 L377.5,116.3 L372.5,142.1 L382.7,142.1 L377.7,116.3 Z M373.4,95.8 L381.9,95.8 L397.8,167 L387.6,167 L384.6,151.7 L370.7,151.7 L367.7,167 L357.5,167 L373.4,95.8 Z M402.8,95.8 L413,95.8 L413,156.8 L433.2,156.8 L433.2,167 L402.8,167 L402.8,95.8 Z" id="SLOW-MOTION-ANIMAL"></path>
            <polygon id="Rectangle-3" points="209 202 435 202 435 210 209 210"></polygon>
            <path d="M230.628,242.552 L260.684,242.552 L260.684,260.708 L230.628,260.708 L230.628,242.552 Z M256.06,257.24 L256.06,253.228 L235.252,253.228 L235.252,257.24 L256.06,257.24 Z M235.252,249.964 L256.06,249.964 L256.06,246.02 L235.252,246.02 L235.252,249.964 Z M214.988,240.648 L219.408,240.648 L219.408,302.8 L214.988,302.8 L214.988,240.648 Z M207.644,253.568 L211.384,253.84 C211.248,260.572 210.364,266.964 208.868,273.084 L204.992,271.996 C206.556,266.148 207.44,260.028 207.644,253.568 Z M223.896,251.256 C225.12,254.588 226.276,258.464 227.296,262.816 L223.692,263.768 C222.876,259.824 221.788,256.016 220.564,252.412 L223.896,251.256 Z M226.888,264.38 L264.56,264.38 L264.56,277.64 L226.888,277.64 L226.888,264.38 Z M260.344,274.308 L260.344,267.712 L253,267.712 L253,274.308 L260.344,274.308 Z M249.192,274.308 L249.192,267.712 L242.12,267.712 L242.12,274.308 L249.192,274.308 Z M238.244,274.308 L238.244,267.712 L230.9,267.712 L230.9,274.308 L238.244,274.308 Z M227.16,281.788 L262.52,281.788 L262.52,285.188 C259.324,288.996 255.448,292.192 250.96,294.844 C255.72,296.68 261.228,298.108 267.416,299.196 L264.764,303.072 C257.624,301.644 251.504,299.672 246.404,297.224 C240.692,299.808 234.028,301.78 226.48,303.004 L224.44,298.924 C230.832,298.04 236.612,296.612 241.644,294.708 C237.292,292.124 233.756,289.064 230.968,285.664 L227.16,285.664 L227.16,281.788 Z M235.728,285.664 C238.516,288.384 241.984,290.696 246.132,292.736 C250.076,290.764 253.476,288.384 256.468,285.664 L235.728,285.664 Z M287.972,275.736 C287.972,274.557327 288.402662,273.537338 289.264,272.676 C290.125338,271.814662 291.145327,271.384 292.324,271.384 C293.502673,271.384 294.522662,271.814662 295.384,272.676 C296.245338,273.537338 296.676,274.557327 296.676,275.736 C296.676,276.914673 296.245338,277.934662 295.384,278.796 C294.522662,279.657338 293.502673,280.088 292.324,280.088 C291.145327,280.088 290.125338,279.657338 289.264,278.796 C288.402662,277.934662 287.972,276.914673 287.972,275.736 Z M304.768,245.204 L329.384,245.204 L329.384,249.896 L304.768,249.896 L304.768,245.204 Z M302.116,263.564 L331.968,263.564 L331.968,268.324 L316.26,268.324 C313.54,278.66 311.16,286.004 309.12,290.492 C314.492,289.404 319.864,287.84 325.168,285.868 C323.4,282.196 321.7,278.864 319.932,275.736 L324.08,273.696 C327.344,279.544 330.404,285.868 333.26,292.736 L329.044,294.912 C328.364,293.144 327.684,291.512 327.004,289.948 C319.796,292.532 311.908,294.572 303.476,296.068 L302.32,291.444 C302.796,291.308 303.136,291.172 303.408,291.036 C305.448,288.248 308.168,280.7 311.568,268.324 L302.116,268.324 L302.116,263.564 Z M342.168,240.648 L347.064,240.648 L347.064,254.384 L361.888,254.384 C361.888,275.668 361.548,288.792 360.936,293.824 C360.256,299.332 356.924,302.12 351.076,302.12 C349.92,302.12 347.948,302.052 345.092,301.916 L344.004,297.564 C346.452,297.7 348.628,297.836 350.464,297.836 C353.796,297.836 355.768,295.864 356.312,291.988 C356.72,288.384 356.992,277.436 357.128,259.144 L347.064,259.144 L347.064,259.96 C346.86,279.544 342.1,293.892 332.852,302.936 L329.18,299.74 C337.68,291.512 342.032,278.252 342.168,259.96 L342.168,259.144 L332.988,259.144 L332.988,254.384 L342.168,254.384 L342.168,240.648 Z M400.784,240.376 L405.408,241.6 C404.66,245.136 403.844,248.4 402.892,251.392 L429.276,251.392 C429.276,274.104 428.936,288.112 428.256,293.416 C427.508,299.4 423.836,302.392 417.24,302.392 C416.288,302.392 414.588,302.324 412.14,302.188 L410.984,297.768 C413.16,297.904 414.996,298.04 416.56,298.04 C420.708,298.04 423.088,295.864 423.7,291.512 C424.176,287.704 424.448,275.872 424.584,256.152 L419.96,256.152 C418.464,267.508 416.424,276.484 413.772,283.08 C410.644,290.152 406.02,296.544 399.832,302.188 L396.84,298.312 C402.552,293.144 406.768,287.432 409.624,281.176 C412.276,274.852 414.248,266.488 415.54,256.152 L410.236,256.152 C407.516,270.976 402.348,281.72 394.732,288.452 L391.536,284.78 C398.54,278.796 403.3,269.208 405.884,256.152 L401.192,256.152 C399.356,260.504 397.316,264.04 395.004,266.896 L391.4,263.836 C395.752,258.396 398.88,250.576 400.784,240.376 Z M376.168,259.416 C375.42,262.816 374.536,266.148 373.448,269.344 L369.164,268.12 C371.748,260.912 373.176,253.364 373.516,245.408 L377.8,245.748 C377.664,248.74 377.392,251.732 376.984,254.656 L381.744,254.656 L381.744,240.512 L386.504,240.512 L386.504,254.656 L392.216,254.656 L392.216,259.416 L386.504,259.416 L386.504,275.736 C388.408,274.852 390.176,273.968 391.944,273.016 L391.944,277.64 C390.176,278.592 388.34,279.476 386.504,280.36 L386.504,302.8 L381.744,302.8 L381.744,282.4 C378.276,283.76 374.74,285.052 371.068,286.208 L369.912,281.448 C373.992,280.496 377.936,279.272 381.744,277.776 L381.744,259.416 L376.168,259.416 Z" id="慢-·动物"></path>
            <path d="M282.34,351.06 L287.42,351.06 L287.42,348.68 L288.78,348.68 L288.78,351.06 L291.8,351.06 C291.42,350.5 290.92,349.88 290.28,349.2 L291.26,348.6 C291.96,349.3 292.5,349.92 292.86,350.46 L292.02,351.06 L294.12,351.06 L294.12,352.38 L288.78,352.38 L288.78,354.32 L293.32,354.32 L293.32,365.2 C293.32,366.32 292.78,366.88 291.72,366.88 L290.16,366.88 L289.78,365.56 L291.3,365.62 C291.74,365.62 291.98,365.38 291.98,364.9 L291.98,362.62 L288.78,362.62 L288.78,366.86 L287.42,366.86 L287.42,362.62 L284.32,362.62 L284.32,366.96 L282.98,366.96 L282.98,354.32 L287.42,354.32 L287.42,352.38 L282.34,352.38 L282.34,351.06 Z M287.42,355.62 L284.32,355.62 L284.32,357.84 L287.42,357.84 L287.42,355.62 Z M284.32,359.12 L284.32,361.34 L287.42,361.34 L287.42,359.12 L284.32,359.12 Z M291.98,361.34 L291.98,359.12 L288.78,359.12 L288.78,361.34 L291.98,361.34 Z M291.98,357.84 L291.98,355.62 L288.78,355.62 L288.78,357.84 L291.98,357.84 Z M278.3,366.82 L276.5,366.82 L276.2,365.42 C276.76,365.46 277.28,365.5 277.8,365.5 C278.3,365.5 278.56,365.24 278.56,364.74 L278.56,359.88 C277.76,360.16 276.98,360.44 276.18,360.68 L275.82,359.24 C276.74,359.02 277.66,358.76 278.56,358.46 L278.56,353.88 L276.12,353.88 L276.12,352.5 L278.56,352.5 L278.56,348.72 L280,348.72 L280,352.5 L282.02,352.5 L282.02,353.88 L280,353.88 L280,357.9 C280.7,357.6 281.4,357.26 282.1,356.9 L282.1,358.36 C281.42,358.7 280.72,359.02 280,359.32 L280,365.12 C280,366.24 279.42,366.82 278.3,366.82 Z M311.56,365.38 C312.68,365.38 313.58,365.36 314.22,365.32 L313.96,366.7 L312.1,366.7 C309.58,366.68 307.86,366.4 306.98,365.84 C305.86,365.22 305,364.18 304.36,362.72 C303.76,364.44 303,365.9 302.12,367.08 L301.2,365.94 C302.68,363.82 303.68,360.96 304.2,357.38 L305.58,357.62 C305.4,358.78 305.18,359.86 304.92,360.86 C305.18,361.78 305.56,362.58 306.04,363.26 C306.56,363.94 307.16,364.44 307.82,364.74 L307.82,355.8 L303.74,355.8 L303.74,349.5 L312.88,349.5 L312.88,355.8 L309.22,355.8 L309.22,359.1 L313.56,359.1 L313.56,360.42 L309.22,360.42 L309.22,365.16 C309.86,365.28 310.64,365.34 311.56,365.38 Z M298.5,366.78 L296.8,366.78 L296.5,365.42 C297.02,365.48 297.52,365.52 298.02,365.52 C298.54,365.52 298.8,365.24 298.8,364.7 L298.8,359.82 C298,360.14 297.18,360.44 296.38,360.7 L296.02,359.28 C296.98,359.04 297.9,358.76 298.8,358.42 L298.8,353.72 L296.36,353.72 L296.36,352.34 L298.8,352.34 L298.8,348.68 L300.18,348.68 L300.18,352.34 L302.26,352.34 L302.26,353.72 L300.18,353.72 L300.18,357.86 C300.94,357.5 301.66,357.12 302.38,356.72 L302.38,358.14 C301.66,358.54 300.92,358.9 300.18,359.24 L300.18,365.04 C300.18,366.2 299.62,366.78 298.5,366.78 Z M311.5,354.48 L311.5,350.82 L305.14,350.82 L305.14,354.48 L311.5,354.48 Z M316.36,350.2 L320.88,350.2 L320.88,348.7 L322.36,348.7 L322.36,350.2 L327.64,350.2 L327.64,348.7 L329.12,348.7 L329.12,350.2 L333.64,350.2 L333.64,351.48 L329.12,351.48 L329.12,353.06 L327.64,353.06 L327.64,351.48 L322.36,351.48 L322.36,353.06 L320.88,353.06 L320.88,351.48 L316.36,351.48 L316.36,350.2 Z M322.98,353.88 L322.98,364.44 L318.6,364.44 L318.6,365.64 L317.22,365.64 L317.22,353.88 L322.98,353.88 Z M318.6,363.1 L321.6,363.1 L321.6,359.76 L318.6,359.76 L318.6,363.1 Z M318.6,358.48 L321.6,358.48 L321.6,355.22 L318.6,355.22 L318.6,358.48 Z M326.32,358.6 L326.32,360.92 L331.32,360.92 L331.32,358.6 L326.32,358.6 Z M331.32,357.28 L331.32,355.1 L326.32,355.1 L326.32,357.28 L331.32,357.28 Z M326.22,362.22 C326,364.1 325.36,365.66 324.32,366.92 L323.22,365.94 C324.32,364.62 324.88,362.96 324.92,360.92 L324.92,353.74 L332.72,353.74 L332.72,365.44 C332.72,366.4 332.14,366.88 331,366.88 L328.9,366.88 L328.52,365.5 C329.26,365.54 329.94,365.58 330.56,365.58 C331.06,365.58 331.32,365.36 331.32,364.94 L331.32,362.22 L326.22,362.22 Z M336.8,350.06 L344.04,350.06 L344.04,351.44 L336.8,351.44 L336.8,350.06 Z M336.02,355.46 L344.8,355.46 L344.8,356.86 L340.18,356.86 C339.38,359.9 338.68,362.06 338.08,363.38 C339.66,363.06 341.24,362.6 342.8,362.02 C342.28,360.94 341.78,359.96 341.26,359.04 L342.48,358.44 C343.44,360.16 344.34,362.02 345.18,364.04 L343.94,364.68 C343.74,364.16 343.54,363.68 343.34,363.22 C341.22,363.98 338.9,364.58 336.42,365.02 L336.08,363.66 C336.22,363.62 336.32,363.58 336.4,363.54 C337,362.72 337.8,360.5 338.8,356.86 L336.02,356.86 L336.02,355.46 Z M347.8,348.72 L349.24,348.72 L349.24,352.76 L353.6,352.76 C353.6,359.02 353.5,362.88 353.32,364.36 C353.12,365.98 352.14,366.8 350.42,366.8 C350.08,366.8 349.5,366.78 348.66,366.74 L348.34,365.46 C349.06,365.5 349.7,365.54 350.24,365.54 C351.22,365.54 351.8,364.96 351.96,363.82 C352.08,362.76 352.16,359.54 352.2,354.16 L349.24,354.16 L349.24,354.4 C349.18,360.16 347.78,364.38 345.06,367.04 L343.98,366.1 C346.48,363.68 347.76,359.78 347.8,354.4 L347.8,354.16 L345.1,354.16 L345.1,352.76 L347.8,352.76 L347.8,348.72 Z M363.08,352.12 L363.08,365.76 L361.68,365.76 L361.68,364.62 L358.04,364.62 L358.04,366.34 L356.64,366.34 L356.64,352.12 L358.5,352.12 C358.9,351 359.18,349.84 359.36,348.64 L360.8,348.84 C360.56,350.02 360.26,351.12 359.86,352.12 L363.08,352.12 Z M358.04,363.28 L361.68,363.28 L361.68,358.9 L358.04,358.9 L358.04,363.28 Z M358.04,357.6 L361.68,357.6 L361.68,353.48 L358.04,353.48 L358.04,357.6 Z M366.56,356.76 C368,358.42 369.08,359.88 369.84,361.12 L368.7,361.92 C367.88,360.6 366.78,359.12 365.4,357.48 L366.56,356.76 Z M373.42,352.14 C373.42,358.78 373.32,362.9 373.12,364.46 C372.92,365.98 372,366.76 370.32,366.76 C369.92,366.76 369.24,366.72 368.28,366.68 L367.94,365.36 C368.78,365.4 369.5,365.42 370.12,365.42 C371.06,365.42 371.6,364.9 371.76,363.88 C371.88,362.76 371.96,359.3 372,353.54 L366.5,353.54 C365.94,354.8 365.28,355.94 364.5,356.96 L363.64,355.82 C365.04,353.86 365.98,351.46 366.5,348.62 L367.92,348.8 C367.68,349.98 367.4,351.1 367.04,352.14 L373.42,352.14 Z M379.82,353.78 C379.02,355.6 378,357.12 376.76,358.36 L375.84,357.18 C377.72,355.22 379,352.56 379.66,349.22 L381.12,349.48 C380.9,350.52 380.64,351.48 380.34,352.38 L384.62,352.38 L384.62,348.82 L386.08,348.82 L386.08,352.38 L392.66,352.38 L392.66,353.78 L386.08,353.78 L386.08,358.4 L392.26,358.4 L392.26,359.8 L386.08,359.8 L386.08,364.88 L393.94,364.88 L393.94,366.32 L376.32,366.32 L376.32,364.88 L384.62,364.88 L384.62,359.8 L378.74,359.8 L378.74,358.4 L384.62,358.4 L384.62,353.78 L379.82,353.78 Z M398.7,352.62 L410.1,352.62 L410.1,350.72 L398.16,350.72 L398.16,349.42 L411.54,349.42 L411.54,357.06 L397.84,357.06 L397.84,355.76 L410.1,355.76 L410.1,353.88 L398.7,353.88 L398.7,352.62 Z M400.16,358.54 L401.4,359.16 C400.7,360.64 399.88,361.92 398.96,363 L397.82,362.2 C398.74,361.18 399.52,359.96 400.16,358.54 Z M405.8,357.78 C405.8,358.58 405.74,359.32 405.64,359.98 C406.74,362.82 409.62,364.74 414.28,365.7 L413.7,367.02 C409.2,366 406.34,364.24 405.1,361.74 C403.94,364.18 401.24,365.94 397,367.04 L396.4,365.7 C400.66,364.7 403.2,362.98 404.04,360.56 C404.24,359.9 404.34,358.98 404.36,357.78 L405.8,357.78 Z M411.02,358.38 L412.28,358.98 C411.56,360.42 410.74,361.66 409.78,362.7 L408.62,361.88 C409.54,360.9 410.34,359.74 411.02,358.38 Z M418.72,362.62 C419.16,362.62 419.54,362.8 419.82,363.18 C420.08,363.54 420.22,364 420.22,364.58 C420.22,365.46 419.96,366.24 419.44,366.92 C418.92,367.56 418.22,368 417.38,368.22 L417.38,367.24 C417.9,367.06 418.32,366.76 418.64,366.36 C418.94,365.94 419.08,365.5 419.08,365.02 C419,365.06 418.84,365.1 418.64,365.1 C418.3,365.1 418.02,364.98 417.78,364.74 C417.54,364.5 417.42,364.2 417.42,363.86 C417.42,363.48 417.54,363.18 417.78,362.96 C418.02,362.72 418.32,362.62 418.72,362.62 Z M119.94,381.38 L126.52,381.38 L126.52,382.56 L119.94,382.56 L119.94,381.38 Z M120.48,383.84 L126.06,383.84 L126.06,387.92 L120.48,387.92 L120.48,383.84 Z M124.72,386.8 L124.72,384.96 L121.84,384.96 L121.84,386.8 L124.72,386.8 Z M133.28,378.46 L133.28,379.78 L128.56,379.78 C128.64,381.18 128.8,382.34 129.04,383.24 C129.18,383.86 129.34,384.42 129.54,384.92 C130.26,383.76 130.88,382.42 131.36,380.86 L132.48,381.44 C131.86,383.4 131.1,385 130.18,386.28 L130.36,386.56 C130.88,387.26 131.36,387.62 131.8,387.62 C132.16,387.62 132.54,386.78 132.94,385.12 L134.1,385.8 C133.5,387.9 132.78,388.96 131.94,388.96 C131.14,388.96 130.38,388.54 129.64,387.74 C129.52,387.6 129.4,387.46 129.32,387.34 C128.66,388.04 127.96,388.6 127.24,389.04 L126.5,387.92 C127.28,387.46 128,386.86 128.64,386.14 C128.32,385.5 128.04,384.76 127.8,383.94 C127.48,382.82 127.28,381.44 127.18,379.78 L119.02,379.78 L119.02,382.4 C118.96,385.04 118.28,387.18 117,388.8 L115.92,387.82 C117,386.52 117.56,384.72 117.62,382.4 L117.62,378.46 L127.12,378.46 C127.08,377.86 127.08,377.22 127.08,376.58 L128.46,376.58 C128.46,377.24 128.46,377.86 128.5,378.46 L130.68,378.46 C130.48,377.9 130.26,377.38 130.02,376.9 L131.3,376.68 C131.52,377.2 131.74,377.8 131.94,378.46 L133.28,378.46 Z M118.24,389.18 L119.56,389.46 C119,391.34 118.24,392.96 117.24,394.34 L116.02,393.56 C117.02,392.24 117.76,390.78 118.24,389.18 Z M127.62,394.68 L122.66,394.68 C121.48,394.68 120.9,394.04 120.9,392.78 L120.9,388.96 L122.36,388.96 L122.36,392.48 C122.36,393.04 122.6,393.32 123.1,393.32 L127.36,393.32 C127.76,393.32 128.06,393.22 128.24,393.02 C128.44,392.78 128.6,392.1 128.68,390.94 L130.04,391.4 C129.92,392.96 129.66,393.9 129.26,394.26 C128.9,394.54 128.36,394.68 127.62,394.68 Z M131.4,389.6 C132.6,390.92 133.5,392.08 134.12,393.08 L132.98,393.9 C132.3,392.82 131.4,391.62 130.24,390.32 L131.4,389.6 Z M125,388.62 C125.94,389.62 126.66,390.52 127.16,391.28 L126.08,392.04 C125.56,391.2 124.84,390.28 123.92,389.28 L125,388.62 Z M152.14,376.82 L152.84,378.04 C148.96,378.64 143.8,378.96 137.38,378.96 L136.96,377.66 C143.06,377.66 148.12,377.38 152.14,376.82 Z M153.36,382.82 L153.36,387.38 L151.96,387.38 L151.96,384.18 L138.04,384.18 L138.04,387.38 L136.64,387.38 L136.64,382.82 L148.02,382.82 C148.82,381.66 149.5,380.4 150.06,379.08 L151.5,379.62 C150.86,380.9 150.22,381.96 149.56,382.82 L153.36,382.82 Z M139.46,379.46 C140.16,380.28 140.82,381.18 141.42,382.16 L140.18,382.78 C139.56,381.78 138.9,380.88 138.2,380.1 L139.46,379.46 Z M144.22,379.24 C144.86,380.06 145.5,380.96 146.1,381.96 L144.82,382.62 C144.22,381.58 143.6,380.66 142.92,379.86 L144.22,379.24 Z M139.08,386.14 L150.8,386.14 L150.8,387.38 C149.92,388.98 148.54,390.38 146.66,391.54 C148.64,392.44 151.06,393.18 153.92,393.76 L153.08,395.04 C149.92,394.34 147.3,393.44 145.22,392.36 C142.98,393.48 140.22,394.38 136.92,395.06 L136.16,393.7 C139.18,393.14 141.72,392.42 143.78,391.52 C141.96,390.36 140.66,389 139.88,387.46 L139.08,387.46 L139.08,386.14 Z M141.36,387.46 C142.18,388.74 143.46,389.86 145.2,390.82 C146.96,389.86 148.28,388.74 149.2,387.46 L141.36,387.46 Z M159.82,381.78 C159.02,383.6 158,385.12 156.76,386.36 L155.84,385.18 C157.72,383.22 159,380.56 159.66,377.22 L161.12,377.48 C160.9,378.52 160.64,379.48 160.34,380.38 L164.62,380.38 L164.62,376.82 L166.08,376.82 L166.08,380.38 L172.66,380.38 L172.66,381.78 L166.08,381.78 L166.08,386.4 L172.26,386.4 L172.26,387.8 L166.08,387.8 L166.08,392.88 L173.94,392.88 L173.94,394.32 L156.32,394.32 L156.32,392.88 L164.62,392.88 L164.62,387.8 L158.74,387.8 L158.74,386.4 L164.62,386.4 L164.62,381.78 L159.82,381.78 Z M183.98,385.2 L183.98,392.8 L182.6,392.8 L182.6,391.74 L179.32,391.74 L179.32,393.16 L177.94,393.16 L177.94,385.2 L183.98,385.2 Z M179.32,390.42 L182.6,390.42 L182.6,386.52 L179.32,386.52 L179.32,390.42 Z M184.48,376.62 L185.56,376.62 C187.66,379.04 190.52,381.04 194.12,382.62 L193.32,383.84 C189.72,382.22 186.96,380.24 185.02,377.92 C183,380.22 180.22,382.2 176.66,383.84 L175.88,382.62 C179.62,380.9 182.48,378.9 184.48,376.62 Z M180.84,381.72 L189.16,381.72 L189.16,383.04 L180.84,383.04 L180.84,381.72 Z M190.34,392.88 L188.68,392.88 L188.32,391.54 L189.9,391.6 C190.48,391.6 190.78,391.3 190.78,390.74 L190.78,386.5 L187.28,386.5 L187.28,395.16 L185.86,395.16 L185.86,385.18 L192.16,385.18 L192.16,391.06 C192.16,392.26 191.54,392.88 190.34,392.88 Z M203.08,380.12 L203.08,393.76 L201.68,393.76 L201.68,392.62 L198.04,392.62 L198.04,394.34 L196.64,394.34 L196.64,380.12 L198.5,380.12 C198.9,379 199.18,377.84 199.36,376.64 L200.8,376.84 C200.56,378.02 200.26,379.12 199.86,380.12 L203.08,380.12 Z M198.04,391.28 L201.68,391.28 L201.68,386.9 L198.04,386.9 L198.04,391.28 Z M198.04,385.6 L201.68,385.6 L201.68,381.48 L198.04,381.48 L198.04,385.6 Z M206.56,384.76 C208,386.42 209.08,387.88 209.84,389.12 L208.7,389.92 C207.88,388.6 206.78,387.12 205.4,385.48 L206.56,384.76 Z M213.42,380.14 C213.42,386.78 213.32,390.9 213.12,392.46 C212.92,393.98 212,394.76 210.32,394.76 C209.92,394.76 209.24,394.72 208.28,394.68 L207.94,393.36 C208.78,393.4 209.5,393.42 210.12,393.42 C211.06,393.42 211.6,392.9 211.76,391.88 C211.88,390.76 211.96,387.3 212,381.54 L206.5,381.54 C205.94,382.8 205.28,383.94 204.5,384.96 L203.64,383.82 C205.04,381.86 205.98,379.46 206.5,376.62 L207.92,376.8 C207.68,377.98 207.4,379.1 207.04,380.14 L213.42,380.14 Z M221.16,382.48 L226.88,382.48 L226.88,379.34 C225.36,379.48 223.74,379.56 222.02,379.56 L221.58,378.26 C225.94,378.26 229.58,377.76 232.46,376.78 L233.16,378.02 C231.76,378.52 230.16,378.9 228.34,379.16 L228.34,382.48 L234.1,382.48 L234.1,383.86 L228.34,383.86 L228.34,386.96 L232.84,386.96 L232.84,394.98 L231.42,394.98 L231.42,393.92 L223.92,393.92 L223.92,395.02 L222.5,395.02 L222.5,386.96 L226.88,386.96 L226.88,383.86 L221.16,383.86 L221.16,382.48 Z M223.92,392.56 L231.42,392.56 L231.42,388.32 L223.92,388.32 L223.92,392.56 Z M217.54,376.94 C218.88,377.82 220.02,378.7 220.94,379.58 L219.96,380.56 C219.14,379.72 218,378.84 216.56,377.88 L217.54,376.94 Z M217.08,381.72 C218.44,382.7 219.6,383.68 220.52,384.68 L219.52,385.68 C218.68,384.74 217.54,383.74 216.08,382.7 L217.08,381.72 Z M219.44,387.04 L220.74,387.54 C219.86,390.1 218.9,392.52 217.86,394.76 L216.42,394.14 C217.58,391.82 218.6,389.46 219.44,387.04 Z M243.34,376.72 L244.82,376.72 L244.82,378.72 C244.8,379.42 244.78,380.1 244.74,380.76 L252.4,380.76 C252.32,384.2 252.2,387 252,389.14 C251.8,391.24 251.46,392.72 250.98,393.56 C250.5,394.36 249.74,394.78 248.7,394.86 L246.08,394.86 L245.68,393.46 C246.48,393.5 247.26,393.52 247.98,393.52 C249.12,393.52 249.86,392.82 250.22,391.44 C250.58,389.98 250.82,386.88 250.94,382.16 L244.62,382.16 C244.32,385 243.74,387.36 242.88,389.28 C241.68,391.72 239.76,393.62 237.08,394.98 L236.3,393.76 C238.92,392.36 240.76,390.48 241.8,388.16 C242.46,386.5 242.9,384.5 243.14,382.16 L237.32,382.16 L237.32,380.76 L243.26,380.76 C243.3,380.08 243.32,379.4 243.34,378.72 L243.34,376.72 Z M258.72,390.62 C259.16,390.62 259.54,390.8 259.82,391.18 C260.08,391.54 260.22,392 260.22,392.58 C260.22,393.46 259.96,394.24 259.44,394.92 C258.92,395.56 258.22,396 257.38,396.22 L257.38,395.24 C257.9,395.06 258.32,394.76 258.64,394.36 C258.94,393.94 259.08,393.5 259.08,393.02 C259,393.06 258.84,393.1 258.64,393.1 C258.3,393.1 258.02,392.98 257.78,392.74 C257.54,392.5 257.42,392.2 257.42,391.86 C257.42,391.48 257.54,391.18 257.78,390.96 C258.02,390.72 258.32,390.62 258.72,390.62 Z M279.14,382.6 L290.9,382.6 L290.9,383.96 L285.82,383.96 L285.82,387.48 L291.78,387.48 L291.78,388.84 L285.82,388.84 L285.82,392.98 C287.22,393.18 288.9,393.3 290.9,393.32 C291.92,393.32 292.96,393.28 294.04,393.2 L293.78,394.64 L291.54,394.64 C287.5,394.64 284.62,394.26 282.86,393.52 C281.54,392.9 280.46,391.94 279.64,390.64 C278.86,392.36 277.9,393.8 276.76,394.96 L275.84,393.82 C277.76,391.78 279.04,389.04 279.72,385.6 L281.12,385.84 C280.88,387.08 280.56,388.22 280.2,389.26 C281.16,390.98 282.36,392.06 283.8,392.52 C283.98,392.58 284.18,392.64 284.38,392.68 L284.38,383.96 L279.14,383.96 L279.14,382.6 Z M293.18,378.7 L293.18,382.96 L291.78,382.96 L291.78,380.02 L278.22,380.02 L278.22,383.06 L276.82,383.06 L276.82,378.7 L284.46,378.7 C284.16,377.98 283.82,377.32 283.46,376.72 L285,376.48 C285.32,377.14 285.64,377.88 285.92,378.7 L293.18,378.7 Z M300.2,384.66 L300.2,394.92 L298.78,394.92 L298.78,384.88 C298.16,386.78 297.34,388.52 296.34,390.08 L295.72,388.52 C297.12,386.6 298.14,384.42 298.76,381.96 L296.12,381.96 L296.12,380.58 L298.78,380.58 L298.78,376.68 L300.2,376.68 L300.2,380.58 L302.38,380.58 L302.38,381.96 L300.2,381.96 L300.2,383.04 C301.04,384 301.9,385.06 302.76,386.24 L302.74,386.26 C304.5,385.54 306.04,384.72 307.32,383.78 C306.46,382.96 305.74,382.12 305.18,381.24 C304.66,381.92 304.1,382.56 303.52,383.14 L302.6,382.04 C304.06,380.66 305.24,378.86 306.16,376.64 L307.54,376.94 C307.34,377.46 307.12,377.96 306.88,378.44 L312.52,378.44 L312.52,379.56 C311.8,381.16 310.74,382.58 309.38,383.84 C310.72,384.78 312.34,385.6 314.22,386.3 L313.58,387.64 C311.5,386.76 309.78,385.78 308.38,384.68 C306.86,385.86 305,386.86 302.82,387.7 L302.28,386.98 L301.98,387.44 C301.28,386.28 300.68,385.36 300.2,384.66 Z M312.48,387.5 L312.48,394.96 L311.08,394.96 L311.08,394.08 L305.42,394.08 L305.42,394.96 L304.02,394.96 L304.02,387.5 L312.48,387.5 Z M305.42,392.74 L311.08,392.74 L311.08,388.84 L305.42,388.84 L305.42,392.74 Z M308.3,383 C309.4,382.04 310.28,380.98 310.94,379.82 L306.12,379.82 C306.04,379.94 305.98,380.08 305.9,380.2 C306.52,381.22 307.32,382.16 308.3,383 Z M326.18,380.18 L329.02,380.18 L329.02,376.74 L330.36,376.74 L330.36,380.18 L333.26,380.18 L333.26,388.18 L330.36,388.18 L330.36,392.64 C331.02,392.5 331.66,392.36 332.28,392.22 C332.04,391.38 331.8,390.58 331.52,389.8 L332.64,389.44 C333.2,390.92 333.7,392.6 334.14,394.52 L332.9,394.82 C332.8,394.34 332.7,393.86 332.6,393.42 C330.6,393.92 328.48,394.34 326.24,394.66 L325.9,393.32 C326.98,393.2 328.02,393.04 329.02,392.88 L329.02,388.18 L326.18,388.18 L326.18,380.18 Z M332.02,386.9 L332.02,381.46 L330.3,381.46 L330.3,386.9 L332.02,386.9 Z M329.1,386.9 L329.1,381.46 L327.42,381.46 L327.42,386.9 L329.1,386.9 Z M316.12,377.46 L325.62,377.46 L325.62,378.76 L316.12,378.76 L316.12,377.46 Z M317.26,380.04 L324.44,380.04 L324.44,384.34 L317.26,384.34 L317.26,380.04 Z M323.16,383.2 L323.16,381.16 L318.54,381.16 L318.54,383.2 L323.16,383.2 Z M318.4,390.04 L321.02,390.04 C321.4,389.2 321.72,388.3 322,387.36 L323,387.7 C322.72,388.58 322.4,389.36 322.08,390.04 L323.3,390.04 L323.3,391.16 L321.38,391.16 L321.38,394.76 L320.22,394.76 L320.22,391.16 L318.4,391.16 L318.4,390.04 Z M319.6,387.52 C319.92,388.14 320.2,388.86 320.44,389.7 L319.52,389.94 C319.28,389.2 319,388.5 318.66,387.82 L319.6,387.52 Z M323.84,394.86 L322.36,394.86 L322,393.58 L323.4,393.64 C323.78,393.64 323.98,393.48 323.98,393.16 L323.98,386.74 L317.72,386.74 L317.72,395 L316.46,395 L316.46,385.54 L325.24,385.54 L325.24,393.44 C325.24,394.38 324.76,394.86 323.84,394.86 Z M341.94,376.52 L343.28,377.14 C342.58,378.82 341.68,380.38 340.6,381.86 L340.6,395.04 L339.16,395.04 L339.16,383.62 C338.26,384.6 337.28,385.54 336.22,386.42 L335.76,384.92 C338.6,382.48 340.66,379.68 341.94,376.52 Z M351.16,394.68 L347.34,394.68 C345.94,394.68 345.24,393.96 345.24,392.56 L345.24,386.46 C344.4,386.94 343.54,387.38 342.66,387.8 L342.02,386.44 C343.14,385.92 344.22,385.38 345.24,384.78 L345.24,376.76 L346.68,376.76 L346.68,383.9 C348.78,382.5 350.62,380.9 352.2,379.12 L353.2,380.26 C351.34,382.26 349.16,384.04 346.68,385.6 L346.68,392.36 C346.68,392.98 347,393.3 347.68,393.3 L350.92,393.3 C351.44,393.3 351.84,393.12 352.08,392.8 C352.3,392.48 352.44,391.32 352.52,389.34 L353.86,389.78 C353.72,392.08 353.48,393.48 353.14,393.96 C352.78,394.44 352.12,394.68 351.16,394.68 Z M363.08,380.12 L363.08,393.76 L361.68,393.76 L361.68,392.62 L358.04,392.62 L358.04,394.34 L356.64,394.34 L356.64,380.12 L358.5,380.12 C358.9,379 359.18,377.84 359.36,376.64 L360.8,376.84 C360.56,378.02 360.26,379.12 359.86,380.12 L363.08,380.12 Z M358.04,391.28 L361.68,391.28 L361.68,386.9 L358.04,386.9 L358.04,391.28 Z M358.04,385.6 L361.68,385.6 L361.68,381.48 L358.04,381.48 L358.04,385.6 Z M366.56,384.76 C368,386.42 369.08,387.88 369.84,389.12 L368.7,389.92 C367.88,388.6 366.78,387.12 365.4,385.48 L366.56,384.76 Z M373.42,380.14 C373.42,386.78 373.32,390.9 373.12,392.46 C372.92,393.98 372,394.76 370.32,394.76 C369.92,394.76 369.24,394.72 368.28,394.68 L367.94,393.36 C368.78,393.4 369.5,393.42 370.12,393.42 C371.06,393.42 371.6,392.9 371.76,391.88 C371.88,390.76 371.96,387.3 372,381.54 L366.5,381.54 C365.94,382.8 365.28,383.94 364.5,384.96 L363.64,383.82 C365.04,381.86 365.98,379.46 366.5,376.62 L367.92,376.8 C367.68,377.98 367.4,379.1 367.04,380.14 L373.42,380.14 Z M384.94,384.86 C384.12,387.14 382.56,389.02 380.24,390.54 L379.28,389.36 C381.52,387.88 383,386.04 383.72,383.82 C383.94,383.04 384.12,382.2 384.26,381.28 L378.56,381.28 L378.56,394.98 L377.1,394.98 L377.1,379.88 L384.42,379.88 C384.52,378.86 384.58,377.76 384.58,376.6 L386.04,376.6 C386.04,377.78 385.98,378.88 385.9,379.88 L392.92,379.88 L392.92,392.76 C392.92,394.1 392.26,394.78 390.98,394.78 L387.84,394.78 L387.44,393.34 L390.5,393.42 C391.14,393.42 391.46,393.08 391.46,392.44 L391.46,381.28 L385.74,381.28 C385.64,382.04 385.52,382.76 385.36,383.42 C387.44,385.38 389.18,387.32 390.6,389.22 L389.52,390.32 C388.36,388.6 386.82,386.78 384.94,384.86 Z M407.56,394.34 L403.1,394.34 C401.7,394.34 401.02,393.66 401.02,392.32 L401.02,380.84 L402.46,380.84 L402.46,392.02 C402.46,392.62 402.82,392.92 403.54,392.92 L407.3,392.92 C407.78,392.92 408.12,392.72 408.32,392.34 C408.56,391.86 408.74,390.46 408.84,388.12 L410.2,388.58 C410.04,391.32 409.76,392.98 409.34,393.58 C408.96,394.08 408.36,394.34 407.56,394.34 Z M398.06,382.98 L399.44,383.26 C398.88,386.7 398.08,389.66 397.04,392.14 L395.8,391.36 C396.84,388.82 397.58,386.02 398.06,382.98 Z M410.94,382.36 C412.22,384.96 413.32,387.72 414.28,390.66 L412.96,391.26 C411.92,388.08 410.78,385.26 409.54,382.82 L410.94,382.36 Z M403.74,376.74 C405.58,378.68 407,380.38 407.98,381.84 L406.78,382.66 C405.74,381.1 404.34,379.36 402.54,377.48 L403.74,376.74 Z M420,390.16 C420.72,390.16 421.32,390.4 421.84,390.88 C422.34,391.36 422.6,391.96 422.6,392.68 C422.6,393.38 422.34,393.98 421.84,394.46 C421.32,394.94 420.72,395.18 420,395.18 C419.28,395.18 418.66,394.94 418.16,394.48 C417.64,394 417.4,393.4 417.4,392.68 C417.4,391.96 417.64,391.36 418.16,390.88 C418.66,390.4 419.28,390.16 420,390.16 Z M420,391.2 C419.58,391.2 419.22,391.34 418.94,391.64 C418.62,391.92 418.48,392.26 418.48,392.68 C418.48,393.08 418.62,393.42 418.94,393.7 C419.22,393.98 419.58,394.14 420,394.14 C420.4,394.14 420.76,393.98 421.06,393.7 C421.36,393.42 421.52,393.08 421.52,392.68 C421.52,392.26 421.36,391.92 421.06,391.64 C420.76,391.34 420.4,391.2 420,391.2 Z" id="捕捉萌动的生灵，-感受生命的活力，定格融"></path>
        </g>
    </g>
</svg>