<?xml version="1.0" encoding="UTF-8"?>
<svg width="202px" height="75px" viewBox="0 0 202 75" version="1.1" xmlns="http://www.w3.org/2000/svg" xmlns:xlink="http://www.w3.org/1999/xlink">
    <!-- Generator: Sketch 50.2 (55047) - http://www.bohemiancoding.com/sketch -->
    <title>Group 2 Copy</title>
    <desc>Created with Sketch.</desc>
    <defs>
        <polygon id="path-1" points="0 0.228525 20.5632 0.228525 20.5632 10.260525 0 10.260525"></polygon>
        <polygon id="path-3" points="0.575471173 0.412037037 36.2747643 0.412037037 36.2747643 25.345742 0.575471173 25.345742"></polygon>
    </defs>
    <g id="Page-1" stroke="none" stroke-width="1" fill="none" fill-rule="evenodd">
        <g id="Group-2-Copy">
            <g id="Group-3" transform="translate(0.000000, 3.000000)">
                <mask id="mask-2" fill="white">
                    <use xlink:href="#path-1"></use>
                </mask>
                <g id="Clip-2"></g>
                <path d="M10.8548087,0.228525 L8.39233043,0.228525 C8.05906957,0.228525 7.78789565,0.499858333 7.78789565,0.835358333 L7.78789565,4.75410833 C7.78789565,5.08960833 7.51763478,5.36094167 7.18346087,5.36094167 L1.81385217,5.36094167 C0.812243478,5.36094167 -0.000365217391,6.17585833 -0.000365217391,7.18144167 L-0.000365217391,9.65369167 C-0.000365217391,9.98919167 0.270808696,10.260525 0.604069565,10.260525 L18.7498957,10.260525 C19.7515043,10.260525 20.5632,9.44560833 20.5632,8.440025 L20.5632,5.967775 C20.5632,5.63319167 20.2929391,5.36094167 19.9587652,5.36094167 L13.2725478,5.36094167 C12.939287,5.36094167 12.668113,5.08960833 12.668113,4.75410833 L12.668113,2.049025 C12.668113,1.04344167 11.8564174,0.228525 10.8548087,0.228525" id="Fill-1" fill="#FEFEFE" mask="url(#mask-2)"></path>
            </g>
            <g id="Group">
                <path d="M6.58843527,14.6200926 L2.85542892,14.8450926 C2.51589558,14.8663889 2.2572921,15.1562037 2.27775712,15.4941667 L3.60240228,37.8608333 C3.62286731,38.1987963 3.91495901,38.4562037 4.25449235,38.4358333 L7.9874987,38.2108333 C8.32703204,38.190463 8.58563552,37.8997222 8.5651705,37.5617593 L7.24052534,15.1950926 C7.22006031,14.8571296 6.92796861,14.5997222 6.58843527,14.6200926" id="Fill-4" fill="#FEFEFE"></path>
                <path d="M13.3858928,15.3448148 L12.1533403,37.4522222 C12.1338055,37.7901852 12.3933392,38.08 12.7328725,38.0994444 L16.4668091,38.3114815 C16.8063425,38.3309259 17.0975039,38.0716667 17.1170387,37.7337037 L18.3495913,15.6262963 C18.3691261,15.2883333 18.1095924,14.9985185 17.770059,14.98 L14.0361225,14.767963 C13.6965891,14.7485185 13.4054276,15.0068519 13.3858928,15.3448148" id="Fill-6" fill="#FEFEFE"></path>
                <path d="M0.615904186,44.3326852 L18.7767521,44.3326852 C19.7972126,44.3326852 20.6251159,43.509537 20.6251159,42.4937963 L20.6251159,39.9965741 C20.6251159,39.6586111 20.348838,39.3836111 20.0093047,39.3836111 L1.84752651,39.3836111 C0.82706602,39.3836111 9.30228344e-05,40.2067593 9.30228344e-05,41.2225 L9.30228344e-05,43.7197222 C9.30228344e-05,44.0586111 0.275440613,44.3326852 0.615904186,44.3326852" id="Fill-8" fill="#FEFEFE"></path>
                <path d="M40.2214922,40.4442593 L28.1043378,40.4442593 C27.7638742,40.4442593 27.4885266,40.1701852 27.4885266,39.8312963 L27.4885266,27.7424074 C27.4885266,27.4035185 27.7638742,27.1294444 28.1043378,27.1294444 L40.2214922,27.1294444 C40.5619558,27.1294444 40.8373034,27.4035185 40.8373034,27.7424074 L40.8373034,39.8312963 C40.8373034,40.1701852 40.5619558,40.4442593 40.2214922,40.4442593 M34.0540783,1.97203704 L31.5452524,1.97203704 C31.2047889,1.97203704 30.9294413,2.24703704 30.9294413,2.585 L30.9294413,21.5674074 C30.9294413,21.9062963 30.6540937,22.1803704 30.3136301,22.1803704 L26.2113231,22.1803704 C24.1713323,22.1803704 22.5164561,23.8275926 22.5164561,25.8590741 L22.5164561,44.7803704 C22.5164561,45.1183333 22.7918037,45.3933333 23.1322673,45.3933333 L42.1135766,45.3933333 C44.1544976,45.3933333 45.8093738,43.7461111 45.8093738,41.7146296 L45.8093738,22.7933333 C45.8093738,22.4544444 45.5340263,22.1803704 45.1935627,22.1803704 L36.5173229,22.1803704 C36.1768594,22.1803704 35.9015118,21.9062963 35.9015118,21.5674074 L35.9015118,13.6025926 C35.9015118,13.2637037 36.1768594,12.9896296 36.5173229,12.9896296 L44.2140322,12.9896296 C45.2344927,12.9896296 46.0614657,12.1655556 46.0614657,11.1498148 L46.0614657,8.65351852 C46.0614657,8.31462963 45.7861181,8.04055556 45.4456546,8.04055556 L36.5173229,8.04055556 C36.1768594,8.04055556 35.9015118,7.76555556 35.9015118,7.42759259 L35.9015118,3.81185185 C35.9015118,2.79611111 35.0745388,1.97203704 34.0540783,1.97203704" id="Fill-10" fill="#FEFEFE"></path>
                <path d="M63.2750622,13.1075 L61.6629764,13.1075 C61.3225129,13.1075 61.0471653,12.8334259 61.0471653,12.494537 L61.0471653,9.10101852 C61.0471653,8.76212963 61.3225129,8.48805556 61.6629764,8.48805556 L63.2750622,8.48805556 C63.6155257,8.48805556 63.8908733,8.76212963 63.8908733,9.10101852 L63.8908733,12.494537 C63.8908733,12.8334259 63.6155257,13.1075 63.2750622,13.1075 Z M68.0508545,28.1436111 L67.5736473,28.1436111 C67.234114,28.1436111 66.9578362,27.869537 66.9578362,27.5306481 L66.9578362,18.669537 C66.9578362,18.3306481 67.234114,18.0565741 67.5736473,18.0565741 L68.0508545,18.0565741 C68.3913181,18.0565741 68.6666656,18.3306481 68.6666656,18.669537 L68.6666656,27.5306481 C68.6666656,27.869537 68.3913181,28.1436111 68.0508545,28.1436111 Z M56.4871859,39.9491667 L56.4871859,38.7010185 C56.4871859,38.3621296 56.7634638,38.0880556 57.1029971,38.0880556 L68.0508545,38.0880556 C68.3913181,38.0880556 68.6666656,38.3621296 68.6666656,38.7010185 L68.6666656,39.9491667 C68.6666656,40.2880556 68.3913181,40.5621296 68.0508545,40.5621296 L57.1029971,40.5621296 C56.7634638,40.5621296 56.4871859,40.2880556 56.4871859,39.9491667 Z M57.5802042,18.0565741 C57.9206678,18.0565741 58.1960154,18.3306481 58.1960154,18.669537 L58.1969456,28.3232407 C58.1978759,28.3787963 58.2062479,29.5667593 57.2378802,30.9112037 C57.0546252,31.1667593 57.0955553,31.5213889 57.334624,31.7278704 L59.0936858,33.244537 C59.3662427,33.4787963 59.7811245,33.4297222 59.9978677,33.1436111 C61.7197204,30.8667593 61.7597202,28.6880556 61.7476272,28.2315741 L61.7476272,18.669537 C61.7476272,18.3306481 62.0229748,18.0565741 62.3634384,18.0565741 L62.7913434,18.0565741 C63.1308768,18.0565741 63.4071546,18.3306481 63.4071546,18.669537 L63.4071546,31.0658333 C63.4071546,31.4037963 63.6825022,31.6787963 64.0229657,31.6787963 L68.0508545,31.6787963 C68.3913181,31.6787963 68.6666656,31.9528704 68.6666656,32.2917593 L68.6666656,33.7519444 C68.6666656,34.0908333 68.3913181,34.3649074 68.0508545,34.3649074 L57.1029971,34.3649074 C56.7634638,34.3649074 56.4871859,34.0908333 56.4871859,33.7519444 L56.4871859,18.669537 C56.4871859,18.3306481 56.7634638,18.0565741 57.1029971,18.0565741 L57.5802042,18.0565741 Z M52.1206941,8.48805556 L55.4592836,8.48805556 C55.7997472,8.48805556 56.0750948,8.76212963 56.0750948,9.10101852 L56.0750948,12.494537 C56.0750948,12.8334259 55.7997472,13.1075 55.4592836,13.1075 L52.1206941,13.1075 C51.7802305,13.1075 51.5048829,13.3815741 51.5048829,13.720463 L51.5048829,18.0565741 L51.5151154,18.0565741 L51.5151154,40.5621296 L51.5048829,40.5621296 L51.5048829,44.8982407 C51.5048829,45.2371296 51.7802305,45.5112037 52.1206941,45.5112037 L73.0340877,45.5112037 C73.3736211,45.5112037 73.6498989,45.2371296 73.6498989,44.8982407 L73.6498989,40.5621296 L73.6387361,40.5621296 L73.6387361,18.0565741 L73.6498989,18.0565741 L73.6498989,13.720463 C73.6498989,13.3815741 73.3736211,13.1075 73.0340877,13.1075 L69.478755,13.1075 C69.1382914,13.1075 68.8629438,12.8334259 68.8629438,12.494537 L68.8629438,9.10101852 C68.8629438,8.76212963 69.1382914,8.48805556 69.478755,8.48805556 L71.8024654,8.48805556 C72.8229259,8.48805556 73.6498989,7.66490741 73.6498989,6.64916667 L73.6498989,4.15194444 C73.6498989,3.81305556 73.3736211,3.53898148 73.0340877,3.53898148 L53.3523164,3.53898148 C52.3318559,3.53898148 51.5048829,4.36212963 51.5048829,5.37787037 L51.5048829,7.87509259 C51.5048829,8.21305556 51.7802305,8.48805556 52.1206941,8.48805556 Z" id="Fill-12" fill="#FEFEFE"></path>
                <path d="M91.9791182,40.3503704 L81.6982345,40.3503704 C81.3577709,40.3503704 81.0824233,40.0762963 81.0824233,39.7374074 L81.0824233,31.842963 C81.0824233,31.5040741 81.3577709,31.23 81.6982345,31.23 L91.9791182,31.23 C92.3195817,31.23 92.5949293,31.5040741 92.5949293,31.842963 L92.5949293,39.7374074 C92.5949293,40.0762963 92.3195817,40.3503704 91.9791182,40.3503704 Z M81.0824233,26.2809259 L79.7661502,26.2809259 C79.7661502,26.2809259 76.1103528,25.6911111 76.1103528,29.9207407 L76.1103528,44.6864815 C76.1103528,45.0244444 76.3857004,45.2994444 76.726164,45.2994444 L78.5345279,45.2994444 L81.0824233,45.2994444 L92.5949293,45.2994444 L93.8712026,45.2994444 C95.9121236,45.2994444 97.5669998,43.6522222 97.5669998,41.6207407 L97.5669998,40.3503704 L97.5669998,31.23 L97.5669998,26.8938889 C97.5669998,26.555 97.2916522,26.2809259 96.9511887,26.2809259 L92.5949293,26.2809259 L81.0824233,26.2809259 Z" id="Fill-14" fill="#FEFEFE"></path>
                <path d="M90.3208931,11.6935185 L95.6836595,11.6935185 C96.70412,11.6935185 97.5320232,10.8703704 97.5320232,9.85462963 L97.5320232,7.35740741 C97.5320232,7.01944444 97.2557454,6.74444444 96.9152818,6.74444444 L90.3208931,6.74444444 C89.9804295,6.74444444 89.7050819,6.47037037 89.7050819,6.13148148 L89.7050819,2.64444444 C89.7050819,2.30555556 89.4288041,2.03055556 89.0892708,2.03055556 L85.3488226,2.03055556 C85.008359,2.03055556 84.7330115,2.30555556 84.7330115,2.64444444 L84.7330115,6.13148148 C84.7330115,6.47037037 84.4576639,6.74444444 84.1172003,6.74444444 L82.046512,6.74444444 C81.6902345,6.74444444 81.4083754,6.44074074 81.4325613,6.08703704 C81.4595379,5.69722222 81.4809332,5.34166667 81.4976773,5.02314815 C81.553491,3.97037037 80.7116343,3.09166667 79.6521042,3.09166667 L77.194441,3.09166667 C76.8623494,3.09166667 76.5897925,3.35 76.57956,3.68055556 C76.5311881,5.24444444 76.2930497,9.7962963 75.1265433,15.9166667 C75.0632878,16.2481481 75.2781706,16.5712963 75.6111923,16.6361111 L78.0576929,17.1148148 C79.0707115,17.312963 80.0539629,16.6453704 80.233497,15.6342593 C80.4483797,14.4268519 80.628844,13.2842593 80.779541,12.2175926 C80.8223315,11.9148148 81.080935,11.6935185 81.3879103,11.6935185 L84.1172003,11.6935185 C84.4576639,11.6935185 84.7330115,11.9675926 84.7330115,12.3064815 L84.7330115,18.3861111 C84.7330115,18.7240741 84.4576639,18.9990741 84.1172003,18.9990741 L77.7060665,18.9990741 C76.6856061,18.9990741 75.8586331,19.8222222 75.8586331,20.837963 L75.8586331,23.3351852 C75.8586331,23.6731481 76.1339806,23.9481481 76.4744442,23.9481481 L95.9366816,23.9481481 C96.9571421,23.9481481 97.7841151,23.1240741 97.7841151,22.1083333 L97.7841151,19.612037 C97.7841151,19.2731481 97.5087675,18.9990741 97.168304,18.9990741 L90.3208931,18.9990741 C89.9804295,18.9990741 89.7050819,18.7240741 89.7050819,18.3861111 L89.7050819,12.3064815 C89.7050819,11.9675926 89.9804295,11.6935185 90.3208931,11.6935185" id="Fill-16" fill="#FEFEFE"></path>
                <path d="M162.234242,12.9214815 L164.282605,11.552037 C165.163531,10.9631481 165.361669,9.75851852 164.725393,8.91314815 C162.380288,5.79092593 160.043554,3.64925926 159.054721,2.79740741 C158.790536,2.57055556 158.391468,2.6112963 158.173795,2.88351852 L156.557058,4.90481481 C155.961712,5.64833333 156.031479,6.72240741 156.723569,7.37703704 C157.884494,8.47333333 159.681695,10.3344444 161.384943,12.7575926 C161.577501,13.0325926 161.954243,13.1085185 162.234242,12.9214815" id="Fill-18" fill="#FEFEFE"></path>
                <path d="M158.393701,15.2228704 L156.669058,17.0682407 C155.98627,17.7997222 156.009526,18.9367593 156.727662,19.6339815 C158.134167,20.9997222 160.476482,23.3432407 162.7081,25.8839815 C162.930425,26.1376852 163.316469,26.1663889 163.574143,25.9469444 L165.461576,24.3293519 C166.248549,23.6552778 166.321107,22.4700926 165.628087,21.7015741 C162.934146,18.7163889 160.301599,16.1756481 159.268116,15.1960185 C159.019745,14.9608333 158.627188,14.9728704 158.393701,15.2228704" id="Fill-20" fill="#FEFEFE"></path>
                <path d="M155.719015,43.9207407 L157.85482,45.1614815 C158.760862,45.6874074 159.93202,45.3596296 160.42132,44.4355556 C163.832467,37.992037 165.216647,31.6540741 165.590599,29.6707407 C165.655715,29.3281481 165.426878,29.0059259 165.080833,28.9522222 L162.536659,28.5559259 C161.572942,28.405 160.662249,29.0216667 160.448296,29.9688889 C159.85202,32.6114815 158.396213,37.9577778 155.496691,43.0901852 C155.33204,43.3827778 155.427854,43.7522222 155.719015,43.9207407" id="Fill-22" fill="#FEFEFE"></path>
                <path d="M173.760515,39.7373148 L173.760515,32.5734259 C173.760515,32.234537 174.035863,31.960463 174.376326,31.960463 L194.139027,31.960463 C194.478561,31.960463 194.754839,32.234537 194.754839,32.5734259 L194.754839,39.7373148 C194.754839,40.0762037 194.478561,40.3502778 194.139027,40.3502778 L174.376326,40.3502778 C174.035863,40.3502778 173.760515,40.0762037 173.760515,39.7373148 Z M194.754839,27.0113889 L173.760515,27.0113889 L172.754008,27.0113889 L172.484242,27.0113889 C170.443321,27.0113889 168.788445,28.6586111 168.788445,30.6891667 L168.788445,45.1567593 L168.8917,45.1567593 L168.8917,45.2993519 L196.031112,45.2993519 C198.072033,45.2993519 199.726909,43.6521296 199.726909,41.6206481 L199.726909,40.3502778 L199.726909,27.6243519 C199.726909,27.285463 199.450631,27.0113889 199.111098,27.0113889 L196.79855,27.0113889 L194.754839,27.0113889 Z" id="Fill-24" fill="#FEFEFE"></path>
                <g id="Group-28" transform="translate(165.580645, 0.513889)">
                    <mask id="mask-4" fill="white">
                        <use xlink:href="#path-3"></use>
                    </mask>
                    <g id="Clip-27"></g>
                    <path d="M8.76572773,10.5383333 C9.11735404,10.0688889 9.45223625,9.60222222 9.77130457,9.14296296 C9.88665288,8.97814815 10.0726986,8.88185185 10.2745581,8.88185185 L25.033561,8.88185185 C25.5451866,8.88185185 25.8391387,9.46518519 25.5247216,9.86703704 C24.1982159,11.5614815 21.9321797,13.8392593 18.3052194,15.8790741 C18.1368481,15.9735185 17.9266165,15.9846296 17.7489428,15.9096296 C13.9536112,14.2985185 10.8950204,12.6096296 8.93316883,11.43 C8.62061211,11.242037 8.5480543,10.83 8.76572773,10.5383333 M25.0354215,18.5188889 C24.5591445,18.38 24.4456567,17.7587037 24.8354224,17.4522222 C29.8735391,13.4938889 31.5944615,9.54851852 31.722833,9.24296296 L31.9125996,8.78740741 L31.9125996,5.77166667 C31.9125996,4.75592593 31.0856266,3.93277778 30.0651661,3.93277778 L14.0131458,3.93277778 C13.5517526,3.93277778 13.2559399,3.44388889 13.4671018,3.03555556 C13.4903575,2.99203704 13.5117527,2.95037037 13.5322178,2.91055556 C13.6894264,2.60407407 13.5601246,2.22907407 13.2484981,2.08092593 L9.87176923,0.472592593 C9.57130547,0.33 9.21316756,0.446666667 9.06061011,0.741111111 C8.15177702,2.49388889 5.00109362,8.22537037 0.777856941,12.0957407 C0.53134643,12.3216667 0.505300036,12.6975926 0.725764154,12.9494444 L2.63924386,15.1327778 C3.17319493,15.742963 4.11272555,15.7809259 4.6950485,15.2161111 L4.70993215,15.2022222 C4.91086147,15.0077778 5.21597637,14.9707407 5.45411482,15.1198148 C6.62062117,15.855 8.30061356,16.8540741 10.4010692,17.9466667 C10.901532,18.2068519 10.8317649,18.9448148 10.2875813,19.092037 C7.99735912,19.7133333 5.41690569,20.2031481 2.50994212,20.4985185 C2.17412968,20.5327778 1.92389826,20.8272222 1.9545958,21.1614815 L2.18064128,23.6235185 C2.27552457,24.6559259 3.21319474,25.4105556 4.24760866,25.2837037 C9.84572283,24.5975926 14.368493,23.23 18.0047556,21.5698148 C18.1461503,21.505 18.3033589,21.4994444 18.4484746,21.555 C23.0010121,23.2762963 28.3386623,24.7651852 34.0837526,25.3364815 C35.128399,25.4401852 36.0549064,24.6605556 36.1200224,23.617037 L36.2735101,21.155 C36.2949053,20.8207407 36.0400228,20.5355556 35.7042103,20.5105556 C31.9563203,20.2272222 28.3544762,19.4855556 25.0354215,18.5188889" id="Fill-26" fill="#FEFEFE" mask="url(#mask-4)"></path>
                </g>
                <path d="M109.641085,12.9214815 L111.689447,11.552037 C112.571304,10.9631481 112.768512,9.75851852 112.133166,8.91222222 C109.788061,5.79185185 107.452257,3.64925926 106.462494,2.79833333 C106.197379,2.57055556 105.798311,2.6112963 105.581568,2.88444444 L103.967622,4.90574074 C103.373206,5.65018519 103.442973,6.72425926 104.135993,7.37796296 C105.291337,8.46777778 107.081096,10.3205556 108.791786,12.7575926 C108.984343,13.0325926 109.361086,13.1085185 109.641085,12.9214815" id="Fill-29" fill="#FEFEFE"></path>
                <path d="M105.800823,15.2227778 L104.07618,17.0690741 C103.392462,17.7996296 103.416648,18.9366667 104.134784,19.6338889 C105.541289,20.9996296 107.883604,23.3431481 110.115222,25.8838889 C110.338477,26.1375926 110.724522,26.1662963 110.981265,25.9468519 L112.868698,24.3292593 C113.655671,23.6551852 113.728229,22.47 113.035209,21.7014815 C110.341268,18.7172222 107.708721,16.1746296 106.675238,15.1959259 C106.426867,14.9607407 106.03431,14.9727778 105.800823,15.2227778" id="Fill-31" fill="#FEFEFE"></path>
                <path d="M103.125951,43.9207407 L105.261756,45.1614815 C106.167798,45.6874074 107.338956,45.3596296 107.828256,44.4355556 C111.239403,37.992037 112.623583,31.6540741 112.997535,29.6707407 C113.062651,29.3281481 112.833814,29.0059259 112.487769,28.9522222 L109.943595,28.5559259 C108.979878,28.405 108.069185,29.0225926 107.855232,29.9688889 C107.258956,32.6114815 105.803149,37.9577778 102.903627,43.0901852 C102.738976,43.3827778 102.83479,43.7522222 103.125951,43.9207407" id="Fill-33" fill="#FEFEFE"></path>
                <path d="M130.778384,21.9102778 L130.778384,36.1787963 C130.778384,36.5176852 131.053732,36.7917593 131.394195,36.7917593 L135.134644,36.7917593 C135.474177,36.7917593 135.750455,36.5176852 135.750455,36.1787963 L135.750455,21.9102778 C135.750455,21.5713889 135.474177,21.2973148 135.134644,21.2973148 L131.394195,21.2973148 C131.053732,21.2973148 130.778384,21.5713889 130.778384,21.9102778" id="Fill-35" fill="#FEFEFE"></path>
                <path d="M120.388664,9.47861111 L147.188542,9.47861111 C148.209003,9.47861111 149.035976,8.65546296 149.035976,7.63972222 L149.035976,5.1425 C149.035976,4.80453704 148.760628,4.52953704 148.420165,4.52953704 L121.51424,4.52953704 C121.142149,4.52953704 120.853778,4.20175926 120.90401,3.83509259 C120.94401,3.53787037 120.977498,3.27675926 121.003545,3.06101852 C121.046335,2.7212037 120.801685,2.4137963 120.460291,2.37583333 L117.938442,2.09898148 C116.946819,1.99064815 116.047288,2.68231481 115.906824,3.66564815 C115.597988,5.83046296 115.054735,8.93509259 114.380319,10.7675 C114.269622,11.0684259 114.411947,11.3989815 114.705899,11.530463 L116.880773,12.5063889 C117.895652,12.9619444 119.091926,12.4313889 119.408203,11.3693519 C119.544017,10.9137963 119.671458,10.4369444 119.790527,9.94990741 C119.857503,9.67398148 120.104014,9.47861111 120.388664,9.47861111" id="Fill-37" fill="#FEFEFE"></path>
                <path d="M148.034771,26.4224074 C147.694308,26.4224074 147.41896,26.1483333 147.41896,25.8094444 L147.41896,17.7881481 L147.41896,16.5177778 C147.41896,14.4862963 145.764084,12.84 143.723163,12.84 L142.44689,12.84 L123.777207,12.84 L122.500933,12.84 C120.460012,12.84 118.805136,14.4862963 118.805136,16.5177778 L118.805136,25.8094444 C118.805136,26.1483333 118.529789,26.4224074 118.189325,26.4224074 L116.41724,26.4224074 C116.076776,26.4224074 115.801429,26.6964815 115.801429,27.0353704 L115.801429,30.7585185 C115.801429,31.0964815 116.076776,31.3714815 116.41724,31.3714815 L118.189325,31.3714815 C118.529789,31.3714815 118.805136,31.6455556 118.805136,31.9844444 L118.805136,40.1733333 L118.805136,41.4446296 C118.805136,43.4761111 120.460012,45.1224074 122.500933,45.1224074 L140.04504,45.1224074 C139.47388,44.2288889 139.138067,43.1714815 139.138067,42.0344444 C139.138067,41.3825926 139.252485,40.7585185 139.452484,40.1733333 L125.009759,40.1733333 C124.328832,40.1733333 123.777207,39.6242593 123.777207,38.9474074 L123.777207,19.015 C123.777207,18.3372222 124.328832,17.7881481 125.009759,17.7881481 L141.215267,17.7881481 C141.895264,17.7881481 142.44689,18.3372222 142.44689,19.015 L142.44689,36.8307407 C143.201305,36.4733333 144.042231,36.2668519 144.93246,36.2668519 C145.823618,36.2668519 146.664545,36.4733333 147.41896,36.8307407 L147.41896,31.9844444 C147.41896,31.6455556 147.694308,31.3714815 148.034771,31.3714815 L150.111041,31.3714815 C150.451504,31.3714815 150.727782,31.0964815 150.727782,30.7585185 L150.727782,27.0353704 C150.727782,26.6964815 150.451504,26.4224074 150.111041,26.4224074 L148.034771,26.4224074 Z" id="Fill-39" fill="#FEFEFE"></path>
                <path d="M149.036348,42.0346296 C149.036348,44.2846296 147.204728,46.1077778 144.944274,46.1077778 C142.683819,46.1077778 140.852199,44.2846296 140.852199,42.0346296 C140.852199,39.7846296 142.683819,37.9614815 144.944274,37.9614815 C147.204728,37.9614815 149.036348,39.7846296 149.036348,42.0346296" id="Fill-41" fill="#FEFEFE"></path>
                <path d="M50.3560509,65.6759259 L50.3560509,73.8740741 C50.3560509,74.1305556 50.1476798,74.337037 49.8909368,74.337037 L47.3718784,74.337037 C47.1151354,74.337037 46.9067642,74.1305556 46.9067642,73.8740741 L46.9067642,66.3583333 C46.9067642,64.9944444 46.2909531,64.312037 45.1253769,64.312037 C44.3430549,64.312037 43.4370125,64.8675926 42.9774797,65.6074074 C42.9318985,65.6814815 42.9105033,65.7685185 42.9105033,65.8555556 L42.9105033,73.8740741 C42.9105033,74.1305556 42.7021321,74.337037 42.4453891,74.337037 L39.927261,74.337037 C39.6705179,74.337037 39.4621468,74.1305556 39.4621468,73.8740741 L39.4621468,57.5685185 C39.4621468,57.312963 39.6705179,57.1055556 39.927261,57.1055556 L42.4453891,57.1055556 C42.7021321,57.1055556 42.9105033,57.312963 42.9105033,57.5685185 L42.9105033,62.7898148 L43.0016656,62.7898148 C43.7328251,62.0388889 44.9197965,61.4027778 46.4044409,61.4027778 C48.9169877,61.4027778 50.3560509,62.7898148 50.3560509,65.6759259" id="Fill-43" fill="#FEFEFE"></path>
                <path d="M56.242908,65.9072222 C56.1870943,66.197037 56.4056979,66.472037 56.7024408,66.472037 L60.7266086,66.472037 L60.7266086,66.1303704 C60.7266086,64.6303704 60.0875417,63.835 58.6931294,63.835 C57.3415076,63.835 56.4754651,64.6951852 56.242908,65.9072222 Z M63.3833407,72.7998148 C63.5135727,73.01 63.4521776,73.2822222 63.2503181,73.4257407 C62.2977643,74.1053704 61.062421,74.5877778 58.8763844,74.5877778 C54.8112866,74.5877778 52.7322262,72.3137037 52.7322262,67.8812963 C52.7322262,63.7211111 55.0624482,61.2433333 58.785222,61.2433333 C62.0735792,61.2433333 63.9693846,63.3118519 63.9693846,66.4488889 C63.9693846,67.0137037 63.9526405,67.5618519 63.8614781,68.3359259 C63.8345015,68.5683333 63.6335722,68.7451852 63.3991546,68.7451852 L56.6094179,68.7451852 C56.3247681,68.7451852 56.1154667,68.997037 56.1470945,69.2775926 C56.3359308,70.9637037 57.2726708,71.8822222 59.2652199,71.8822222 C60.3480057,71.8822222 61.1693973,71.4840741 61.706139,71.0711111 C61.9238125,70.9044444 62.235439,70.947963 62.3796244,71.1803704 L63.3833407,72.7998148 Z" id="Fill-45" fill="#FEFEFE"></path>
                <path d="M69.4448016,57.1056481 C69.7015447,57.1056481 69.9099158,57.3130556 69.9099158,57.5686111 L69.9099158,70.2908333 C69.9099158,71.245463 70.3434022,71.5639815 70.9824691,71.5639815 C71.234561,71.5639815 71.3489791,71.5417593 71.4624669,71.5186111 L71.4624669,73.8973148 C71.4624669,74.0982407 71.3350256,74.2760185 71.1443288,74.3389815 C70.7992141,74.4510185 70.387123,74.5417593 69.8178232,74.5417593 C67.7173676,74.5417593 66.4615594,73.3149074 66.4615594,71.1769444 L66.4615594,57.5686111 C66.4615594,57.3130556 66.6699305,57.1056481 66.9266735,57.1056481 L69.4448016,57.1056481 Z" id="Fill-47" fill="#FEFEFE"></path>
                <path d="M76.6168622,57.1056481 C76.8736052,57.1056481 77.0819764,57.3130556 77.0819764,57.5686111 L77.0819764,70.2908333 C77.0819764,71.245463 77.5154628,71.5639815 78.1545296,71.5639815 C78.4066215,71.5639815 78.5210396,71.5417593 78.6345275,71.5186111 L78.6345275,73.8973148 C78.6345275,74.0982407 78.5070862,74.2760185 78.3163894,74.3389815 C77.9712746,74.4510185 77.5591835,74.5417593 76.9898837,74.5417593 C74.8894281,74.5417593 73.6336199,73.3149074 73.6336199,71.1769444 L73.6336199,57.5686111 C73.6336199,57.3130556 73.841991,57.1056481 74.0987341,57.1056481 L76.6168622,57.1056481 Z" id="Fill-49" fill="#FEFEFE"></path>
                <path d="M86.0581217,71.9050926 C87.8171835,71.9050926 88.3641578,70.6319444 88.3641578,68.0180556 C88.3641578,65.3578704 87.7027654,63.9486111 85.9213782,63.9486111 C84.3446411,63.9486111 83.6599931,65.2217593 83.6599931,67.8356481 C83.6599931,70.4958333 84.3223156,71.9050926 86.0581217,71.9050926 M80.119544,67.9726852 C80.119544,64.0162037 81.7874434,61.2662037 86.0581217,61.2662037 C90.5111248,61.2662037 91.9046069,63.9023148 91.9046069,67.8810185 C91.9046069,71.8375 90.214382,74.5875 85.9437036,74.5875 C81.513026,74.5875 80.119544,71.950463 80.119544,67.9726852" id="Fill-51" fill="#FEFEFE"></path>
                <path d="M102.252653,64.1911111 C102.252653,64.4633333 102.019166,64.6762963 101.746609,64.6494444 C101.414517,64.617963 101.066612,64.6077778 100.768009,64.6077778 C99.7801061,64.6077778 98.6945296,64.955 97.9410446,65.4883333 C97.8191847,65.5753704 97.7540687,65.7188889 97.7540687,65.867037 L97.7540687,73.8744444 C97.7540687,74.13 97.5456976,74.3374074 97.2889546,74.3374074 L94.7931519,74.3374074 C94.5364089,74.3374074 94.3280377,74.13 94.3280377,73.8744444 L94.3280377,61.9568519 C94.3280377,61.7012963 94.5364089,61.4938889 94.7931519,61.4938889 L96.70012,61.4938889 C96.8945377,61.4938889 97.0675602,61.6133333 97.1354669,61.7948148 L97.7317433,63.38 L97.8219754,63.38 C98.3475544,62.1290741 99.4666191,61.2207407 101.156844,61.2207407 C101.522424,61.2207407 101.95684,61.2661111 102.252653,61.3346296 L102.252653,64.1911111 Z" id="Fill-53" fill="#FEFEFE"></path>
                <path d="M111.266845,59.0790741 C111.223124,59.3337037 110.975683,59.5059259 110.721731,59.4540741 C110.357081,59.3790741 110.005455,59.3337037 109.69941,59.3337037 C108.739414,59.3337037 108.39709,59.7883333 108.39709,60.6744444 L108.39709,61.4938889 L110.741266,61.4938889 C110.998009,61.4938889 111.20638,61.7012963 111.20638,61.9568519 L111.20638,63.3948148 C111.20638,63.6503704 110.998009,63.8577778 110.741266,63.8577778 L108.793368,63.8577778 C108.536625,63.8577778 108.328253,64.0651852 108.328253,64.3207407 L108.328253,73.8744444 C108.328253,74.13 108.119882,74.3374074 107.863139,74.3374074 L105.345011,74.3374074 C105.088268,74.3374074 104.879897,74.13 104.879897,73.8744444 L104.879897,64.3207407 C104.879897,64.0651852 104.671526,63.8577778 104.414783,63.8577778 L103.450136,63.8577778 C103.193393,63.8577778 102.985022,63.6503704 102.985022,63.3948148 L102.985022,61.9568519 C102.985022,61.7012963 103.193393,61.4938889 103.450136,61.4938889 L104.948734,61.4938889 L104.948734,60.5846296 C104.948734,58.4475926 106.364541,56.5605556 109.561736,56.5605556 C110.254756,56.5605556 110.771963,56.6105556 111.216612,56.6911111 C111.466844,56.7364815 111.630564,56.9762963 111.586843,57.2262963 L111.266845,59.0790741 Z" id="Fill-55" fill="#FEFEFE"></path>
                <path d="M114.748038,70.0641667 C116.049428,70.0641667 117.031749,71.0419444 117.031749,72.359537 C117.031749,73.5641667 116.049428,74.5419444 114.748038,74.5419444 C113.514555,74.5419444 112.532234,73.5641667 112.532234,72.359537 C112.532234,71.0419444 113.514555,70.0641667 114.748038,70.0641667" id="Fill-57" fill="#FEFEFE"></path>
                <path d="M124.88883,61.2434259 C126.758588,61.2434259 128.166024,61.8137963 129.061834,62.7730556 C129.229275,62.9526852 129.202298,63.2397222 129.024625,63.4082407 L127.41812,64.9276852 C127.223703,65.1119444 126.919518,65.0878704 126.739984,64.8878704 C126.401381,64.5100926 125.803244,64.0619444 124.88883,64.0619444 C123.404185,64.0619444 122.44512,64.9712037 122.44512,67.7675 C122.44512,70.4952778 123.244186,71.7684259 124.866504,71.7684259 C125.753942,71.7684259 126.393009,71.3563889 126.783705,70.905463 C126.954867,70.7082407 127.264633,70.7082407 127.45626,70.8850926 L128.931602,72.2462037 C129.119508,72.4202778 129.129741,72.7082407 128.960439,72.8999074 C128.197652,73.7628704 126.953936,74.5878704 124.546505,74.5878704 C121.051638,74.5878704 118.927926,72.6786111 118.927926,68.0406481 C118.927926,63.5165741 121.394892,61.2434259 124.88883,61.2434259" id="Fill-59" fill="#FEFEFE"></path>
                <path d="M136.149616,71.9050926 C137.908678,71.9050926 138.455652,70.6319444 138.455652,68.0180556 C138.455652,65.3578704 137.794259,63.9486111 136.012872,63.9486111 C134.436135,63.9486111 133.751487,65.2217593 133.751487,67.8356481 C133.751487,70.4958333 134.41381,71.9050926 136.149616,71.9050926 M130.211038,67.9726852 C130.211038,64.0162037 131.878937,61.2662037 136.149616,61.2662037 C140.602619,61.2662037 141.996101,63.9023148 141.996101,67.8810185 C141.996101,71.8375 140.306806,74.5875 136.035198,74.5875 C131.60452,74.5875 130.211038,71.950463 130.211038,67.9726852" id="Fill-61" fill="#FEFEFE"></path>
                <path d="M158.419747,61.1982407 C160.95462,61.1982407 162.392753,62.5389815 162.392753,65.4713889 L162.392753,73.8741667 C162.392753,74.1306481 162.185312,74.3371296 161.927638,74.3371296 L159.40951,74.3371296 C159.152767,74.3371296 158.944396,74.1306481 158.944396,73.8741667 L158.944396,66.0852778 C158.944396,64.5852778 158.167655,64.0852778 157.277427,64.0852778 C156.443012,64.0852778 155.587202,64.6102778 155.177902,65.4593519 C155.146274,65.5260185 155.13139,65.6010185 155.13139,65.6750926 L155.13139,73.8741667 C155.13139,74.1306481 154.923019,74.3371296 154.666276,74.3371296 L152.147218,74.3371296 C151.890475,74.3371296 151.682103,74.1306481 151.682103,73.8741667 L151.682103,66.3352778 C151.682103,64.8352778 151.042106,64.0852778 149.855135,64.0852778 C149.041185,64.0852778 148.248631,64.7176852 147.906307,65.5158333 C147.88026,65.5760185 147.868167,65.6417593 147.868167,65.7084259 L147.868167,73.8741667 C147.868167,74.1306481 147.659796,74.3371296 147.403053,74.3371296 L144.884925,74.3371296 C144.628182,74.3371296 144.419811,74.1306481 144.419811,73.8741667 L144.419811,61.9565741 C144.419811,61.7010185 144.628182,61.4936111 144.884925,61.4936111 L146.956543,61.4936111 C147.137008,61.4936111 147.300728,61.5973148 147.377007,61.7593519 L147.822586,62.6982407 L147.913748,62.6982407 C148.712815,61.6760185 150.03746,61.1982407 151.316524,61.1982407 C153.281166,61.1982407 154.080232,62.0167593 154.536974,62.9250926 L154.628137,62.9250926 C155.290459,62.0389815 156.592779,61.1982407 158.419747,61.1982407" id="Fill-63" fill="#FEFEFE"></path>
            </g>
        </g>
    </g>
</svg>