<?xml version="1.0" encoding="UTF-8"?>
<svg width="58px" height="36px" viewBox="0 0 58 36" version="1.1" xmlns="http://www.w3.org/2000/svg" xmlns:xlink="http://www.w3.org/1999/xlink">
    <!-- Generator: Sketch 50.2 (55047) - http://www.bohemiancoding.com/sketch -->
    <title>更多按钮hover</title>
    <desc>Created with Sketch.</desc>
    <defs></defs>
    <g id="Page-1" stroke="none" stroke-width="1" fill="none" fill-rule="evenodd">
        <g id="Group-13-Copy">
            <rect id="Rectangle-3" fill="#C41B0D" x="0" y="0" width="58" height="36" rx="18"></rect>
            <g id="Page-1" transform="translate(18.000000, 11.000000)" fill="#FEFEFE">
                <path d="M21.7955653,8.26551884 C21.8231917,8.21516579 21.8540681,8.16673705 21.8764942,8.11349751 C21.8989202,8.05993725 21.9119208,8.00413194 21.9281716,7.94896808 C21.9414972,7.90374655 21.9593731,7.86077005 21.9687985,7.81426563 C22.0104005,7.60675971 22.0104005,7.39316011 21.9687985,7.18597491 C21.9593731,7.13947049 21.9418223,7.09649399 21.9281716,7.05127246 C21.9119208,6.9961086 21.8989202,6.94030329 21.8764942,6.88642231 C21.8540681,6.83318277 21.8235167,6.78507475 21.7955653,6.7347217 C21.7728143,6.6933488 21.7542884,6.6503723 21.7273121,6.61060301 C21.6675093,6.52272569 21.5999061,6.44030062 21.5241775,6.36557283 L15.5494204,0.469774801 C14.9146654,-0.1565916 13.8859918,-0.1565916 13.2512369,0.469774801 C12.6164819,1.09582048 12.6164819,2.11122039 13.2512369,2.73758679 L16.452313,5.89635929 L1.62507674,5.89635929 C0.727384349,5.89635929 0,6.61445165 0,7.49995991 C0,8.38578889 0.727384349,9.10356053 1.62507674,9.10356053 L16.452313,9.10356053 L13.2512369,12.2626537 C12.6164819,12.8886994 12.6164819,13.9040993 13.2512369,14.530145 C13.5687769,14.8434886 13.9844715,15 14.4004911,15 C14.8165108,15 15.2322054,14.8434886 15.5494204,14.530145 L21.5241775,8.63434699 C21.5999061,8.55993992 21.6675093,8.47751485 21.7273121,8.38931681 C21.7542884,8.34986824 21.7724893,8.30689174 21.7955653,8.26551884 Z" id="Fill-1"></path>
            </g>
        </g>
    </g>
</svg>