<?xml version="1.0" encoding="UTF-8"?>
<svg width="431px" height="396px" viewBox="0 0 431 396" version="1.1" xmlns="http://www.w3.org/2000/svg" xmlns:xlink="http://www.w3.org/1999/xlink">
    <!-- Generator: Sketch 50.2 (55047) - http://www.bohemiancoding.com/sketch -->
    <title>自然</title>
    <desc>Created with Sketch.</desc>
    <defs></defs>
    <g id="Page-1" stroke="none" stroke-width="1" fill="none" fill-rule="evenodd">
        <g id="Group-4-Copy-2" fill="#FFFFFF">
            <path d="M35.8,21.3 L25.6,21.3 L25.6,19 C25.6,16.666655 25.0500055,14.6500085 23.95,12.95 C22.8499945,11.2499915 21.000013,10.4 18.4,10.4 C16.999993,10.4 15.8500045,10.666664 14.95,11.2 C14.0499955,11.733336 13.3500025,12.4166625 12.85,13.25 C12.3499975,14.0833375 12.000001,15.0499945 11.8,16.15 C11.599999,17.2500055 11.5,18.399994 11.5,19.6 C11.5,21.000007 11.5499995,22.1833285 11.65,23.15 C11.7500005,24.1166715 11.999998,24.9499965 12.4,25.65 C12.800002,26.3500035 13.3833295,26.966664 14.15,27.5 C14.9166705,28.033336 15.96666,28.566664 17.3,29.1 L25.1,32.2 C27.366678,33.066671 29.199993,34.0833275 30.6,35.25 C32.000007,36.4166725 33.0833295,37.7833255 33.85,39.35 C34.6166705,40.9166745 35.133332,42.7166565 35.4,44.75 C35.666668,46.7833435 35.8,49.099987 35.8,51.7 C35.8,54.700015 35.500003,57.4833205 34.9,60.05 C34.299997,62.6166795 33.3166735,64.8166575 31.95,66.65 C30.5833265,68.4833425 28.766678,69.933328 26.5,71 C24.233322,72.066672 21.466683,72.6 18.2,72.6 C15.733321,72.6 13.433344,72.166671 11.3,71.3 C9.166656,70.433329 7.333341,69.2500075 5.8,67.75 C4.266659,66.2499925 3.0500045,64.466677 2.15,62.4 C1.2499955,60.333323 0.8,58.100012 0.8,55.7 L0.8,51.9 L11,51.9 L11,55.1 C11,56.966676 11.5499945,58.6499925 12.65,60.15 C13.7500055,61.6500075 15.599987,62.4 18.2,62.4 C19.933342,62.4 21.2833285,62.1500025 22.25,61.65 C23.2166715,61.1499975 23.9499975,60.4500045 24.45,59.55 C24.9500025,58.6499955 25.266666,57.53334 25.4,56.2 C25.533334,54.86666 25.6,53.400008 25.6,51.8 C25.6,49.933324 25.533334,48.400006 25.4,47.2 C25.266666,45.999994 24.9833355,45.033337 24.55,44.3 C24.1166645,43.566663 23.5166705,42.966669 22.75,42.5 C21.9833295,42.033331 20.966673,41.533336 19.7,41 L12.4,38 C7.999978,36.199991 5.0500075,33.8166815 3.55,30.85 C2.0499925,27.8833185 1.3,24.166689 1.3,19.7 C1.3,17.03332 1.666663,14.500012 2.4,12.1 C3.133337,9.699988 4.2166595,7.633342 5.65,5.9 C7.0833405,4.166658 8.899989,2.7833385 11.1,1.75 C13.300011,0.7166615 15.866652,0.2 18.8,0.2 C21.333346,0.2 23.6499895,0.666662 25.75,1.6 C27.8500105,2.533338 29.6499925,3.766659 31.15,5.3 C32.6500075,6.833341 33.799996,8.5499905 34.6,10.45 C35.400004,12.3500095 35.8,14.29999 35.8,16.3 L35.8,21.3 Z M43.4,0.8 L53.6,0.8 L53.6,61.8 L73.8,61.8 L73.8,72 L43.4,72 L43.4,0.8 Z M79.8,17.6 C79.8,14.733319 80.299995,12.200011 81.3,10 C82.300005,7.799989 83.6166585,5.9833405 85.25,4.55 C86.8833415,3.1166595 88.7166565,2.033337 90.75,1.3 C92.7833435,0.566663 94.833323,0.2 96.9,0.2 C98.966677,0.2 101.016657,0.566663 103.05,1.3 C105.083344,2.033337 106.916659,3.1166595 108.55,4.55 C110.183342,5.9833405 111.499995,7.799989 112.5,10 C113.500005,12.200011 114,14.733319 114,17.6 L114,55.2 C114,58.133348 113.500005,60.6833225 112.5,62.85 C111.499995,65.0166775 110.183342,66.8166595 108.55,68.25 C106.916659,69.6833405 105.083344,70.766663 103.05,71.5 C101.016657,72.233337 98.966677,72.6 96.9,72.6 C94.833323,72.6 92.7833435,72.233337 90.75,71.5 C88.7166565,70.766663 86.8833415,69.6833405 85.25,68.25 C83.6166585,66.8166595 82.300005,65.0166775 81.3,62.85 C80.299995,60.6833225 79.8,58.133348 79.8,55.2 L79.8,17.6 Z M90,55.2 C90,57.666679 90.6833265,59.4833275 92.05,60.65 C93.4166735,61.8166725 95.033324,62.4 96.9,62.4 C98.766676,62.4 100.383326,61.8166725 101.75,60.65 C103.116674,59.4833275 103.8,57.666679 103.8,55.2 L103.8,17.6 C103.8,15.133321 103.116674,13.3166725 101.75,12.15 C100.383326,10.9833275 98.766676,10.4 96.9,10.4 C95.033324,10.4 93.4166735,10.9833275 92.05,12.15 C90.6833265,13.3166725 90,15.133321 90,17.6 L90,55.2 Z M165.3,72 L155.7,72 L147.9,25.8 L147.7,25.8 L140,72 L130.4,72 L119.8,0.8 L130.6,0.8 L135.7,46 L135.9,46 L143.9,0.8 L151.7,0.8 L160,47.1 L160.2,47.1 L165.1,0.8 L175.9,0.8 L165.3,72 Z M200.9,0.8 L210.7,0.8 L223.8,38.5 L224,38.5 L237,0.8 L246.9,0.8 L246.9,72 L236.7,72 L236.7,28.7 L236.5,28.7 L226.4,59.3 L221.3,59.3 L211.3,28.7 L211.1,28.7 L211.1,72 L200.9,72 L200.9,0.8 Z M255.9,17.6 C255.9,14.733319 256.399995,12.200011 257.4,10 C258.400005,7.799989 259.716658,5.9833405 261.35,4.55 C262.983341,3.1166595 264.816657,2.033337 266.85,1.3 C268.883343,0.566663 270.933323,0.2 273,0.2 C275.066677,0.2 277.116656,0.566663 279.15,1.3 C281.183343,2.033337 283.016659,3.1166595 284.65,4.55 C286.283341,5.9833405 287.599995,7.799989 288.6,10 C289.600005,12.200011 290.1,14.733319 290.1,17.6 L290.1,55.2 C290.1,58.133348 289.600005,60.6833225 288.6,62.85 C287.599995,65.0166775 286.283341,66.8166595 284.65,68.25 C283.016659,69.6833405 281.183343,70.766663 279.15,71.5 C277.116656,72.233337 275.066677,72.6 273,72.6 C270.933323,72.6 268.883343,72.233337 266.85,71.5 C264.816657,70.766663 262.983341,69.6833405 261.35,68.25 C259.716658,66.8166595 258.400005,65.0166775 257.4,62.85 C256.399995,60.6833225 255.9,58.133348 255.9,55.2 L255.9,17.6 Z M266.1,55.2 C266.1,57.666679 266.783326,59.4833275 268.15,60.65 C269.516673,61.8166725 271.133324,62.4 273,62.4 C274.866676,62.4 276.483326,61.8166725 277.85,60.65 C279.216673,59.4833275 279.9,57.666679 279.9,55.2 L279.9,17.6 C279.9,15.133321 279.216673,13.3166725 277.85,12.15 C276.483326,10.9833275 274.866676,10.4 273,10.4 C271.133324,10.4 269.516673,10.9833275 268.15,12.15 C266.783326,13.3166725 266.1,15.133321 266.1,17.6 L266.1,55.2 Z M305.8,10.4 L294,10.4 L294,0.8 L327.8,0.8 L327.8,10.4 L316,10.4 L316,72 L305.8,72 L305.8,10.4 Z M332.6,0.8 L342.8,0.8 L342.8,72 L332.6,72 L332.6,0.8 Z M352.1,17.6 C352.1,14.733319 352.599995,12.200011 353.6,10 C354.600005,7.799989 355.916658,5.9833405 357.55,4.55 C359.183341,3.1166595 361.016657,2.033337 363.05,1.3 C365.083343,0.566663 367.133323,0.2 369.2,0.2 C371.266677,0.2 373.316656,0.566663 375.35,1.3 C377.383343,2.033337 379.216658,3.1166595 380.85,4.55 C382.483341,5.9833405 383.799995,7.799989 384.8,10 C385.800005,12.200011 386.3,14.733319 386.3,17.6 L386.3,55.2 C386.3,58.133348 385.800005,60.6833225 384.8,62.85 C383.799995,65.0166775 382.483341,66.8166595 380.85,68.25 C379.216658,69.6833405 377.383343,70.766663 375.35,71.5 C373.316656,72.233337 371.266677,72.6 369.2,72.6 C367.133323,72.6 365.083343,72.233337 363.05,71.5 C361.016657,70.766663 359.183341,69.6833405 357.55,68.25 C355.916658,66.8166595 354.600005,65.0166775 353.6,62.85 C352.599995,60.6833225 352.1,58.133348 352.1,55.2 L352.1,17.6 Z M362.3,55.2 C362.3,57.666679 362.983327,59.4833275 364.35,60.65 C365.716674,61.8166725 367.333324,62.4 369.2,62.4 C371.066676,62.4 372.683327,61.8166725 374.05,60.65 C375.416674,59.4833275 376.1,57.666679 376.1,55.2 L376.1,17.6 C376.1,15.133321 375.416674,13.3166725 374.05,12.15 C372.683327,10.9833275 371.066676,10.4 369.2,10.4 C367.333324,10.4 365.716674,10.9833275 364.35,12.15 C362.983327,13.3166725 362.3,15.133321 362.3,17.6 L362.3,55.2 Z M394.9,0.8 L404.7,0.8 L420.1,43.7 L420.3,43.7 L420.3,0.8 L430.5,0.8 L430.5,72 L420.9,72 L405.3,29.2 L405.1,29.2 L405.1,72 L394.9,72 L394.9,0.8 Z M2.4,95.8 L12.2,95.8 L27.6,138.7 L27.8,138.7 L27.8,95.8 L38,95.8 L38,167 L28.4,167 L12.8,124.2 L12.6,124.2 L12.6,167 L2.4,167 L2.4,95.8 Z M62.8,116.3 L62.6,116.3 L57.6,142.1 L67.8,142.1 L62.8,116.3 Z M58.5,95.8 L67,95.8 L82.9,167 L72.7,167 L69.7,151.7 L55.8,151.7 L52.8,167 L42.6,167 L58.5,95.8 Z M94.6,105.4 L82.8,105.4 L82.8,95.8 L116.6,95.8 L116.6,105.4 L104.8,105.4 L104.8,167 L94.6,167 L94.6,105.4 Z M154.1,151 C154.1,153.333345 153.666671,155.49999 152.8,157.5 C151.933329,159.50001 150.750008,161.249992 149.25,162.75 C147.749992,164.250007 146.00001,165.433329 144,166.3 C141.99999,167.166671 139.866678,167.6 137.6,167.6 C135.333322,167.6 133.20001,167.166671 131.2,166.3 C129.19999,165.433329 127.450008,164.250007 125.95,162.75 C124.449993,161.249992 123.266671,159.50001 122.4,157.5 C121.533329,155.49999 121.1,153.333345 121.1,151 L121.1,95.8 L131.3,95.8 L131.3,150 C131.3,152.533346 131.899994,154.399994 133.1,155.6 C134.300006,156.800006 135.799991,157.4 137.6,157.4 C139.400009,157.4 140.899994,156.800006 142.1,155.6 C143.300006,154.399994 143.9,152.533346 143.9,150 L143.9,95.8 L154.1,95.8 L154.1,151 Z M173.9,127.6 L179.7,127.6 C181.500009,127.6 182.933328,127.350002 184,126.85 C185.066672,126.349997 185.883331,125.633338 186.45,124.7 C187.01667,123.766662 187.399999,122.616673 187.6,121.25 C187.800001,119.883326 187.9,118.300009 187.9,116.5 C187.9,114.699991 187.800001,113.116673 187.6,111.75 C187.399999,110.383326 186.983337,109.216671 186.35,108.25 C185.716664,107.283328 184.833339,106.566669 183.7,106.1 C182.566661,105.633331 181.066676,105.4 179.2,105.4 L173.9,105.4 L173.9,127.6 Z M163.7,95.8 L180.1,95.8 C192.10006,95.8 198.1,102.766597 198.1,116.7 C198.1,120.833354 197.450006,124.383318 196.15,127.35 C194.849993,130.316681 192.566683,132.699991 189.3,134.5 L200.3,167 L189.5,167 L180,136.6 L173.9,136.6 L173.9,167 L163.7,167 L163.7,95.8 Z M206.3,95.8 L236.7,95.8 L236.7,105.4 L216.5,105.4 L216.5,126.3 L234.1,126.3 L234.1,135.9 L216.5,135.9 L216.5,156.8 L236.7,156.8 L236.7,167 L206.3,167 L206.3,95.8 Z" id="SLOW-MOTION-NATURE"></path>
            <polygon id="Rectangle-3" points="2 202 228 202 228 210 2 210"></polygon>
            <path d="M26.628,242.552 L56.684,242.552 L56.684,260.708 L26.628,260.708 L26.628,242.552 Z M52.06,257.24 L52.06,253.228 L31.252,253.228 L31.252,257.24 L52.06,257.24 Z M31.252,249.964 L52.06,249.964 L52.06,246.02 L31.252,246.02 L31.252,249.964 Z M10.988,240.648 L15.408,240.648 L15.408,302.8 L10.988,302.8 L10.988,240.648 Z M3.644,253.568 L7.384,253.84 C7.248,260.572 6.364,266.964 4.868,273.084 L0.992,271.996 C2.556,266.148 3.44,260.028 3.644,253.568 Z M19.896,251.256 C21.12,254.588 22.276,258.464 23.296,262.816 L19.692,263.768 C18.876,259.824 17.788,256.016 16.564,252.412 L19.896,251.256 Z M22.888,264.38 L60.56,264.38 L60.56,277.64 L22.888,277.64 L22.888,264.38 Z M56.344,274.308 L56.344,267.712 L49,267.712 L49,274.308 L56.344,274.308 Z M45.192,274.308 L45.192,267.712 L38.12,267.712 L38.12,274.308 L45.192,274.308 Z M34.244,274.308 L34.244,267.712 L26.9,267.712 L26.9,274.308 L34.244,274.308 Z M23.16,281.788 L58.52,281.788 L58.52,285.188 C55.324,288.996 51.448,292.192 46.96,294.844 C51.72,296.68 57.228,298.108 63.416,299.196 L60.764,303.072 C53.624,301.644 47.504,299.672 42.404,297.224 C36.692,299.808 30.028,301.78 22.48,303.004 L20.44,298.924 C26.832,298.04 32.612,296.612 37.644,294.708 C33.292,292.124 29.756,289.064 26.968,285.664 L23.16,285.664 L23.16,281.788 Z M31.728,285.664 C34.516,288.384 37.984,290.696 42.132,292.736 C46.076,290.764 49.476,288.384 52.468,285.664 L31.728,285.664 Z M83.972,275.736 C83.972,274.557327 84.4026624,273.537338 85.264,272.676 C86.1253376,271.814662 87.1453274,271.384 88.324,271.384 C89.5026726,271.384 90.5226624,271.814662 91.384,272.676 C92.2453376,273.537338 92.676,274.557327 92.676,275.736 C92.676,276.914673 92.2453376,277.934662 91.384,278.796 C90.5226624,279.657338 89.5026726,280.088 88.324,280.088 C87.1453274,280.088 86.1253376,279.657338 85.264,278.796 C84.4026624,277.934662 83.972,276.914673 83.972,275.736 Z M151.496,248.536 L151.496,302.732 L146.532,302.732 L146.532,298.516 L110.764,298.516 L110.764,302.732 L105.8,302.732 L105.8,248.536 L120.352,248.536 C121.848,245.816 123.004,243.096 123.684,240.24 L128.648,240.92 C127.9,243.64 126.812,246.224 125.452,248.536 L151.496,248.536 Z M110.764,293.824 L146.532,293.824 L146.532,282.74 L110.764,282.74 L110.764,293.824 Z M110.764,278.252 L146.532,278.252 L146.532,267.848 L110.764,267.848 L110.764,278.252 Z M110.764,263.36 L146.532,263.36 L146.532,253.228 L110.764,253.228 L110.764,263.36 Z M218.136,241.124 C221.264,244.592 223.78,247.652 225.548,250.236 L221.876,252.752 C220.108,249.896 217.728,246.7 214.668,243.232 L218.136,241.124 Z M206.916,240.716 L211.472,240.716 L211.472,249.556 C211.404,251.46 211.336,253.228 211.2,254.928 L225.888,254.928 L225.888,259.688 L212.696,259.688 C214.736,268.12 219.904,274.716 228.064,279.544 L225.412,283.76 C217.592,278.728 212.356,272.064 209.704,263.904 C208.888,266.76 207.936,269.344 206.78,271.588 C203.924,276.62 199.164,280.632 192.568,283.488 L190.052,279.612 C196.308,276.756 200.728,273.016 203.176,268.392 C204.4,265.808 205.284,262.952 205.964,259.688 L197.056,259.688 L197.056,254.928 L206.644,254.928 C206.78,253.16 206.916,251.392 206.916,249.556 L206.916,240.716 Z M175.432,285.188 L179.784,286.412 C178.152,292.804 176.112,298.38 173.596,303.276 L168.836,301.576 C171.42,297.224 173.596,291.784 175.432,285.188 Z M191.004,286.14 C191.956,290.9 192.772,296.136 193.588,301.712 L188.76,302.8 C188.148,296.884 187.4,291.648 186.448,287.092 L191.004,286.14 Z M205.216,285.324 C206.984,290.356 208.548,295.728 209.908,301.576 L205.012,302.732 C203.788,296.476 202.36,291.036 200.592,286.344 L205.216,285.324 Z M218.136,284.032 C221.128,288.996 224.052,294.436 226.772,300.352 L222.352,302.528 C219.768,296.408 216.98,290.9 213.988,286.004 L218.136,284.032 Z M178.22,257.24 C176.996,259.144 175.636,260.912 174.276,262.544 C177.88,263.972 181.212,265.672 184.34,267.576 C185.836,265.672 187.196,263.632 188.352,261.592 C185.02,259.824 181.62,258.328 178.22,257.24 Z M190.188,257.784 C191.412,255.064 192.364,252.14 193.18,249.148 L182.572,249.148 C181.892,250.712 181.144,252.276 180.328,253.772 C183.728,254.86 187.06,256.152 190.188,257.784 Z M184.204,244.796 L198.144,244.796 L198.144,248.808 C194.132,265.536 184.544,277.504 169.448,284.644 L167.136,280.36 C172.78,277.98 177.54,274.784 181.416,270.84 C178.152,268.732 174.888,266.964 171.556,265.604 C170.468,266.76 169.38,267.848 168.292,268.8 L165.3,264.924 C172.916,258.192 178.016,249.964 180.668,240.24 L185.428,240.852 C185.02,242.212 184.612,243.504 184.204,244.796 Z" id="慢-·自然"></path>
            <path d="M9.26,355.64 L9.26,359.14 L14.34,359.14 L14.34,355.64 L9.26,355.64 Z M9.18,360.46 C8.96,363.02 8.22,365.14 6.94,366.82 L5.84,365.84 C7.12,364.06 7.78,361.8 7.82,359.06 L7.82,349.46 L22.72,349.46 L22.72,364.44 C22.72,365.84 22.02,366.54 20.62,366.54 L18.32,366.54 L17.94,365.12 C18.74,365.16 19.48,365.2 20.16,365.2 C20.88,365.2 21.26,364.78 21.26,363.94 L21.26,360.46 L15.82,360.46 L15.82,366.32 L14.34,366.32 L14.34,360.46 L9.18,360.46 Z M21.26,359.14 L21.26,355.64 L15.82,355.64 L15.82,359.14 L21.26,359.14 Z M21.26,354.3 L21.26,350.86 L15.82,350.86 L15.82,354.3 L21.26,354.3 Z M14.34,350.86 L9.26,350.86 L9.26,354.3 L14.34,354.3 L14.34,350.86 Z M26.5,349.7 L43.5,349.7 L43.5,351.12 L36.98,351.12 C36.62,351.94 36.2,352.74 35.74,353.5 L35.74,367.04 L34.26,367.04 L34.26,355.62 C32.38,357.96 29.92,360.04 26.88,361.86 L25.94,360.6 C30.46,358 33.62,354.84 35.38,351.12 L26.5,351.12 L26.5,349.7 Z M38.26,355.08 C40.56,356.9 42.48,358.72 44.04,360.54 L42.94,361.66 C41.54,359.9 39.64,358.04 37.22,356.06 L38.26,355.08 Z M61.28,366.92 L58.62,366.92 L58.22,365.48 L60.82,365.54 C61.32,365.54 61.58,365.24 61.58,364.64 L61.58,350.84 L48.42,350.84 L48.42,366.98 L46.98,366.98 L46.98,349.44 L63.02,349.44 L63.02,364.96 C63.02,366.26 62.44,366.92 61.28,366.92 Z M49.88,353.14 L60.14,353.14 L60.14,354.48 L49.88,354.48 L49.88,353.14 Z M51,356.64 L59.02,356.64 L59.02,363.08 L51,363.08 L51,356.64 Z M57.62,361.8 L57.62,357.94 L52.4,357.94 L52.4,361.8 L57.62,361.8 Z M69.94,358.76 L69.94,359.1 C69.92,359.82 69.88,360.5 69.8,361.14 L74.64,361.14 L74.64,358.76 L69.94,358.76 Z M69.58,362.42 C69.18,364.22 68.46,365.78 67.42,367.08 L66.32,366.08 C67.76,364.28 68.48,361.98 68.52,359.2 L68.52,354.44 C67.98,354.84 67.44,355.2 66.88,355.56 L65.96,354.46 C68.52,352.94 70.6,350.96 72.2,348.52 L73.64,348.84 C73.32,349.34 72.98,349.82 72.66,350.28 L80.12,350.28 L80.12,351.34 C79.22,352.22 78.32,352.98 77.42,353.62 L82.58,353.62 L82.58,365.12 C82.58,366.3 81.92,366.9 80.62,366.9 L78.06,366.9 L77.7,365.56 C78.6,365.6 79.44,365.64 80.2,365.64 C80.84,365.64 81.18,365.3 81.18,364.62 L81.18,362.42 L76.06,362.42 L76.06,366.64 L74.64,366.64 L74.64,362.42 L69.58,362.42 Z M81.18,361.14 L81.18,358.76 L76.06,358.76 L76.06,361.14 L81.18,361.14 Z M81.18,357.48 L81.18,354.92 L76.06,354.92 L76.06,357.48 L81.18,357.48 Z M69.52,353.62 L75.32,353.62 C76.26,353.02 77.2,352.34 78.14,351.54 L71.64,351.54 C70.96,352.3 70.26,352.98 69.52,353.62 Z M74.64,354.92 L69.94,354.92 L69.94,357.48 L74.64,357.48 L74.64,354.92 Z M90.22,359.66 L101.94,359.66 L101.94,360.72 C100.82,362.08 99.46,363.26 97.84,364.22 C99.64,364.98 101.72,365.52 104.1,365.84 L103.48,367.08 C100.72,366.62 98.38,365.92 96.48,364.96 C94.46,365.92 92.12,366.64 89.48,367.08 L88.86,365.82 C91.18,365.48 93.26,364.94 95.06,364.18 C93.58,363.26 92.36,362.16 91.44,360.9 L90.22,360.9 L90.22,359.66 Z M92.96,360.9 C93.88,361.94 95.02,362.82 96.4,363.54 C97.8,362.8 99.02,361.92 100.06,360.9 L92.96,360.9 Z M89.06,355.18 L89.06,356.74 C88.98,360.98 88.26,364.38 86.9,366.94 L85.82,365.98 C86.98,363.76 87.58,360.68 87.62,356.74 L87.62,350.22 L95.32,350.22 C95.08,349.7 94.84,349.24 94.56,348.8 L96.08,348.56 C96.32,349.06 96.56,349.62 96.78,350.22 L103.64,350.22 L103.64,351.58 L89.06,351.58 L89.06,353.86 L92.42,353.86 L92.42,352.24 L93.82,352.24 L93.82,353.86 L99.12,353.86 L99.12,352.22 L100.52,352.22 L100.52,353.86 L103.6,353.86 L103.6,355.18 L100.52,355.18 L100.52,358.3 L92.42,358.3 L92.42,355.18 L89.06,355.18 Z M93.82,355.18 L93.82,357.08 L99.12,357.08 L99.12,355.18 L93.82,355.18 Z M118.48,359.4 C120.52,362.04 122.08,364.32 123.16,366.28 L121.94,367.14 C121.62,366.56 121.28,365.96 120.92,365.36 C116.28,365.84 111.88,366.2 107.72,366.44 L107.46,365.26 C109.18,364.32 110.94,362.06 112.74,358.46 L106.1,358.46 L106.1,357.06 L114.26,357.06 L114.26,353.28 L107.36,353.28 L107.36,351.88 L114.26,351.88 L114.26,348.7 L115.74,348.7 L115.74,351.88 L122.6,351.88 L122.6,353.28 L115.74,353.28 L115.74,357.06 L123.88,357.06 L123.88,358.46 L114.34,358.46 C112.92,361.46 111.48,363.66 110.02,365.08 C114.86,364.7 118.26,364.4 120.18,364.16 C119.34,362.88 118.38,361.54 117.32,360.14 L118.48,359.4 Z M129.94,353.38 L136.52,353.38 L136.52,354.56 L129.94,354.56 L129.94,353.38 Z M130.48,355.84 L136.06,355.84 L136.06,359.92 L130.48,359.92 L130.48,355.84 Z M134.72,358.8 L134.72,356.96 L131.84,356.96 L131.84,358.8 L134.72,358.8 Z M143.28,350.46 L143.28,351.78 L138.56,351.78 C138.64,353.18 138.8,354.34 139.04,355.24 C139.18,355.86 139.34,356.42 139.54,356.92 C140.26,355.76 140.88,354.42 141.36,352.86 L142.48,353.44 C141.86,355.4 141.1,357 140.18,358.28 L140.36,358.56 C140.88,359.26 141.36,359.62 141.8,359.62 C142.16,359.62 142.54,358.78 142.94,357.12 L144.1,357.8 C143.5,359.9 142.78,360.96 141.94,360.96 C141.14,360.96 140.38,360.54 139.64,359.74 C139.52,359.6 139.4,359.46 139.32,359.34 C138.66,360.04 137.96,360.6 137.24,361.04 L136.5,359.92 C137.28,359.46 138,358.86 138.64,358.14 C138.32,357.5 138.04,356.76 137.8,355.94 C137.48,354.82 137.28,353.44 137.18,351.78 L129.02,351.78 L129.02,354.4 C128.96,357.04 128.28,359.18 127,360.8 L125.92,359.82 C127,358.52 127.56,356.72 127.62,354.4 L127.62,350.46 L137.12,350.46 C137.08,349.86 137.08,349.22 137.08,348.58 L138.46,348.58 C138.46,349.24 138.46,349.86 138.5,350.46 L140.68,350.46 C140.48,349.9 140.26,349.38 140.02,348.9 L141.3,348.68 C141.52,349.2 141.74,349.8 141.94,350.46 L143.28,350.46 Z M128.24,361.18 L129.56,361.46 C129,363.34 128.24,364.96 127.24,366.34 L126.02,365.56 C127.02,364.24 127.76,362.78 128.24,361.18 Z M137.62,366.68 L132.66,366.68 C131.48,366.68 130.9,366.04 130.9,364.78 L130.9,360.96 L132.36,360.96 L132.36,364.48 C132.36,365.04 132.6,365.32 133.1,365.32 L137.36,365.32 C137.76,365.32 138.06,365.22 138.24,365.02 C138.44,364.78 138.6,364.1 138.68,362.94 L140.04,363.4 C139.92,364.96 139.66,365.9 139.26,366.26 C138.9,366.54 138.36,366.68 137.62,366.68 Z M141.4,361.6 C142.6,362.92 143.5,364.08 144.12,365.08 L142.98,365.9 C142.3,364.82 141.4,363.62 140.24,362.32 L141.4,361.6 Z M135,360.62 C135.94,361.62 136.66,362.52 137.16,363.28 L136.08,364.04 C135.56,363.2 134.84,362.28 133.92,361.28 L135,360.62 Z M162.14,348.82 L162.84,350.04 C158.96,350.64 153.8,350.96 147.38,350.96 L146.96,349.66 C153.06,349.66 158.12,349.38 162.14,348.82 Z M163.36,354.82 L163.36,359.38 L161.96,359.38 L161.96,356.18 L148.04,356.18 L148.04,359.38 L146.64,359.38 L146.64,354.82 L158.02,354.82 C158.82,353.66 159.5,352.4 160.06,351.08 L161.5,351.62 C160.86,352.9 160.22,353.96 159.56,354.82 L163.36,354.82 Z M149.46,351.46 C150.16,352.28 150.82,353.18 151.42,354.16 L150.18,354.78 C149.56,353.78 148.9,352.88 148.2,352.1 L149.46,351.46 Z M154.22,351.24 C154.86,352.06 155.5,352.96 156.1,353.96 L154.82,354.62 C154.22,353.58 153.6,352.66 152.92,351.86 L154.22,351.24 Z M149.08,358.14 L160.8,358.14 L160.8,359.38 C159.92,360.98 158.54,362.38 156.66,363.54 C158.64,364.44 161.06,365.18 163.92,365.76 L163.08,367.04 C159.92,366.34 157.3,365.44 155.22,364.36 C152.98,365.48 150.22,366.38 146.92,367.06 L146.16,365.7 C149.18,365.14 151.72,364.42 153.78,363.52 C151.96,362.36 150.66,361 149.88,359.46 L149.08,359.46 L149.08,358.14 Z M151.36,359.46 C152.18,360.74 153.46,361.86 155.2,362.82 C156.96,361.86 158.28,360.74 159.2,359.46 L151.36,359.46 Z M167.18,351.98 L173.94,351.98 L173.94,355.26 L167.18,355.26 L167.18,351.98 Z M172.62,354.3 L172.62,352.92 L168.48,352.92 L168.48,354.3 L172.62,354.3 Z M174.42,358.44 L174.42,359.54 C173.6,359.66 172.62,359.8 171.48,359.92 L171.48,361.26 C171.48,362.22 170.9,362.7 169.74,362.7 L168.08,362.7 L167.74,361.46 C168.4,361.54 168.92,361.58 169.3,361.58 C169.82,361.58 170.1,361.36 170.1,360.92 L170.1,360.04 C168.9,360.14 167.54,360.24 166.06,360.32 L165.88,359.2 C167.42,359.14 168.82,359.06 170.1,358.96 L170.1,358.14 L171.86,357.22 L166.72,357.22 L166.72,356.12 L173.74,356.12 L173.74,357.04 L171.48,358.26 L171.48,358.84 C172.56,358.72 173.54,358.58 174.42,358.44 Z M182.6,361.98 C182.22,361.98 181.86,361.78 181.52,361.4 C181.2,361.04 180.96,360.44 180.78,359.6 C180.62,358.68 180.54,357.58 180.54,356.3 C180.54,355.32 180.56,354.2 180.64,352.94 L178.9,352.94 C178.82,354.58 178.58,356.06 178.18,357.38 C178.86,358.14 179.52,359.02 180.16,359.98 L179.12,361 C178.64,360.22 178.14,359.5 177.64,358.86 C176.96,360.4 176.04,361.68 174.84,362.68 L173.76,361.74 C175.04,360.68 175.98,359.32 176.6,357.64 C175.98,357 175.34,356.4 174.7,355.86 L175.54,354.9 C176.06,355.26 176.56,355.7 177.04,356.18 C177.28,355.18 177.44,354.1 177.5,352.94 L175.26,352.94 L175.26,351.56 L177.54,351.56 L177.54,348.66 L178.94,348.66 L178.94,351.56 L182.06,351.56 C181.9,353.28 181.84,354.86 181.84,356.32 C181.84,357.58 181.88,358.56 181.98,359.28 C182.12,360.02 182.28,360.4 182.48,360.42 C182.68,360.38 182.82,360.16 182.92,359.74 C183,359.38 183.08,358.8 183.16,358.02 L184.28,358.54 C184.08,359.98 183.84,360.94 183.54,361.42 C183.3,361.76 182.98,361.94 182.6,361.98 Z M170.56,348.62 C170.74,349 170.92,349.42 171.08,349.9 L175.1,349.9 L175.1,351.06 L165.9,351.06 L165.9,349.9 L169.64,349.9 C169.46,349.52 169.28,349.18 169.1,348.88 L170.56,348.62 Z M168.58,363.06 L169.78,363.64 C169.02,364.92 168.12,366.02 167.08,366.94 L165.9,366.1 C166.94,365.24 167.82,364.22 168.58,363.06 Z M172.96,363.18 C173.28,364.3 173.56,365.52 173.82,366.82 L172.38,367.16 C172.16,365.76 171.9,364.52 171.58,363.46 L172.96,363.18 Z M177.2,363 C177.64,364.16 178.04,365.44 178.4,366.8 L176.96,367.12 C176.66,365.66 176.28,364.38 175.82,363.28 L177.2,363 Z M181,362.5 C182.16,363.94 183.06,365.18 183.7,366.26 L182.5,367.1 C181.84,365.94 180.94,364.66 179.8,363.26 L181,362.5 Z M196.14,355.44 L195.72,355.44 L195.72,359.38 L194.28,359.38 L194.28,355.44 L194.04,355.44 C192.56,357.26 190.16,358.76 186.86,359.94 L186.1,358.66 C189.08,357.8 191.28,356.72 192.7,355.44 L187.06,355.44 L187.06,354.08 L190.48,354.08 C190.16,353.36 189.82,352.68 189.42,352.04 L190.66,351.64 C191.12,352.38 191.54,353.2 191.9,354.08 L194.28,354.08 L194.28,350.9 C192.34,350.98 190.24,351.04 188,351.04 L187.54,349.7 C193.12,349.68 197.74,349.4 201.42,348.88 L202.12,350.1 C200.28,350.42 198.16,350.66 195.72,350.82 L195.72,354.08 L198.08,354.08 C198.58,353.3 199.02,352.38 199.38,351.3 L200.66,351.64 C200.36,352.54 200,353.36 199.6,354.08 L202.94,354.08 L202.94,355.44 L197.48,355.44 C198.92,356.8 201.12,357.88 204.08,358.68 L203.44,360.02 C200,358.84 197.58,357.32 196.14,355.44 Z M188.02,360.64 L189.4,360.92 C188.88,362.96 188.14,364.74 187.2,366.24 L185.96,365.46 C186.9,364.02 187.58,362.4 188.02,360.64 Z M197.86,366.7 L192.34,366.7 C191.28,366.7 190.76,366.12 190.76,364.98 L190.76,360.48 L192.22,360.48 L192.22,364.68 C192.22,365.08 192.4,365.3 192.8,365.3 L197.6,365.3 C198,365.3 198.28,365.18 198.46,364.98 C198.68,364.72 198.84,363.98 198.92,362.76 L200.28,363.2 C200.14,364.84 199.88,365.86 199.48,366.24 C199.14,366.54 198.6,366.7 197.86,366.7 Z M194.9,359.98 C195.94,361.2 196.72,362.28 197.28,363.2 L196.14,364.02 C195.54,363 194.76,361.88 193.78,360.68 L194.9,359.98 Z M201.1,360.4 C202.36,362.12 203.32,363.64 204,364.96 L202.8,365.78 C202.1,364.38 201.14,362.84 199.94,361.14 L201.1,360.4 Z M213.08,352.12 L213.08,365.76 L211.68,365.76 L211.68,364.62 L208.04,364.62 L208.04,366.34 L206.64,366.34 L206.64,352.12 L208.5,352.12 C208.9,351 209.18,349.84 209.36,348.64 L210.8,348.84 C210.56,350.02 210.26,351.12 209.86,352.12 L213.08,352.12 Z M208.04,363.28 L211.68,363.28 L211.68,358.9 L208.04,358.9 L208.04,363.28 Z M208.04,357.6 L211.68,357.6 L211.68,353.48 L208.04,353.48 L208.04,357.6 Z M216.56,356.76 C218,358.42 219.08,359.88 219.84,361.12 L218.7,361.92 C217.88,360.6 216.78,359.12 215.4,357.48 L216.56,356.76 Z M223.42,352.14 C223.42,358.78 223.32,362.9 223.12,364.46 C222.92,365.98 222,366.76 220.32,366.76 C219.92,366.76 219.24,366.72 218.28,366.68 L217.94,365.36 C218.78,365.4 219.5,365.42 220.12,365.42 C221.06,365.42 221.6,364.9 221.76,363.88 C221.88,362.76 221.96,359.3 222,353.54 L216.5,353.54 C215.94,354.8 215.28,355.94 214.5,356.96 L213.64,355.82 C215.04,353.86 215.98,351.46 216.5,348.62 L217.92,348.8 C217.68,349.98 217.4,351.1 217.04,352.14 L223.42,352.14 Z M241.72,351.04 L241.72,366.98 L240.26,366.98 L240.26,365.74 L229.74,365.74 L229.74,366.98 L228.28,366.98 L228.28,351.04 L232.56,351.04 C233,350.24 233.34,349.44 233.54,348.6 L235,348.8 C234.78,349.6 234.46,350.36 234.06,351.04 L241.72,351.04 Z M229.74,364.36 L240.26,364.36 L240.26,361.1 L229.74,361.1 L229.74,364.36 Z M229.74,359.78 L240.26,359.78 L240.26,356.72 L229.74,356.72 L229.74,359.78 Z M229.74,355.4 L240.26,355.4 L240.26,352.42 L229.74,352.42 L229.74,355.4 Z M261.32,348.86 C262.24,349.88 262.98,350.78 263.5,351.54 L262.42,352.28 C261.9,351.44 261.2,350.5 260.3,349.48 L261.32,348.86 Z M258.02,348.74 L259.36,348.74 L259.36,351.34 C259.34,351.9 259.32,352.42 259.28,352.92 L263.6,352.92 L263.6,354.32 L259.72,354.32 C260.32,356.8 261.84,358.74 264.24,360.16 L263.46,361.4 C261.16,359.92 259.62,357.96 258.84,355.56 C258.6,356.4 258.32,357.16 257.98,357.82 C257.14,359.3 255.74,360.48 253.8,361.32 L253.06,360.18 C254.9,359.34 256.2,358.24 256.92,356.88 C257.28,356.12 257.54,355.28 257.74,354.32 L255.12,354.32 L255.12,352.92 L257.94,352.92 C257.98,352.4 258.02,351.88 258.02,351.34 L258.02,348.74 Z M248.76,361.82 L250.04,362.18 C249.56,364.06 248.96,365.7 248.22,367.14 L246.82,366.64 C247.58,365.36 248.22,363.76 248.76,361.82 Z M253.34,362.1 C253.62,363.5 253.86,365.04 254.1,366.68 L252.68,367 C252.5,365.26 252.28,363.72 252,362.38 L253.34,362.1 Z M257.52,361.86 C258.04,363.34 258.5,364.92 258.9,366.64 L257.46,366.98 C257.1,365.14 256.68,363.54 256.16,362.16 L257.52,361.86 Z M261.32,361.48 C262.2,362.94 263.06,364.54 263.86,366.28 L262.56,366.92 C261.8,365.12 260.98,363.5 260.1,362.06 L261.32,361.48 Z M249.58,353.6 C249.22,354.16 248.82,354.68 248.42,355.16 C249.48,355.58 250.46,356.08 251.38,356.64 C251.82,356.08 252.22,355.48 252.56,354.88 C251.58,354.36 250.58,353.92 249.58,353.6 Z M253.1,353.76 C253.46,352.96 253.74,352.1 253.98,351.22 L250.86,351.22 C250.66,351.68 250.44,352.14 250.2,352.58 C251.2,352.9 252.18,353.28 253.1,353.76 Z M251.34,349.94 L255.44,349.94 L255.44,351.12 C254.26,356.04 251.44,359.56 247,361.66 L246.32,360.4 C247.98,359.7 249.38,358.76 250.52,357.6 C249.56,356.98 248.6,356.46 247.62,356.06 C247.3,356.4 246.98,356.72 246.66,357 L245.78,355.86 C248.02,353.88 249.52,351.46 250.3,348.6 L251.7,348.78 C251.58,349.18 251.46,349.56 251.34,349.94 Z M268.72,362.62 C269.16,362.62 269.54,362.8 269.82,363.18 C270.08,363.54 270.22,364 270.22,364.58 C270.22,365.46 269.96,366.24 269.44,366.92 C268.92,367.56 268.22,368 267.38,368.22 L267.38,367.24 C267.9,367.06 268.32,366.76 268.64,366.36 C268.94,365.94 269.08,365.5 269.08,365.02 C269,365.06 268.84,365.1 268.64,365.1 C268.3,365.1 268.02,364.98 267.78,364.74 C267.54,364.5 267.42,364.2 267.42,363.86 C267.42,363.48 267.54,363.18 267.78,362.96 C268.02,362.72 268.32,362.62 268.72,362.62 Z M9.06,380.58 L19.74,380.58 L19.74,378.76 L8.54,378.76 L8.54,377.46 L21.16,377.46 L21.16,384.98 L8.3,384.98 L8.3,383.68 L19.74,383.68 L19.74,381.84 L9.06,381.84 L9.06,380.58 Z M6.16,386.98 L18.12,386.98 L18.12,385.52 L19.56,385.52 L19.56,386.98 L23.86,386.98 L23.86,388.36 L19.56,388.36 L19.56,393.08 C19.56,394.24 18.94,394.84 17.74,394.84 L15.22,394.84 L14.9,393.48 C15.72,393.52 16.5,393.56 17.26,393.56 C17.82,393.56 18.12,393.28 18.12,392.72 L18.12,388.36 L6.16,388.36 L6.16,386.98 Z M10.6,389.18 C11.98,390.18 13.14,391.16 14.06,392.14 L13.04,393.16 C12.2,392.2 11.06,391.2 9.62,390.12 L10.6,389.18 Z M42.96,380.66 L43.18,382.04 L37,383.18 C37.12,384.32 37.26,385.34 37.46,386.26 C37.64,387.08 37.84,387.84 38.06,388.52 C39.4,387.24 40.54,385.7 41.46,383.9 L42.7,384.56 C41.58,386.72 40.2,388.52 38.56,389.98 C38.8,390.54 39.02,391.04 39.26,391.46 C40.02,392.62 40.7,393.22 41.3,393.24 C41.74,393.16 42.22,391.96 42.7,389.66 L43.98,390.46 C43.66,391.62 43.3,392.6 42.94,393.38 C42.48,394.32 41.96,394.8 41.38,394.8 C40.46,394.8 39.54,394.16 38.62,392.88 C38.22,392.3 37.84,391.62 37.5,390.84 C36.18,391.82 34.7,392.6 33.1,393.2 L32.32,391.98 C34.04,391.38 35.6,390.54 36.96,389.48 C36.7,388.78 36.46,388.04 36.26,387.24 C35.98,386.16 35.76,384.9 35.6,383.44 L32.96,383.94 L32.74,382.54 L35.46,382.04 C35.32,380.44 35.24,378.66 35.24,376.66 L36.7,376.66 C36.7,378.54 36.76,380.26 36.88,381.78 L42.96,380.66 Z M32.62,384.56 L32.62,386.04 C31.82,386.48 31,386.86 30.18,387.22 L30.18,393.1 C30.18,394.28 29.58,394.88 28.42,394.88 L26.7,394.88 L26.38,393.46 C26.92,393.52 27.44,393.56 27.92,393.56 C28.44,393.56 28.72,393.28 28.72,392.74 L28.72,387.84 C27.86,388.18 27,388.48 26.12,388.76 L25.74,387.26 C26.74,387 27.74,386.7 28.72,386.34 L28.72,381.72 L26,381.72 L26,380.34 L28.72,380.34 L28.72,376.72 L30.18,376.72 L30.18,380.34 L32.56,380.34 L32.56,381.72 L30.18,381.72 L30.18,385.76 C31.02,385.4 31.82,385 32.62,384.56 Z M39.7,376.68 C40.38,377.48 41,378.34 41.6,379.28 L40.3,379.92 C39.72,378.94 39.1,378.06 38.42,377.28 L39.7,376.68 Z M46.22,381.92 L54,381.92 C54.16,380.76 54.24,379.56 54.26,378.3 L54.26,376.68 L55.74,376.68 L55.74,377.98 C55.74,379.38 55.64,380.68 55.48,381.92 L63.78,381.92 L63.78,383.32 L55.9,383.32 C57.3,387.84 60.06,391.32 64.16,393.76 L63.26,394.92 C59.24,392.44 56.48,388.96 54.98,384.44 C53.74,389.3 50.98,392.84 46.72,395.06 L45.82,393.86 C50.08,391.76 52.72,388.24 53.76,383.32 L46.22,383.32 L46.22,381.92 Z M66.16,384.88 L74.36,384.88 L74.36,379.74 C72.36,379.9 70.2,380 67.9,380 L67.44,378.68 C73.16,378.68 77.92,378.14 81.72,377.08 L82.44,378.34 C80.56,378.9 78.36,379.32 75.84,379.6 L75.84,384.88 L83.84,384.88 L83.84,386.28 L75.84,386.28 L75.84,394.94 L74.36,394.94 L74.36,386.28 L66.16,386.28 L66.16,384.88 Z M85.98,381.42 L88.54,381.42 L88.54,376.9 L90,376.9 L90,381.42 L94.08,381.42 L94.08,376.72 L95.5,376.72 L95.5,381.42 L99.56,381.42 L99.56,376.72 L100.98,376.72 L100.98,381.42 L104,381.42 L104,382.8 L100.98,382.8 L100.98,389.1 L94.08,389.1 L94.08,382.8 L90,382.8 L90,392.76 L103.32,392.76 L103.32,394.22 L88.54,394.22 L88.54,382.8 L85.98,382.8 L85.98,381.42 Z M95.5,382.8 L95.5,387.7 L99.56,387.7 L99.56,382.8 L95.5,382.8 Z M108.14,377.44 L121.94,377.44 L121.94,385.38 L118.1,385.38 C119.42,386.92 121.48,388.14 124.26,389.04 L123.64,390.3 C121.7,389.58 120.1,388.72 118.86,387.74 L118.86,395.04 L117.42,395.04 L117.42,387.52 L118.6,387.52 C117.76,386.84 117.1,386.12 116.6,385.38 L113.38,385.38 C111.98,387.3 109.68,388.88 106.48,390.14 L105.72,388.88 C108.5,387.96 110.56,386.8 111.88,385.38 L108.14,385.38 L108.14,377.44 Z M120.56,384.1 L120.56,381.98 L115.7,381.98 L115.7,384.1 L120.56,384.1 Z M114.3,384.1 L114.3,381.98 L109.52,381.98 L109.52,384.1 L114.3,384.1 Z M109.52,380.78 L114.3,380.78 L114.3,378.72 L109.52,378.72 L109.52,380.78 Z M115.7,378.72 L115.7,380.78 L120.56,380.78 L120.56,378.72 L115.7,378.72 Z M111.46,387.5 L112.9,387.5 C112.9,389.08 112.66,390.42 112.2,391.52 C111.6,392.96 110.22,394.14 108.1,395.06 L107.14,393.9 C108.94,393.16 110.16,392.24 110.76,391.12 C111.2,390.16 111.44,388.96 111.46,387.5 Z M134.26,376.58 L135.74,376.58 L135.74,380.18 L142.92,380.18 L142.92,389.58 L141.48,389.58 L141.48,388.32 L135.74,388.32 L135.74,395.14 L134.26,395.14 L134.26,388.32 L128.54,388.32 L128.54,389.58 L127.1,389.58 L127.1,380.18 L134.26,380.18 L134.26,376.58 Z M128.54,386.92 L134.26,386.92 L134.26,381.58 L128.54,381.58 L128.54,386.92 Z M135.74,386.92 L141.48,386.92 L141.48,381.58 L135.74,381.58 L135.74,386.92 Z M146.24,378.02 L163.76,378.02 L163.76,379.4 L153.46,379.4 L153.46,380.28 C153.44,381.5 153.38,382.64 153.26,383.7 L161.88,383.7 C161.84,388.98 161.62,392.16 161.18,393.2 C160.7,394.24 159.9,394.76 158.78,394.76 C157.98,394.76 157,394.72 155.88,394.68 L155.52,393.3 C156.7,393.34 157.66,393.38 158.42,393.4 C159.26,393.36 159.8,392.9 160.04,392 C160.24,391.12 160.38,388.78 160.42,385.02 L153.1,385.02 C152.82,386.86 152.4,388.46 151.8,389.8 C150.76,392.02 149.06,393.74 146.74,394.96 L145.94,393.7 C148.22,392.46 149.8,390.78 150.7,388.7 C151.54,386.54 151.98,383.74 152.04,380.28 L152.04,379.4 L146.24,379.4 L146.24,378.02 Z M175.04,376.64 L176.4,377 C176.18,378.04 175.94,379 175.66,379.88 L183.42,379.88 C183.42,386.56 183.32,390.68 183.12,392.24 C182.9,394 181.82,394.88 179.88,394.88 C179.6,394.88 179.1,394.86 178.38,394.82 L178.04,393.52 C178.68,393.56 179.22,393.6 179.68,393.6 C180.9,393.6 181.6,392.96 181.78,391.68 C181.92,390.56 182,387.08 182.04,381.28 L180.68,381.28 C180.24,384.62 179.64,387.26 178.86,389.2 C177.94,391.28 176.58,393.16 174.76,394.82 L173.88,393.68 C175.56,392.16 176.8,390.48 177.64,388.64 C178.42,386.78 179,384.32 179.38,381.28 L177.82,381.28 C177.02,385.64 175.5,388.8 173.26,390.78 L172.32,389.7 C174.38,387.94 175.78,385.12 176.54,381.28 L175.16,381.28 C174.62,382.56 174.02,383.6 173.34,384.44 L172.28,383.54 C173.56,381.94 174.48,379.64 175.04,376.64 Z M167.8,382.24 C167.58,383.24 167.32,384.22 167,385.16 L165.74,384.8 C166.5,382.68 166.92,380.46 167.02,378.12 L168.28,378.22 C168.24,379.1 168.16,379.98 168.04,380.84 L169.44,380.84 L169.44,376.68 L170.84,376.68 L170.84,380.84 L172.52,380.84 L172.52,382.24 L170.84,382.24 L170.84,387.04 C171.4,386.78 171.92,386.52 172.44,386.24 L172.44,387.6 C171.92,387.88 171.38,388.14 170.84,388.4 L170.84,395 L169.44,395 L169.44,389 C168.42,389.4 167.38,389.78 166.3,390.12 L165.96,388.72 C167.16,388.44 168.32,388.08 169.44,387.64 L169.44,382.24 L167.8,382.24 Z M193.08,380.12 L193.08,393.76 L191.68,393.76 L191.68,392.62 L188.04,392.62 L188.04,394.34 L186.64,394.34 L186.64,380.12 L188.5,380.12 C188.9,379 189.18,377.84 189.36,376.64 L190.8,376.84 C190.56,378.02 190.26,379.12 189.86,380.12 L193.08,380.12 Z M188.04,391.28 L191.68,391.28 L191.68,386.9 L188.04,386.9 L188.04,391.28 Z M188.04,385.6 L191.68,385.6 L191.68,381.48 L188.04,381.48 L188.04,385.6 Z M196.56,384.76 C198,386.42 199.08,387.88 199.84,389.12 L198.7,389.92 C197.88,388.6 196.78,387.12 195.4,385.48 L196.56,384.76 Z M203.42,380.14 C203.42,386.78 203.32,390.9 203.12,392.46 C202.92,393.98 202,394.76 200.32,394.76 C199.92,394.76 199.24,394.72 198.28,394.68 L197.94,393.36 C198.78,393.4 199.5,393.42 200.12,393.42 C201.06,393.42 201.6,392.9 201.76,391.88 C201.88,390.76 201.96,387.3 202,381.54 L196.5,381.54 C195.94,382.8 195.28,383.94 194.5,384.96 L193.64,383.82 C195.04,381.86 195.98,379.46 196.5,376.62 L197.92,376.8 C197.68,377.98 197.4,379.1 197.04,380.14 L203.42,380.14 Z M206.92,378.68 L211.48,378.68 C211.2,378 210.88,377.38 210.52,376.82 L212.04,376.58 C212.36,377.2 212.66,377.9 212.96,378.68 L217.14,378.68 C217.48,377.98 217.74,377.26 217.9,376.54 L219.44,376.74 C219.24,377.42 218.98,378.06 218.64,378.68 L223.08,378.68 L223.08,380 L215.74,380 L215.74,381.9 L222.02,381.9 L222.02,383.18 L215.74,383.18 L215.74,385.12 L223.74,385.12 L223.74,386.44 L206.26,386.44 L206.26,385.12 L214.26,385.12 L214.26,383.18 L208.04,383.18 L208.04,381.9 L214.26,381.9 L214.26,380 L206.92,380 L206.92,378.68 Z M214.4,386.96 L215.88,387.12 C215.8,387.64 215.7,388.14 215.56,388.58 L223.3,388.58 L223.3,389.94 L216.3,389.94 C217.68,391.78 220.34,393.04 224.28,393.7 L223.52,395.06 C219.12,394.18 216.26,392.54 214.94,390.14 C214.5,390.98 213.92,391.7 213.24,392.34 C211.94,393.52 209.66,394.44 206.4,395.12 L205.8,393.72 C208.7,393.18 210.78,392.4 212.06,391.38 C212.58,390.96 213,390.48 213.34,389.94 L206.72,389.94 L206.72,388.58 L214,388.58 C214.18,388.06 214.32,387.52 214.4,386.96 Z M230,390.16 C230.72,390.16 231.32,390.4 231.84,390.88 C232.34,391.36 232.6,391.96 232.6,392.68 C232.6,393.38 232.34,393.98 231.84,394.46 C231.32,394.94 230.72,395.18 230,395.18 C229.28,395.18 228.66,394.94 228.16,394.48 C227.64,394 227.4,393.4 227.4,392.68 C227.4,391.96 227.64,391.36 228.16,390.88 C228.66,390.4 229.28,390.16 230,390.16 Z M230,391.2 C229.58,391.2 229.22,391.34 228.94,391.64 C228.62,391.92 228.48,392.26 228.48,392.68 C228.48,393.08 228.62,393.42 228.94,393.7 C229.22,393.98 229.58,394.14 230,394.14 C230.4,394.14 230.76,393.98 231.06,393.7 C231.36,393.42 231.52,393.08 231.52,392.68 C231.52,392.26 231.36,391.92 231.06,391.64 C230.76,391.34 230.4,391.2 230,391.2 Z" id="用不同角度去感受熟悉的自然，-寻找大千世"></path>
        </g>
    </g>
</svg>